<?xml version="1.0" encoding="utf-8"?>
<!-- Generator: Adobe Illustrator 16.0.0, SVG Export Plug-In . SVG Version: 6.00 Build 0)  -->
<!DOCTYPE svg PUBLIC "-//W3C//DTD SVG 1.1//EN" "http://www.w3.org/Graphics/SVG/1.1/DTD/svg11.dtd">
<svg version="1.1" id="Capa_1" xmlns="http://www.w3.org/2000/svg" xmlns:xlink="http://www.w3.org/1999/xlink" x="0px" y="0px"
	 width="886px" height="160px" viewBox="0 0 886 160" enable-background="new 0 0 886 160" xml:space="preserve">
<g>
	<defs>
		<rect id="SVGID_1_" width="886" height="160"/>
	</defs>
	<clipPath id="SVGID_2_">
		<use xlink:href="#SVGID_1_"  overflow="visible"/>
	</clipPath>
	<g clip-path="url(#SVGID_2_)">
		<g>
			<path fill-rule="evenodd" clip-rule="evenodd" fill="#FFFFFF" d="M1042.85-257c0.333,0.167,0.943,0.315,0.955,0.503
				c0.084,1.327,0.045,2.663,0.045,3.996c0,223.761,0,447.523,0,671.35c-400.161,0-800.321,0-1200.85,0
				c0-224.905,0-449.877,0-674.849c58.322-0.021,116.643-0.059,174.965-0.06c339.435-0.006,678.869-0.001,1018.305-0.042
				C1038.463-256.102,1040.656-256.688,1042.85-257z M276.949,106.824c-0.604,0.075-1.208,0.149-1.813,0.224
				c-0.87-2.687-1.791-5.357-2.6-8.063c-3.75-12.537-7.284-25.145-11.281-37.604c-1.967-6.132-3.901-13.051-11.631-14.28
				c-9.511-1.513-17.485,6.701-13.604,17.616c3.119,8.771,6.845,17.331,9.832,26.143c6.089,17.962,11.645,36.108,17.967,53.985
				c1.109,3.138,4.486,6.904,7.501,7.666c8.822,2.228,15.013-2.378,17.518-11.09c3.58-12.452,7.35-24.851,11.155-37.235
				c0.986-3.21,2.408-6.286,3.683-9.561c0.961,0.485,1.66,0.608,1.762,0.924c3.137,9.709,6.221,19.438,9.301,29.166
				c2.332,7.365,4.334,14.856,7.104,22.054c1.33,3.455,3.836,6.142,8.551,6.314c8.418,0.311,11.927-1.629,15.442-11.431
				c2.979-8.306,5.527-16.767,8.49-25.078c3.862-10.833,7.977-21.576,11.921-32.38c1.91-5.229,3.09-10.822,5.673-15.68
				c2.825-5.313,1.61-10.354-0.239-14.92c-1.815-4.485-6.229-7.167-11.501-6.565c-4.791,0.546-8.867,2.824-10.388,7.677
				c-2.272,7.244-3.93,14.679-6.128,21.948c-2.789,9.225-5.8,18.384-8.875,27.519c-0.389,1.152-1.738,1.983-2.834,3.171
				c-2.979-9.226-5.793-17.501-8.311-25.865c-2.489-8.271-4.563-16.668-7.038-24.945c-1.709-5.719-6.322-9.488-11.061-9.545
				c-5.735-0.069-11.604,3.599-13.383,8.989c-2.627,7.953-4.863,16.036-7.256,24.067C282.248,88.969,279.601,97.897,276.949,106.824
				z M139.757,64.838c-3.463,3.67-6.478,6.813-9.435,10.009c-5.736,6.198-8.745,13.544-9.563,21.947
				c-0.909,9.333,0.771,18.286,4.805,26.512c4.573,9.322,9.695,18.481,20.457,22.468c4.653,1.725,9.102,4.034,13.556,6.252
				c13.889,6.916,27.753,5.438,40.868-1.384c6.943-3.612,14.542-7.302,18.828-15.761c-2.944,0.842-5.2,1.487-8.546,2.444
				c4.511-4.159,8.413-6.944,11.285-10.548c11.704-14.684,13.117-29.133,5.569-47.274c-2.527-6.075-7.592-11.074-11.351-16.663
				c-7.56-11.241-19.073-16.014-31.6-17.535c-11.916-1.448-24.045-0.236-34.905,5.777c-6.61,3.661-12.934,7.96-16.634,15.481
				C135.675,65.895,137.701,65.371,139.757,64.838z M28.265,74.831c2.917,0,5.291,0.202,7.618-0.038
				c6.494-0.672,13.239-0.672,19.357-2.608c4.137-1.309,5.593-6.1,4.474-10.883c-1.193-5.1-6.316-10.341-10.557-10.4
				c-5.827-0.08-11.662,0.138-17.479-0.11c-1.12-0.048-3.13-1.694-3.092-2.527c0.165-3.572,0.265-7.4,1.618-10.619
				c4.756-11.316,16.815-16.032,28.398-11.394c5.493,2.2,13.025-0.323,14.908-5.613c2.417-6.791,0.532-12.664-6.758-15.875
				C56.326,0.17,46.029,1.337,35.53,3.593C15.022,8,3.901,23.833,3.26,42.031c-1.162,32.934-0.455,65.935-0.335,98.908
				c0.009,2.442,0.838,5.992,2.542,7.104c4.481,2.926,9.407,5.897,15.315,3.395c4.505-1.908,7.443-6.897,7.448-12.847
				c0.009-10.157,0.027-20.313,0.033-30.471C28.27,97.309,28.265,86.498,28.265,74.831z M106.978,79.515
				c0-20.663,0.142-41.327-0.06-61.988c-0.101-10.387-8.379-15.44-17.594-12.4c-4.608,1.521-8.226,8.383-8.246,14.885
				c-0.029,9.1-0.081,18.201-0.086,27.301c-0.014,24.327-0.009,48.655-0.01,72.982c0,6.666,0.077,13.332-0.017,19.996
				c-0.085,6.04,6.081,14.804,11.62,14.764c8.505-0.061,14.365-5.52,14.382-14.052C107.008,120.508,106.98,100.012,106.978,79.515z
				 M414.913,101.466c0-9.987,0-19.976,0-29.962c0-7.323,0.164-14.652-0.069-21.969c-0.111-3.496-1.513-6.437-5.825-6.558
				c-4.403-0.124-5.529,2.818-6.054,6.331c-0.122,0.814-0.026,1.662-0.026,2.494c0.001,32.791-0.011,65.583,0.041,98.374
				c0.002,1.758,0.051,3.844,0.955,5.188c1.038,1.546,3.073,3.394,4.638,3.359c1.834-0.039,4.047-1.624,5.305-3.179
				c0.976-1.205,0.991-3.392,0.999-5.143C414.943,134.091,414.916,117.778,414.913,101.466z M561.22,125.245
				c8.624,8.096,22.038,5.301,27.682,0.118c8.452-7.762,9.178-23.863,3.982-32.139c-6.612-10.529-14.544-11.646-32.96-4.293
				c0-5.793-0.079-11.395,0.032-16.993c0.062-3.107-0.954-5.402-4.263-5.481c-3.858-0.092-2.695,3.21-2.709,5.192
				c-0.113,17.293-0.055,34.587-0.077,51.881c-0.003,2.534-0.313,5.627,3.209,5.413C557.821,128.841,559.398,126.64,561.22,125.245z
				 M493.853,84.763c5.001-3.552,5.271-5.292,1.331-9.055c-4.972-4.75-11.092-7.186-17.861-7.554
				c-21.937-1.191-37.677,19.788-30.546,41.51c6.069,18.482,30.21,28.02,48.371,13.16c1.446-1.183,2.702-3.193,3.007-4.995
				c0.263-1.562-0.95-3.372-1.512-5.073c-1.459,0.536-3.17,0.756-4.326,1.674c-2.543,2.018-4.431,5.277-7.246,6.466
				c-15.756,6.657-30.926-1.628-32.235-20.151c-0.86-12.15,5.5-22.405,15.757-25.288C478.926,72.552,487.221,76.161,493.853,84.763z
				 M627.686,108.919c2.379,0,4.029-0.001,5.679,0c8.815,0.011,17.634,0.147,26.441-0.098c1.393-0.039,3.738-1.627,3.941-2.795
				c1.301-7.485-2.766-15.358-9.383-19.209c-7.485-4.356-15.091-4.21-22.509-0.133c-8.483,4.662-11.493,12.325-10.948,21.686
				c0.524,8.999,4.719,16.094,12.765,19.677c8.368,3.728,17.091,2.944,24.931-2.405c1.189-0.812,2.566-2.105,2.806-3.374
				c0.341-1.812-0.287-3.805-0.501-5.721c-1.535,0.499-3.623,0.527-4.513,1.574c-4.941,5.81-11.22,5.631-17.7,4.26
				C631.915,120.946,629.532,115.608,627.686,108.919z M535.092,125.456c1.353,1.055,3.287,2.562,5.221,4.069
				c0.863-2.282,2.353-4.533,2.471-6.854c0.338-6.644,0.683-13.38-0.072-19.954c-0.539-4.698-1.743-10.088-4.589-13.598
				c-6.528-8.051-18.163-7.101-26.621-1.869c-2.024,1.252-3.82,3.321-4.915,5.433c-0.547,1.057,0.397,3.316,1.34,4.493
				c0.359,0.449,2.809-0.296,3.937-1.049c1.891-1.263,3.317-3.239,5.237-4.434c4.887-3.039,10.155-2.329,14.365,0.789
				c2.272,1.684,2.939,5.536,4.772,9.321c-4.938,0.508-8.224,0.606-11.408,1.229c-4.633,0.905-9.37,1.73-13.736,3.429
				c-4.806,1.87-6.958,7.376-6.135,13.956c0.586,4.683,3.597,7.296,8.09,8.254c2.264,0.483,4.706,1.504,6.816,1.066
				C525.135,128.646,530.264,126.86,535.092,125.456z M835.863,106.868c0.006-13.525-10.012-23.247-24.983-22.659
				c-10.303,0.404-20.28,8.379-20.796,22.296c-0.443,11.968,10.944,23.351,22.912,23.4
				C825.322,129.958,835.857,119.345,835.863,106.868z M733.012,116.703c-3.924,2.706-3.953,5.144-0.971,8.011
				c6.528,6.278,14.551,6.057,22.448,4.667c6.974-1.227,11.412-7.068,11.371-13.207c-0.039-5.96-2.948-8.969-11.103-11.325
				c-3.784-1.093-7.866-1.532-11.317-3.26c-2.264-1.134-5.155-4.103-5.073-6.142c0.136-3.397,3.36-5.327,7.149-5.534
				c5.169-0.283,9.811,0.456,13.602,4.551c0.733,0.792,2.985,0.179,4.536,0.214c-0.01-1.595,0.652-3.744-0.135-4.696
				c-7.207-8.727-22.585-8.247-29.314-1.247c-3.68,3.827-4.829,11.902-1.623,14.063c4.228,2.848,8.971,4.991,13.647,7.094
				c2.352,1.057,5.364,0.83,7.492,2.138c2.089,1.282,3.435,3.773,5.104,5.735c-2.133,1.741-4.013,4.346-6.448,5.063
				C744.92,125.023,738.462,122.516,733.012,116.703z M851.412,88.097c-1.161-0.975-2.817-3.533-4.65-3.665
				c-3.803-0.274-2.834,3.288-2.851,5.567c-0.083,11.315-0.182,22.636,0.121,33.944c0.045,1.646,1.953,4.24,3.469,4.646
				c3.353,0.899,3.425-1.92,3.405-4.406c-0.054-6.822-0.036-13.646-0.031-20.469c0.005-7.359,6.368-13.645,13.886-13.732
				c6.813-0.079,11.096,5.099,11.12,13.487c0.021,7.155-0.198,14.322,0.171,21.459c0.078,1.529,2.229,2.95,3.424,4.421
				c1.133-1.514,3.181-2.99,3.245-4.55c0.331-7.974,0.199-15.97,0.139-23.957c-0.078-10.077-8.34-18.095-18.261-16.934
				C859.949,84.453,855.505,86.744,851.412,88.097z M686.82,120.888c-1.919-5.245-3.368-9.371-4.936-13.453
				c-2.646-6.894-5.168-13.85-8.226-20.561c-0.627-1.376-3.376-1.785-5.146-2.64c-0.326,1.696-1.38,3.665-0.863,5.046
				c4.595,12.317,9.367,24.572,14.379,36.726c0.68,1.647,3.097,3.791,4.49,3.643c2.038-0.217,4.888-1.871,5.643-3.652
				c5.186-12.253,9.948-24.686,14.732-37.105c0.387-1.004,0.156-3.268-0.189-3.355c-1.465-0.371-3.544-0.744-4.532,0.015
				c-1.447,1.11-2.4,3.086-3.132,4.87C695.059,100.135,691.208,109.904,686.82,120.888z M611.896,128.223
				c0-19.309,0.012-38.276-0.009-57.243c-0.005-4.557-2.43-5.668-6.341-4.601c-0.247,0.561-0.492,0.857-0.493,1.155
				c-0.061,19.134-0.183,38.268-0.082,57.4C604.995,129.47,607.91,129.881,611.896,128.223z M721.853,106.974
				c0.007,0,0.013,0,0.02,0c0-5.997,0.299-12.019-0.188-17.977c-0.141-1.725-2.531-3.268-3.89-4.895
				c-0.822,1.488-2.303,2.951-2.362,4.469c-0.466,11.945-0.671,23.902-0.927,35.856c-0.052,2.419,0.195,5.295,3.403,4.582
				c1.573-0.351,3.63-2.879,3.765-4.559C722.139,118.657,721.853,112.804,721.853,106.974z M774.871,106.454
				c0.006,0,0.012,0,0.019,0c0,6.329-0.195,12.669,0.146,18.979c0.079,1.459,1.991,2.818,3.06,4.224
				c1.237-1.286,3.543-2.57,3.543-3.857c0.01-12.647-0.278-25.298-0.776-37.935c-0.043-1.104-2.17-2.126-3.329-3.187
				c-0.887,1.097-2.495,2.163-2.541,3.293C774.738,94.124,774.871,100.291,774.871,106.454z M808.927,76.274
				c0.283,0.436,0.566,0.872,0.851,1.308c5.961,0.445,10.666-2.802,15.201-5.934c1.425-0.983,2.748-4.152,2.189-5.55
				c-1.22-3.051-4.293-2.098-6.212-0.558C816.771,68.9,812.916,72.671,808.927,76.274z M713.123,68.932
				c-0.018,0.787-0.035,1.574-0.053,2.361c1.689,1.217,3.528,3.559,5.027,3.359c1.743-0.233,4.168-2.479,4.552-4.232
				c0.689-3.158-1.76-4.919-4.83-4.36C716.135,66.367,714.681,67.933,713.123,68.932z M779.512,65.206
				c-0.743,0.026-1.486,0.053-2.229,0.078c-1.052,1.632-3.219,3.548-2.892,4.828c0.472,1.843,2.754,3.224,4.264,4.802
				c1.368-1.479,3.729-2.89,3.834-4.453C782.602,68.783,780.594,66.963,779.512,65.206z"/>
			<path fill-rule="evenodd" clip-rule="evenodd" d="M1042.85-257c-2.193,0.313-4.387,0.898-6.58,0.898
				c-339.436,0.041-678.87,0.036-1018.305,0.042C-40.357-256.059-98.678-256.021-157-256c0.167-0.333,0.316-0.943,0.503-0.955
				c1.328-0.084,2.663-0.045,3.997-0.045C245.949-257,644.399-257,1042.85-257z"/>
			<path fill-rule="evenodd" clip-rule="evenodd" d="M276.949,106.824c2.652-8.927,5.299-17.855,7.958-26.779
				c2.393-8.031,4.629-16.114,7.256-24.067c1.78-5.39,7.648-9.058,13.383-8.989c4.738,0.058,9.351,3.827,11.061,9.545
				c2.475,8.276,4.549,16.674,7.038,24.945c2.518,8.364,5.332,16.64,8.311,25.865c1.096-1.188,2.445-2.019,2.834-3.171
				c3.074-9.135,6.086-18.294,8.875-27.519c2.198-7.27,3.856-14.704,6.128-21.948c1.521-4.853,5.597-7.131,10.388-7.677
				c5.272-0.602,9.686,2.081,11.501,6.565c1.849,4.566,3.064,9.607,0.239,14.92c-2.583,4.858-3.764,10.451-5.673,15.68
				c-3.944,10.804-8.059,21.547-11.921,32.38c-2.963,8.312-5.512,16.772-8.49,25.078c-3.515,9.802-7.023,11.741-15.442,11.431
				c-4.714-0.173-7.221-2.859-8.551-6.314c-2.769-7.197-4.772-14.688-7.104-22.054c-3.08-9.729-6.164-19.457-9.301-29.166
				c-0.102-0.315-0.801-0.438-1.762-0.924c-1.275,3.274-2.697,6.351-3.683,9.561c-3.806,12.385-7.575,24.783-11.155,37.235
				c-2.504,8.712-8.695,13.317-17.518,11.09c-3.015-0.762-6.393-4.528-7.501-7.666c-6.322-17.877-11.878-36.023-17.967-53.985
				c-2.987-8.813-6.713-17.372-9.832-26.143c-3.881-10.915,4.093-19.128,13.604-17.616c7.73,1.229,9.664,8.148,11.631,14.28
				c3.998,12.458,7.531,25.066,11.281,37.604c0.81,2.705,1.73,5.376,2.6,8.063C275.74,106.974,276.345,106.899,276.949,106.824z"/>
			<path fill-rule="evenodd" clip-rule="evenodd" d="M139.757,64.838c-2.057,0.532-4.082,1.057-6.666,1.726
				c3.7-7.521,10.024-11.821,16.634-15.481c10.86-6.013,22.99-7.225,34.905-5.777c12.527,1.521,24.04,6.294,31.6,17.535
				c3.759,5.589,8.823,10.587,11.351,16.663c7.547,18.141,6.135,32.59-5.569,47.274c-2.872,3.604-6.773,6.389-11.285,10.548
				c3.346-0.957,5.602-1.603,8.546-2.444c-4.286,8.459-11.884,12.148-18.828,15.761c-13.115,6.821-26.979,8.3-40.868,1.384
				c-4.455-2.218-8.903-4.527-13.556-6.252c-10.762-3.986-15.884-13.146-20.457-22.468c-4.035-8.226-5.714-17.179-4.805-26.512
				c0.818-8.402,3.827-15.749,9.563-21.947C133.279,71.651,136.294,68.509,139.757,64.838z M157.383,128.44
				c0.502,1.534,0.563,3.528,1.59,4.514c2.871,2.752,6.041,5.233,9.313,7.504c1.062,0.736,2.806,0.488,3.795,0.628
				c-4.989-4.251-9.875-8.412-14.76-12.574c-0.084-0.897-0.168-1.795-0.256-2.726c2.699,0.736,5.346,0.852,7.269,2.091
				c7.375,4.754,14.616,3.165,22.566,1.409c9.974-2.202,20.371-18.244,20.208-27.731c-0.162-9.469-3.139-17.913-7.193-26.101
				c-1.276-2.578-3.879-4.499-5.875-6.721c-0.258,0.291-0.517,0.581-0.775,0.872c1.239,2.149,2.478,4.298,3.717,6.447
				c-0.357,0.369-0.715,0.738-1.072,1.108c-1.769-1.332-3.352-3.143-5.338-3.915c-9.472-3.677-19.143-3.803-28.542,0.06
				c-9.388,3.858-17.997,19.411-16.825,29.577c0.998,8.65,3.713,16.743,8.469,24.045
				C154.272,127.844,156.132,127.938,157.383,128.44z M197.092,142.409c-6.307,0.341-12.548,0.679-19.86,1.073
				C185.094,146.259,195.865,145.133,197.092,142.409z"/>
			<path fill-rule="evenodd" clip-rule="evenodd" d="M28.265,74.831c0,11.667,0.005,22.478-0.001,33.29
				c-0.006,10.157-0.024,20.313-0.033,30.471c-0.005,5.949-2.943,10.938-7.448,12.847c-5.908,2.503-10.834-0.469-15.315-3.395
				c-1.704-1.112-2.533-4.662-2.542-7.104c-0.12-32.973-0.827-65.974,0.335-98.908C3.901,23.833,15.022,8,35.53,3.593
				C46.029,1.337,56.326,0.17,66.752,4.762c7.29,3.211,9.175,9.084,6.758,15.875c-1.883,5.29-9.415,7.813-14.908,5.613
				c-11.583-4.638-23.642,0.078-28.398,11.394c-1.353,3.218-1.453,7.047-1.618,10.619c-0.039,0.833,1.972,2.479,3.092,2.527
				c5.817,0.248,11.652,0.03,17.479,0.11c4.241,0.059,9.364,5.3,10.557,10.4c1.119,4.784-0.336,9.574-4.474,10.883
				c-6.118,1.937-12.863,1.937-19.357,2.608C33.555,75.033,31.182,74.831,28.265,74.831z"/>
			<path fill-rule="evenodd" clip-rule="evenodd" d="M106.979,79.515c0.001,20.497,0.029,40.993-0.012,61.489
				c-0.017,8.532-5.876,13.991-14.382,14.052c-5.539,0.04-11.705-8.724-11.62-14.764c0.094-6.664,0.016-13.33,0.017-19.996
				c0.001-24.327-0.004-48.656,0.01-72.982c0.005-9.101,0.057-18.201,0.086-27.301c0.021-6.502,3.638-13.365,8.246-14.885
				c9.215-3.041,17.493,2.013,17.594,12.4C107.119,38.188,106.978,58.852,106.979,79.515z"/>
			<path fill-rule="evenodd" clip-rule="evenodd" d="M414.915,101.466c0.001,16.313,0.028,32.625-0.039,48.937
				c-0.007,1.751-0.023,3.938-0.999,5.143c-1.258,1.555-3.471,3.14-5.305,3.179c-1.564,0.034-3.6-1.813-4.638-3.359
				c-0.904-1.345-0.953-3.431-0.955-5.188c-0.052-32.791-0.04-65.583-0.041-98.374c0-0.832-0.095-1.679,0.026-2.494
				c0.525-3.513,1.651-6.455,6.054-6.331c4.312,0.121,5.714,3.062,5.825,6.558c0.232,7.316,0.069,14.646,0.069,21.969
				C414.913,81.49,414.913,91.479,414.915,101.466z"/>
			<path fill-rule="evenodd" clip-rule="evenodd" d="M561.22,125.245c-1.821,1.395-3.398,3.596-5.104,3.699
				c-3.522,0.214-3.212-2.879-3.209-5.413c0.022-17.294-0.036-34.588,0.077-51.881c0.014-1.982-1.149-5.284,2.709-5.192
				c3.309,0.079,4.324,2.375,4.263,5.481c-0.111,5.598-0.032,11.2-0.032,16.993c18.416-7.354,26.348-6.236,32.96,4.293
				c5.195,8.275,4.47,24.377-3.982,32.139C583.258,130.546,569.844,133.341,561.22,125.245z M589.234,106.981
				c-0.092-1.489-0.101-2.989-0.289-4.467c-0.831-6.493-7.147-12.574-13.277-12.553c-12.056,0.041-17.965,8.063-15.366,21.219
				c0.576,2.917,2,6.116,4.039,8.2c4.082,4.167,12.448,5.022,17.506,2.118C587.332,118.351,589.53,113.224,589.234,106.981z"/>
			<path fill-rule="evenodd" clip-rule="evenodd" d="M493.853,84.763c-6.632-8.602-14.927-12.21-25.261-9.307
				c-10.257,2.883-16.617,13.138-15.757,25.288c1.31,18.523,16.479,26.809,32.235,20.151c2.815-1.188,4.703-4.448,7.246-6.466
				c1.156-0.918,2.867-1.138,4.326-1.674c0.562,1.701,1.774,3.512,1.512,5.073c-0.305,1.802-1.561,3.813-3.007,4.995
				c-18.161,14.859-42.302,5.322-48.371-13.16c-7.131-21.722,8.609-42.701,30.546-41.51c6.77,0.368,12.89,2.804,17.861,7.554
				C499.123,79.47,498.854,81.211,493.853,84.763z"/>
			<path fill-rule="evenodd" clip-rule="evenodd" d="M627.686,108.919c1.847,6.689,4.229,12.027,11.009,13.462
				c6.48,1.371,12.759,1.55,17.7-4.26c0.89-1.047,2.978-1.075,4.513-1.574c0.214,1.916,0.842,3.909,0.501,5.721
				c-0.239,1.269-1.616,2.563-2.806,3.374c-7.84,5.35-16.563,6.133-24.931,2.405c-8.046-3.583-12.24-10.678-12.765-19.677
				c-0.545-9.36,2.465-17.023,10.948-21.686c7.418-4.077,15.023-4.224,22.509,0.133c6.617,3.851,10.684,11.724,9.383,19.209
				c-0.203,1.168-2.549,2.756-3.941,2.795c-8.808,0.245-17.626,0.108-26.441,0.098C631.715,108.918,630.064,108.919,627.686,108.919
				z M655.534,102.804c0.542-7.067-4.445-12.604-11.313-12.782c-8.558-0.224-15.259,5.416-14.988,12.782
				C638.002,102.804,646.776,102.804,655.534,102.804z"/>
			<path fill-rule="evenodd" clip-rule="evenodd" d="M535.092,125.456c-4.828,1.404-9.957,3.189-15.228,4.281
				c-2.11,0.438-4.553-0.583-6.816-1.066c-4.493-0.958-7.504-3.571-8.09-8.254c-0.823-6.58,1.329-12.086,6.135-13.956
				c4.366-1.698,9.104-2.523,13.736-3.429c3.185-0.622,6.471-0.721,11.408-1.229c-1.833-3.785-2.5-7.638-4.772-9.321
				c-4.21-3.118-9.479-3.828-14.365-0.789c-1.92,1.194-3.347,3.171-5.237,4.434c-1.128,0.753-3.577,1.498-3.937,1.049
				c-0.942-1.177-1.887-3.437-1.34-4.493c1.095-2.111,2.891-4.181,4.915-5.433c8.458-5.231,20.093-6.182,26.621,1.869
				c2.846,3.51,4.05,8.899,4.589,13.598c0.755,6.574,0.41,13.311,0.072,19.954c-0.118,2.321-1.607,4.572-2.471,6.854
				C538.379,128.018,536.444,126.511,535.092,125.456z M534.277,107.274c-6.113,1.294-12.425,2.064-18.324,4.056
				c-4.914,1.656-5.614,8.014-1.666,10.634c5.486,3.645,10.793,1.575,15.796-1.136C534.518,118.426,535.763,114.396,534.277,107.274
				z"/>
			<path fill-rule="evenodd" clip-rule="evenodd" d="M835.863,106.868c-0.006,12.477-10.541,23.09-22.867,23.037
				c-11.968-0.05-23.355-11.433-22.912-23.4c0.516-13.917,10.493-21.892,20.796-22.296
				C825.852,83.621,835.869,93.343,835.863,106.868z M797.8,106.545c-0.077,10.043,5.725,16.422,14.979,16.469
				c9.366,0.048,16.002-6.34,16.148-15.547c0.154-9.626-6.787-17.462-15.521-17.521C804.41,89.884,797.875,96.836,797.8,106.545z"/>
			<path fill-rule="evenodd" clip-rule="evenodd" d="M733.012,116.703c5.45,5.813,11.908,8.32,19.366,6.124
				c2.436-0.718,4.315-3.322,6.448-5.063c-1.67-1.962-3.016-4.453-5.104-5.735c-2.128-1.308-5.141-1.081-7.492-2.138
				c-4.677-2.103-9.42-4.246-13.647-7.094c-3.206-2.16-2.057-10.235,1.623-14.063c6.729-7,22.107-7.479,29.314,1.247
				c0.787,0.952,0.125,3.102,0.135,4.696c-1.551-0.035-3.803,0.578-4.536-0.214c-3.791-4.095-8.433-4.834-13.602-4.551
				c-3.789,0.207-7.014,2.137-7.149,5.534c-0.082,2.039,2.81,5.008,5.073,6.142c3.451,1.728,7.533,2.167,11.317,3.26
				c8.154,2.356,11.063,5.365,11.103,11.325c0.041,6.139-4.397,11.98-11.371,13.207c-7.897,1.39-15.92,1.611-22.448-4.667
				C729.059,121.847,729.088,119.409,733.012,116.703z"/>
			<path fill-rule="evenodd" clip-rule="evenodd" d="M851.412,88.097c4.093-1.353,8.537-3.644,13.187-4.188
				c9.921-1.161,18.183,6.856,18.261,16.934c0.061,7.987,0.192,15.983-0.139,23.957c-0.064,1.56-2.112,3.036-3.245,4.55
				c-1.195-1.471-3.346-2.892-3.424-4.421c-0.369-7.137-0.15-14.304-0.171-21.459c-0.024-8.389-4.308-13.566-11.12-13.487
				c-7.518,0.088-13.881,6.373-13.886,13.732c-0.005,6.823-0.022,13.646,0.031,20.469c0.02,2.486-0.053,5.306-3.405,4.406
				c-1.516-0.406-3.424-3-3.469-4.646c-0.303-11.309-0.204-22.629-0.121-33.944c0.017-2.279-0.952-5.842,2.851-5.567
				C848.595,84.563,850.251,87.122,851.412,88.097z"/>
			<path fill-rule="evenodd" clip-rule="evenodd" d="M686.82,120.888c4.388-10.983,8.238-20.753,12.22-30.468
				c0.731-1.784,1.685-3.76,3.132-4.87c0.988-0.759,3.067-0.386,4.532-0.015c0.346,0.088,0.576,2.352,0.189,3.355
				c-4.784,12.42-9.547,24.853-14.732,37.105c-0.755,1.781-3.604,3.436-5.643,3.652c-1.394,0.148-3.811-1.995-4.49-3.643
				c-5.012-12.153-9.784-24.408-14.379-36.726c-0.517-1.381,0.537-3.35,0.862-5.046c1.771,0.854,4.521,1.264,5.147,2.64
				c3.058,6.711,5.579,13.667,8.226,20.561C683.452,111.517,684.901,115.643,686.82,120.888z"/>
			<path fill-rule="evenodd" clip-rule="evenodd" d="M611.896,128.223c-3.985,1.658-6.9,1.247-6.925-3.289
				c-0.101-19.133,0.021-38.267,0.082-57.4c0.001-0.297,0.246-0.594,0.493-1.155c3.911-1.067,6.336,0.044,6.341,4.601
				C611.907,89.946,611.896,108.914,611.896,128.223z"/>
			<path fill-rule="evenodd" clip-rule="evenodd" d="M721.853,106.974c0,5.83,0.286,11.684-0.179,17.478
				c-0.135,1.68-2.191,4.208-3.765,4.559c-3.208,0.713-3.455-2.163-3.403-4.582c0.256-11.954,0.461-23.911,0.927-35.856
				c0.06-1.518,1.54-2.98,2.362-4.468c1.358,1.626,3.749,3.169,3.89,4.894c0.486,5.958,0.188,11.979,0.188,17.977
				C721.865,106.974,721.859,106.974,721.853,106.974z"/>
			<path fill-rule="evenodd" clip-rule="evenodd" d="M774.871,106.454c0-6.163-0.133-12.33,0.12-18.482
				c0.046-1.13,1.654-2.196,2.541-3.293c1.159,1.061,3.286,2.082,3.329,3.187c0.498,12.637,0.786,25.287,0.776,37.935
				c0,1.287-2.306,2.571-3.543,3.857c-1.068-1.405-2.98-2.765-3.06-4.224c-0.341-6.311-0.146-12.65-0.146-18.979
				C774.883,106.454,774.877,106.454,774.871,106.454z"/>
			<path fill-rule="evenodd" clip-rule="evenodd" d="M808.927,76.274c3.989-3.603,7.845-7.374,12.029-10.734
				c1.919-1.54,4.992-2.494,6.212,0.558c0.559,1.398-0.765,4.567-2.189,5.55c-4.535,3.132-9.24,6.379-15.201,5.934
				C809.493,77.146,809.21,76.71,808.927,76.274z"/>
			<path fill-rule="evenodd" clip-rule="evenodd" d="M713.123,68.932c1.558-0.999,3.012-2.565,4.696-2.872
				c3.07-0.56,5.52,1.202,4.83,4.36c-0.384,1.753-2.809,3.999-4.552,4.232c-1.499,0.2-3.338-2.142-5.027-3.359
				C713.088,70.506,713.105,69.719,713.123,68.932z"/>
			<path fill-rule="evenodd" clip-rule="evenodd" d="M779.512,65.206c1.082,1.758,3.09,3.578,2.977,5.255
				c-0.104,1.563-2.466,2.974-3.834,4.453c-1.51-1.578-3.792-2.959-4.264-4.802c-0.327-1.279,1.84-3.196,2.892-4.828
				C778.025,65.258,778.769,65.232,779.512,65.206z"/>
			<path fill-rule="evenodd" clip-rule="evenodd" fill="#FFFFFF" d="M157.406,128.412c-1.274-0.475-3.134-0.568-3.73-1.484
				c-4.756-7.302-7.471-15.395-8.469-24.045c-1.172-10.166,7.437-25.719,16.825-29.577c9.398-3.863,19.069-3.737,28.542-0.06
				c1.986,0.771,3.57,2.583,5.338,3.915c0.357-0.37,0.714-0.739,1.072-1.108c-1.239-2.149-2.478-4.298-3.717-6.447
				c0.258-0.291,0.517-0.581,0.775-0.872c1.996,2.222,4.598,4.143,5.875,6.721c4.054,8.188,7.031,16.632,7.193,26.101
				c0.162,9.487-10.235,25.529-20.208,27.731c-7.95,1.756-15.191,3.345-22.566-1.409c-1.922-1.239-4.57-1.354-7.269-2.091
				c0.087,0.931,0.172,1.828,0.256,2.726L157.406,128.412z M165.72,99.937c0.347,3.584,0.534,6.717,0.979,9.813
				c0.554,3.851,3.537,4.038,5.97,2.707c5.051-2.762,9.803-6.083,14.606-9.281c2.804-1.867,2.58-4.498,0.099-6.015
				c-5.177-3.164-10.691-5.778-16.077-8.599c-2.295-1.202-3.898-0.657-4.324,2.018C166.458,93.816,166.096,97.076,165.72,99.937z"/>
			<path fill-rule="evenodd" clip-rule="evenodd" fill="#FFFFFF" d="M197.092,142.409c-1.227,2.724-11.998,3.85-19.86,1.073
				C184.543,143.088,190.785,142.75,197.092,142.409z"/>
			<path fill-rule="evenodd" clip-rule="evenodd" fill="#FFFFFF" d="M157.322,128.512c4.885,4.162,9.771,8.323,14.76,12.574
				c-0.989-0.14-2.733,0.108-3.795-0.628c-3.272-2.271-6.442-4.752-9.313-7.504c-1.027-0.985-1.088-2.979-1.579-4.527
				C157.406,128.412,157.322,128.512,157.322,128.512z"/>
			<path fill-rule="evenodd" clip-rule="evenodd" fill="#FFFFFF" d="M589.234,106.981c0.296,6.242-1.902,11.369-7.388,14.518
				c-5.058,2.904-13.424,2.049-17.506-2.118c-2.039-2.084-3.463-5.283-4.039-8.2c-2.599-13.155,3.311-21.178,15.366-21.219
				c6.13-0.021,12.446,6.06,13.277,12.553C589.134,103.992,589.143,105.492,589.234,106.981z"/>
			<path fill-rule="evenodd" clip-rule="evenodd" fill="#FFFFFF" d="M655.534,102.804c-8.758,0-17.532,0-26.301,0
				c-0.271-7.366,6.431-13.006,14.988-12.782C651.089,90.2,656.076,95.736,655.534,102.804z"/>
			<path fill-rule="evenodd" clip-rule="evenodd" fill="#FFFFFF" d="M534.277,107.274c1.485,7.121,0.24,11.151-4.194,13.554
				c-5.003,2.711-10.31,4.78-15.796,1.136c-3.948-2.62-3.248-8.978,1.666-10.634C521.853,109.339,528.164,108.568,534.277,107.274z"
				/>
			<path fill-rule="evenodd" clip-rule="evenodd" fill="#FFFFFF" d="M797.8,106.545c0.075-9.709,6.61-16.661,15.605-16.6
				c8.734,0.06,15.676,7.896,15.521,17.521c-0.146,9.207-6.782,15.595-16.148,15.547C803.524,122.967,797.723,116.588,797.8,106.545
				z"/>
			<path fill-rule="evenodd" clip-rule="evenodd" d="M165.72,99.937c0.376-2.86,0.739-6.12,1.253-9.356
				c0.425-2.675,2.029-3.22,4.324-2.018c5.386,2.82,10.9,5.435,16.077,8.599c2.481,1.517,2.705,4.147-0.099,6.015
				c-4.803,3.198-9.555,6.52-14.606,9.281c-2.433,1.331-5.416,1.144-5.97-2.707C166.253,106.653,166.066,103.521,165.72,99.937z"/>
		</g>
	</g>
</g>
</svg>
