<?xml version="1.0" encoding="utf-8"?>
<!-- Generator: Adobe Illustrator 16.0.0, SVG Export Plug-In . SVG Version: 6.00 Build 0)  -->
<!DOCTYPE svg PUBLIC "-//W3C//DTD SVG 1.1//EN" "http://www.w3.org/Graphics/SVG/1.1/DTD/svg11.dtd">
<svg version="1.1" id="Capa_1" xmlns="http://www.w3.org/2000/svg" xmlns:xlink="http://www.w3.org/1999/xlink" x="0px" y="0px"
	 width="1756px" height="216px" viewBox="0 0 1756 216" enable-background="new 0 0 1756 216" xml:space="preserve">
<g>
	<defs>
		<rect id="SVGID_1_" width="1756" height="216"/>
	</defs>
	<clipPath id="SVGID_2_">
		<use xlink:href="#SVGID_1_"  overflow="visible"/>
	</clipPath>
	<g clip-path="url(#SVGID_2_)">
		<defs>
			<rect id="SVGID_3_" x="-38" y="-12" width="1794" height="238"/>
		</defs>
		<clipPath id="SVGID_4_">
			<use xlink:href="#SVGID_3_"  overflow="visible"/>
		</clipPath>
		<g clip-path="url(#SVGID_4_)">
			<g>
				<path fill-rule="evenodd" clip-rule="evenodd" fill="#FFFFFF" d="M1814.741,1002.741c-625.06,0-1250.119,0-1875.179,0
					c0-625.06,0-1250.119,0-1875.179c625.06,0,1250.119,0,1875.179,0C1814.741-247.378,1814.741,377.682,1814.741,1002.741z
					 M21.179,26.535c0.641-0.205,1.281-0.409,1.922-0.613c14.561,30.099,29.122,60.199,43.7,90.332c5.614,0,10.767,0,16.116,0
					c14.719-30.005,29.367-59.867,44.037-89.72c0.065-0.132,0.442-0.167,0.667-0.149c0.226,0.018,0.443,0.157,0.966,0.362
					c0,9.763,0,19.646,0,29.529c0,10.153-0.04,20.308,0.011,30.461c0.05,9.771-0.246,19.56,0.212,29.129c6.638,0,12.192,0,17.654,0
					c1.526-13.848,0.918-107.214-0.682-112.753c-8.216,0-16.453,0-24.886,0c-15.238,31.141-29.544,62.435-45.384,94.408
					c-2.054-3.969-3.398-6.449-4.637-8.98C58.188,62.597,45.519,36.645,32.842,10.697c-0.914-1.871-1.634-3.896-2.865-5.531
					c-0.825-1.096-2.376-2.276-3.635-2.312c-7.466-0.215-14.941-0.106-22.8-0.106c0,38.229,0,75.56,0,113.194
					c6.045,0,11.582,0,17.637,0C21.179,85.754,21.179,56.145,21.179,26.535z M608.541,116.121c2.099,0.179,3.359,0.381,4.619,0.382
					c21.856,0.01,43.712,0.091,65.566-0.089c4.647-0.038,9.377-0.648,13.911-1.687c8.789-2.012,16.641-5.935,22.545-13.059
					c12.322-14.866,7.087-35.28-10.857-42.236c-2.407-0.933-4.908-1.627-8.079-2.666c2.927-1.804,5.367-3.17,7.664-4.745
					c10.416-7.14,14.264-19.707,9.377-30.946c-4.359-10.028-12.756-14.83-22.997-16.599c-5.871-1.015-11.89-1.537-17.851-1.606
					c-19.251-0.223-38.506-0.154-57.76-0.139c-1.98,0.001-3.959,0.395-6.139,0.629C608.541,41.054,608.541,78.198,608.541,116.121z
					 M1546.979,91.825c-0.578,0.274-1.157,0.55-1.735,0.825c-2.493-2.939-5.005-5.863-7.477-8.82
					c-21.192-25.353-42.347-50.738-63.623-76.02c-1.723-2.047-4.138-4.558-6.472-4.838c-5.803-0.696-11.747-0.229-17.829-0.229
					c0,38.364,0,75.68,0,113.287c6.078,0,11.645,0,18.082,0c0-29.675,0-58.868,0-89.531c2.078,1.953,3.048,2.709,3.831,3.626
					c5.57,6.533,11.105,13.097,16.648,19.654c17.469,20.666,34.907,41.356,52.453,61.956c1.596,1.875,3.758,4.287,5.863,4.512
					c5.833,0.62,11.775,0.215,17.963,0.215c0-38.268,0-75.591,0-113.168c-6.025,0-11.558,0-17.705,0
					C1546.979,33.196,1546.979,62.51,1546.979,91.825z M1787.621-17.993c0.001-0.8,0.004-1.601,0.006-2.401
					c-3.228-0.069-6.455-0.199-9.683-0.199c-599.74-0.009-1199.479-0.009-1799.219-0.008c-2.083,0-4.184-0.149-6.244,0.073
					c-1.267,0.137-2.472,0.849-3.704,1.303c0.084,0.411,0.169,0.821,0.253,1.231C575.228-17.993,1181.424-17.993,1787.621-17.993z
					 M1654.451,2.967c0,38.026,0,75.34,0,112.567c8.598,1.59,94.066,1.326,99.815-0.239c0-3.726,0-7.458,0-12.077
					c-26.995,0-53.393,0-80.057,0c0-13.244,0-25.574,0-38.757c25.095,0,49.699,0,74.654,0c0-4.641,0-8.422,0-13.113
					c-8.638,0-16.894,0-25.15,0c-8.326,0-16.653,0.041-24.98-0.011c-8.212-0.051-16.445,0.247-25.032-0.24
					c0-6.699-0.125-12.408,0.035-18.108c0.159-5.59-0.743-11.278,0.762-17.309c26.913-0.153,53.311,0.068,79.749-0.129
					c0-4.874,0-8.602,0-12.584C1720.871,2.967,1688.127,2.967,1654.451,2.967z M829.765,103.58
					c-2.132-5.988-2.458-29.614-0.537-39.151c24.068,0,48.367,0,72.815,0c0-4.797,0-8.558,0-13.255c-24.81,0-49.124,0-73.373,0
					c0-12.244,0-23.53,0-35.421c26.741-0.383,52.874,0.184,78.862-0.314c0-4.816,0-8.533,0-12.185
					c-15.279-1.516-93.049-0.874-98.551,0.742c-1.421,13.608-0.813,106.415,0.751,112.006c32.879,0,65.774,0,98.935,0
					c0-4.287,0-8.042,0-12.421C881.953,103.58,855.743,103.58,829.765,103.58z M223.974,116.179c7.745,0,13.913,0,20.431,0
					c5.396-11.357,10.727-22.575,16.063-33.803c20.573,0,40.765,0,61.052,0c4.675,9.971,9.097,19.652,13.793,29.201
					c0.929,1.888,2.795,4.496,4.426,4.647c6.01,0.557,12.104,0.221,19.43,0.221c-19.64-38.894-38.562-76.362-57.327-113.524
					c-7.664,0-14.394,0-21.77,0C261.584,40.246,243.059,77.65,223.974,116.179z M469.786,56.611
					c-2.105-2.354-3.523-3.829-4.818-5.405C453.072,36.73,441.254,22.19,429.254,7.801c-1.71-2.05-4.138-4.566-6.463-4.829
					c-6.036-0.682-12.201-0.229-19.783-0.229c2.521,3.291,3.968,5.332,5.568,7.245c15.027,17.966,29.933,36.036,45.229,53.769
					c3.706,4.295,5.095,8.576,4.932,14.08c-0.316,10.661-0.121,21.338-0.065,32.008c0.011,1.998,0.358,3.995,0.553,6.021
					c6.549,0,12.595,0,19.164,0c0-13.118,0.207-25.587-0.095-38.043c-0.133-5.503,1.242-9.8,4.889-14.118
					c15.445-18.29,30.519-36.895,45.688-55.417c1.197-1.462,2.083-3.179,3.428-5.269c-2-0.154-3.047-0.135-4.054-0.328
					c-11.847-2.263-19.645,2.462-26.424,12.437C492.197,29.287,480.938,42.333,469.786,56.611z M1260.663,116.103
					c0-4.384,0-8.124,0-12.432c-25.576-0.855-50.702,0.358-76.711-0.716c0-33.675,0-66.589,0-99.754c-6.803,0-12.632,0-18.764,0
					c0,37.828,0,75.154,0,112.903C1197.068,116.103,1228.463,116.103,1260.663,116.103z M1089.594,103.387
					c-9.139,0-17.425,0-25.712,0c-8.58,0-17.162,0.106-25.74-0.031c-8.174-0.131-16.413,0.647-25.332-0.668
					c0-33.619,0-66.497,0-99.413c-6.422,0-11.98,0-17.693,0c0,37.871,0,75.164,0,112.37c9.575,1.557,88.86,1.18,94.478-0.414
					C1089.594,111.695,1089.594,108.106,1089.594,103.387z M1358.731,116.285c1.692-9.811,1.298-107.677-0.319-113.095
					c-5.875,0-11.74,0-17.506,0c-1.649,9.724-1.247,107.416,0.453,113.095C1346.964,116.285,1352.641,116.285,1358.731,116.285z
					 M1322.891,164.324c5.645,16.897,10.868,32.535,16.018,47.949c4.223,0,7.509,0,11.016,0
					c4.135-11.518,8.145-22.683,12.834-35.746c4.424,13.141,8.264,24.552,12.023,35.725c4.076,0,7.354,0,10.919,0
					c5.231-16.012,10.928-31.465,15.621-47.771c-4.099,0-7.074,0-10.36,0c-1.768,6.092-3.28,11.856-5.126,17.512
					c-1.84,5.637-2.518,11.742-6.193,17.901c-4.128-12.754-7.862-24.289-11.522-35.601c-3.967,0-7.033,0-10.588,0
					c-3.852,11.877-7.657,23.613-12.044,37.139c-4.424-13.715-8.219-25.477-11.97-37.107
					C1329.951,164.324,1327.16,164.324,1322.891,164.324z M1175.588,177.047c2.619,2.81,4.05,4.162,5.27,5.684
					c6.178,7.701,12.707,15.165,18.314,23.266c4.354,6.289,9.428,8.28,16.483,5.987c1.603-8.756,1.222-42.361-0.664-48.072
					c-2.87,0.169-5.834,0.343-9.267,0.545c0,6.355,0.039,11.784-0.011,17.212c-0.049,5.486-0.187,10.973-0.3,17.248
					c-1.56-1.179-2.05-1.41-2.345-1.792c-6.981-9.052-13.937-18.121-20.904-27.183c-5.36-6.972-6.582-7.334-15.712-4.73
					c-1.277,12.049-0.802,41.702,0.88,47.505c2.396-0.126,4.892-0.255,8.255-0.432
					C1175.588,200.786,1175.588,189.791,1175.588,177.047z M1663.238,189.053c1.29-1.155,2.07-1.826,2.818-2.529
					c4.012-3.768,4.972-8.375,3.589-13.55c-1.398-5.237-5.376-7.4-10.298-8.206c-2.553-0.419-5.151-0.729-7.733-0.769
					c-7.019-0.104-14.04-0.072-21.061-0.02c-2.492,0.019-4.983,0.253-7.456,0.389c0,16.413,0,31.924,0,47.832
					c3.128,0,5.798,0,9.318,0c0-6.356,0-12.225,0-18.884c5.966,0,11.105-0.119,16.236,0.03c6.516,0.19,8.851,2.37,9.641,8.754
					c0.404,3.269,0.642,6.558,0.981,10.127c3.997,0,7.211,0,10.452,0C1668.619,195.192,1668.619,195.192,1663.238,189.053z
					 M1561.124,214.064c3.177-0.482,6.833-0.702,10.303-1.624c11.881-3.161,18.393-12.511,17.7-24.985
					c-0.73-13.149-8.078-21.952-20.435-23.679c-4.827-0.674-9.875-0.67-14.725-0.112c-12.968,1.491-21.39,10.558-22.094,23.131
					c-0.754,13.439,6.231,22.82,19.55,25.971C1554.426,213.475,1557.564,213.605,1561.124,214.064z M1752.533,165
					c-11.824-1.879-11.829-1.885-18.782,4.43c-3.463,3.146-6.881,6.339-10.361,9.465c-2.399,2.156-4.869,4.232-8.759,7.6
					c0-8.561,0-15.157,0-21.834c-4.048,0-7.198,0-10.318,0c0,16.199,0,31.702,0,47.373c3.604,0,6.75,0,10.15,0
					c0.742-8.165-2.003-17.195,8.528-21.048c4.427,5.439,8.832,10.869,13.254,16.286c5.189,6.355,7.973,7.025,16.996,3.835
					c-7.345-9.154-14.588-18.181-22.146-27.599C1738.256,177.327,1744.894,171.596,1752.533,165z M1292.047,185.063
					c-9.93-1.19-19.811,0.506-29.35-1.043c0-4.522,0-8.248,0-12.802c10.938,0,21.225,0,31.965,0
					c-0.329-2.829-0.553-4.765-0.782-6.734c-13.968,0-27.371,0-40.678,0c-1.474,9.14-1.168,42.117,0.542,48.287
					c6.542,0,13.28,0,20.018,0c6.682,0,13.364,0,20.582,0c-0.147-2.986-0.241-4.886-0.379-7.698c-10.762,0-21.034,0-31.367,0
					c0-4.706,0-8.464,0-13.249c10.256,0,19.979,0,29.982,0C1292.357,189.014,1292.22,187.268,1292.047,185.063z M1482.466,212.35
					c0.346-1.711,0.736-2.499,0.611-3.195c-2.065-11.51,2.827-20.571,9.977-28.902c1.514-1.764,2.769-3.755,4.106-5.667
					c2.17-3.1,4.311-6.219,6.734-9.722c-7.877-2.13-13.292-1.197-16.844,6.063c-2.361,4.827-5.843,9.106-9.129,14.099
					c-1.283-1.637-2.325-2.739-3.107-4.003c-2.454-3.968-5.084-7.862-7.129-12.038c-2.021-4.127-4.999-5.617-9.355-5.037
					c-1.663,0.222-3.349,0.282-5.827,0.48c1.372,2.3,2.175,3.859,3.173,5.28c3.728,5.304,7.259,10.774,11.356,15.781
					c4.661,5.694,7.214,11.766,6.295,19.237c-0.297,2.415,0.279,4.937,0.472,7.623C1477.086,212.35,1479.584,212.35,1482.466,212.35
					z M987.202-81.35c-2.499,8.744-4.771,16.699-7.044,24.655c-0.421-0.081-0.842-0.161-1.263-0.241
					c-1.932-8.021-3.864-16.042-5.82-24.165c-2.617,0-4.748,0-7.438,0c0,10.662-0.065,20.76,0.098,30.854
					c0.017,1.022,1.412,2.021,2.167,3.031c0.51-0.14,1.021-0.278,1.532-0.417c0-7.791,0-15.582,0-23.373
					c0.613-0.076,1.225-0.151,1.838-0.227c1.496,5.926,2.868,11.888,4.547,17.763c0.652,2.278,0.13,5.895,3.634,6.049
					c3.6,0.159,3.24-3.449,3.968-5.729c1.84-5.772,3.494-11.605,5.223-17.413c0.575,0.092,1.148,0.185,1.723,0.277
					c0,6.443-0.106,12.89,0.089,19.327c0.04,1.3,1.224,2.565,1.881,3.846c0.541-0.174,1.082-0.348,1.622-0.521
					c0-11.19,0-22.381,0-33.716C991.66-81.35,989.662-81.35,987.202-81.35z M682.083-70.627c0.48,0.096,0.96,0.193,1.441,0.29
					c1.018,6.38,1.905,12.785,3.152,19.119c0.283,1.435,1.572,3.344,2.829,3.775c2.653,0.909,3.465-1.333,3.946-3.496
					c1.749-7.85,3.563-15.686,5.23-23.553c0.46-2.17,0.5-4.43,0.73-6.625c-1.098-0.167-2.007-0.36-2.026-0.298
					c-2.361,8.199-4.658,16.417-7.221,25.572c-0.81-3.639-1.485-6.383-2.021-9.154c-0.738-3.822-1.227-7.697-2.104-11.483
					c-0.481-2.08-0.205-5.067-3.59-5.115c-3.405-0.049-3.211,2.729-3.592,4.966c-0.174,1.022-0.188,2.072-0.354,3.096
					c-1.017,6.257-2.057,12.51-3.089,18.763c-1.804-3.053-2.417-6.064-2.883-9.097c-0.71-4.617-1.319-9.25-1.968-13.876
					c-0.438-3.132-1.785-4.735-5.752-2.984c2.108,9.872,4.203,19.689,6.302,29.504c0.451,2.109,0.999,4.09,3.823,3.98
					c2.9-0.112,3.067-2.382,3.467-4.364C679.679-57.938,680.864-64.286,682.083-70.627z M4.111-81.339
					C1.835-70.511,2.632-51.11,6.336-46.426c1.649-8.746,0.19-16.79,2.38-24.666c2.091,7.909,4.181,15.818,6.252,23.654
					c1.473,0,2.837,0.209,2.921-0.031c2.765-7.865,5.406-15.773,8.066-23.676c0.928,4.112,0.748,8.151,0.979,12.167
					c0.222,3.862-1.167,8.031,1.361,11.999c1.15-0.748,2.261-1.131,2.265-1.523c0.094-10.823,0.075-21.647,0.075-32.419
					c-3.799-1.465-6.16-0.956-7.117,3.287c-1.142,5.058-2.672,10.03-4.108,15.019c-0.567,1.97-1.333,3.883-2.586,7.479
					c-2.431-9.993-4.379-18.003-6.374-26.202C7.97-81.339,6.006-81.339,4.111-81.339z M1396.053-47.5
					c1.129-0.014,2.259-0.027,3.387-0.042c0.15-11.104,0.125-22.216,0.015-33.082c-4.422-2.048-6.45-0.753-7.446,3.081
					c-1.818,7.005-3.803,13.966-5.719,20.946c-0.398,0.023-0.797,0.045-1.196,0.067c-2.018-8.202-4.037-16.404-6.169-25.066
					c-2.543,0.119-4.727,0.221-7.492,0.35c0,10.681-0.026,20.78,0.021,30.88c0.01,2.241,1.101,3.38,4.376,2.355
					c0-7.469,0-15.234,0-22.999c1.728,1.624,2.396,3.273,2.845,4.98c1.122,4.268,2.054,8.587,3.241,12.836
					c0.645,2.309,0.189,5.93,3.838,5.754c3.496-0.169,2.808-3.875,3.588-6.114c1.02-2.926,1.443-6.056,2.238-9.068
					c0.752-2.845,1.654-5.65,2.49-8.473C1395.993-63.097,1394.605-55.17,1396.053-47.5z M1695.816-70.469
					c2.438,6.189,4.828,12.399,7.331,18.564c1.966,4.838,2.027,4.813,8.335,3.475c0-9.747,0.021-19.604-0.016-29.463
					c-0.009-2.256-0.37-4.345-3.818-3.056c-1.658,7.742,0.526,15.959-1.605,25.621c-3.575-8.698-6.49-15.624-9.262-22.607
					c-1.258-3.169-2.998-4.75-6.452-2.912c0,11.077,0,22.114,0,33.151c0.919,0.119,1.837,0.238,2.756,0.356
					C1695.675-54.537,1693.219-62.58,1695.816-70.469z M596.211-80.701c0,10.171-0.023,20.276,0.018,30.381
					c0.008,2.285,1.145,3.335,4.435,2.296c0-7.204,0-14.753,0-22.304c0.529-0.07,1.058-0.14,1.587-0.21
					c2.531,6.423,5.202,12.796,7.542,19.288c1.492,4.137,3.885,4.94,7.478,3.318c0-11.358,0-22.352,0-33.346
					c-0.528-0.185-1.057-0.369-1.585-0.554c-0.718,1.241-2,2.457-2.057,3.727c-0.244,5.443-0.069,10.905-0.181,16.357
					c-0.031,1.527-0.518,3.044-1.083,6.136c-3.436-8.42-6.201-15.127-8.906-21.858C602.301-80.348,600.971-82.77,596.211-80.701z
					 M483.298-65.509c0.592-1.302,1.422-2.655,1.84-4.124c2.042-7.181-1.187-11.64-8.74-12.035
					c-3.046-0.159-6.107-0.026-9.598-0.026c0,11.802,0,22.813,0,34.335c4.598,0,8.75,0.359,12.815-0.079
					c7.181-0.774,10.541-7.367,7.191-13.772C485.987-62.777,484.541-64.016,483.298-65.509z M1501.899-81.655
					c0,11.768,0,22.797,0,34.302c4.58,0,8.733,0.362,12.799-0.08c7.113-0.774,10.452-7.338,7.186-13.811
					c-0.781-1.547-2.261-2.743-3.564-4.271c0.551-0.785,1.218-1.572,1.708-2.457c4.045-7.304,1.18-12.981-7.025-13.636
					C1509.455-81.891,1505.867-81.655,1501.899-81.655z M133.387-47.321c4.75,0,8.64,0.308,12.463-0.067
					c6.981-0.685,10.392-6.258,7.869-12.796c-0.784-2.033-2.487-3.711-3.818-5.622c0.412-0.588,0.895-1.194,1.286-1.854
					c4.174-7.029,1.501-13.018-6.426-13.875c-3.711-0.401-7.501-0.069-11.374-0.069C133.387-69.701,133.387-58.92,133.387-47.321z
					 M553.933-81.617c0,9.663-0.005,18.438,0.005,27.214c0.002,1.557-0.26,3.227,0.219,4.634c0.36,1.058,1.711,1.778,3.691,3.67
					c0.238-3.751,0.405-5.998,0.517-8.247c0.124-2.474,0.198-4.95,0.29-7.323c9.269-0.542,10.095,0.137,10.578,7.907
					c0.081,1.294-0.281,2.78,0.245,3.838c0.583,1.171,1.95,1.954,2.974,2.905c0.502-0.325,1.004-0.649,1.505-0.974
					c-0.937-5.563,1.661-11.745-4.139-16.112c3.784-4.646,5.418-9.405,2.059-14.016C567.554-84.055,560.993-81.142,553.933-81.617z
					 M302.014-68.247c-4.204,0-7.932,0-11.893,0c-0.281-4.767-0.528-8.976-0.879-14.932c-2.094,2.198-3.496,2.982-3.505,3.783
					c-0.124,10.102-0.096,20.208,0.098,30.309c0.012,0.639,1.723,1.244,4,2.779c0-6.344,0-11.348,0-16.396c4.829,0,8.592,0,13.032,0
					c0,3.313-0.194,6.14,0.06,8.927c0.214,2.356-1.446,5.952,3.146,6.301c2.009-9.928,1.407-29.734-1.517-34.874
					C301.554-77.749,303.89-72.758,302.014-68.247z M531.732-64.362c-0.549-3.61-0.816-7.27-1.707-10.771
					c-1.208-4.748-4.413-7.403-8.787-7.595c-4.538-0.199-8.29,1.573-10.163,5.83c-3.633,8.259-3.619,16.711-0.024,24.968
					c1.836,4.219,5.515,6.117,10.112,5.909c4.325-0.195,7.641-2.838,8.844-7.518C530.908-57.038,531.173-60.699,531.732-64.362z
					 M1095.953-47.278c4.547,0,8.18,0.246,11.768-0.05c7.975-0.655,11.66-7.464,7.873-14.438c-0.791-1.458-2.17-2.597-3.318-3.93
					c0.796-1.061,1.534-1.815,2.008-2.709c3.646-6.873,0.736-12.502-7.003-13.168c-3.73-0.32-7.515-0.004-11.328,0.025
					C1095.953-69.659,1095.953-58.87,1095.953-47.278z M261.155-73.124c0.612-0.122,1.224-0.243,1.836-0.365
					c-0.101-1.609,0.273-3.455-0.39-4.784c-2.03-4.068-5.936-4.801-9.98-4.406c-4.085,0.398-7.496,1.991-8.743,6.485
					c-1.133,4.086-0.189,8.154,2.956,10.547c1.419,1.081,3.167,1.737,4.785,2.548c1.846,0.924,4.354,1.348,5.409,2.822
					c1.334,1.866,2.342,4.756,1.889,6.859c-0.357,1.658-2.962,3.525-4.884,3.985c-2.709,0.649-4.962-1.045-5.956-3.864
					c-0.551-1.562-1.039-3.146-1.665-5.052c-1.259,0.746-2.325,1.017-2.427,1.494c-1.055,4.919,1.204,8.794,5.843,10.305
					c5.887,1.917,12.545-0.824,14.399-5.929c1.817-5.003,0.218-9.586-4.41-11.841c-2.788-1.357-5.916-2.044-8.634-3.509
					c-3.567-1.922-4.512-5.812-2.486-8.507c1.871-2.49,6.448-2.993,9.116-0.772C259.125-76.018,260.053-74.467,261.155-73.124z
					 M1300.088-59.514c-0.601,8.976,1.556,12.257,7.239,13.345c6.096,1.167,11.38-1.799,12.858-7.216
					c1.524-5.583-0.64-9.395-6.849-12.031c-1.908-0.811-3.972-1.354-5.717-2.423c-3.25-1.992-4.131-6.109-2.141-8.744
					c1.944-2.573,6.136-2.454,8.882,0.294c1.096,1.097,2.105,2.281,3.954,4.296c0.496-2.354,1.026-3.363,0.834-4.21
					c-0.993-4.408-3.476-6.279-8.377-6.585c-4.421-0.277-8.235,1.7-9.737,5.048c-1.804,4.019-0.813,9.691,2.521,12.055
					c2.077,1.473,4.615,2.296,6.951,3.401c4.679,2.211,6.621,4.651,5.399,8.145c-0.658,1.879-2.591,3.921-4.435,4.637
					c-3.123,1.211-5.798-1.086-7.915-5.54C1303.003-56.207,1301.961-57.138,1300.088-59.514z M413.496-72.145
					c0.871-1.927,1.36-2.583,1.431-3.282c0.075-0.742-0.113-1.582-0.418-2.278c-1.51-3.454-5.313-5.411-9.688-5.074
					c-4.747,0.365-8.042,2.857-9.318,7.045c-1.262,4.144-0.175,8.043,3.418,10.282c2.396,1.493,5.165,2.414,7.822,3.449
					c3.527,1.375,5.788,3.531,5.066,7.636c-0.586,3.332-2.918,4.932-6.042,5.062c-4.099,0.17-6.093-2.259-6.619-6.173
					c-0.118-0.879-0.661-1.701-1.117-2.814c-1.227,0.672-2.305,0.909-2.416,1.377c-1.155,4.86,1.1,8.815,5.742,10.349
					c5.572,1.841,11.966-0.513,14.121-5.199c2.171-4.722,0.863-9.964-3.422-12.213c-2.974-1.562-6.385-2.294-9.341-3.881
					c-3.566-1.915-4.475-5.874-2.404-8.544c1.9-2.452,6.513-2.887,9.151-0.642C410.753-75.947,411.667-74.405,413.496-72.145z
					 M788.944-47.138c0.797-0.202,1.594-0.404,2.391-0.605c0-5.026,0-10.052,0-15.076c4.335,0,7.636,0,10.706,0
					c2.91,4.992-0.973,10.978,3.441,16.291c2.771-4.229,1.561-8.139,1.746-11.751c0.211-4.14,0.218-8.31-0.003-12.449
					c-0.191-3.585,1.074-7.508-1.757-11.553c-4.274,4.591-0.419,10.317-3.5,14.166c-3.47,0-6.738,0-10.447,0
					c-0.245-4.671-0.468-8.923-0.676-12.898c-3.402-0.902-4.051,0.632-4.056,2.714c-0.021,9.339-0.065,18.68,0.104,28.017
					C786.911-49.222,788.229-48.186,788.944-47.138z M1038.328-47.04c-0.221-2.171-0.174-3.438-0.498-4.602
					c-2.369-8.512-4.84-16.995-7.213-25.504c-0.643-2.305-1.119-5.147-4.212-4.306c-1.507,0.41-3.111,2.524-3.623,4.189
					c-2.596,8.442-4.883,16.981-7.184,25.511c-0.359,1.331-0.239,2.79-0.354,4.386c5.75-0.134,3.166-5.745,6.814-7.717
					c2.879,0,6.651,0,9.993,0C1034.3-52.412,1032.966-48.159,1038.328-47.04z M59.537-55.098c3.289,0,6.832,0,9.861,0
					c2.56,2.473,0.75,7.492,6.331,7.614c-0.172-1.708-0.121-2.973-0.444-4.133c-2.366-8.51-4.828-16.993-7.21-25.498
					c-0.64-2.282-1.071-5.168-4.184-4.341c-1.51,0.401-3.136,2.509-3.645,4.171c-2.588,8.441-4.86,16.981-7.157,25.51
					c-0.36,1.335-0.278,2.79-0.417,4.383C58.462-47.473,55.881-53.074,59.537-55.098z M1443.854-47.373
					c0.118-1.055,0.517-2.079,0.285-2.931c-2.521-9.28-5.044-18.562-7.836-27.762c-0.424-1.401-2.03-3.046-3.408-3.427
					c-2.597-0.716-3.452,1.486-4.044,3.629c-2.557,9.27-5.183,18.521-7.684,27.807c-0.21,0.782,0.313,1.763,0.53,2.817
					c5.126-0.723,2.893-6.02,6.105-7.986c3.175,0,6.743,0,9.673,0C1440.771-53.053,1438.44-47.62,1443.854-47.373z M1143.294-62.188
					c4.25-2.278,8.912,0.775,12.701-3.532c-4.777-0.534-8.731-0.976-12.582-1.406c0-3.984,0-7.273,0-10.262
					c4.286-2.67,9.43,0.651,14.627-3.728c-7.358,0-13.04,0-18.99,0c0,11.42,0,22.236,0,33.67c6.1,0.24,11.75,0.733,17.351-0.229
					c0.055-0.683,0.11-1.366,0.166-2.048c-4.339-0.395-8.679-0.789-13.273-1.207C1143.294-55.004,1143.294-58.548,1143.294-62.188z
					 M1549.739-66.806c0-4.397,0-7.866,0-11.257c4.76-0.413,8.845-0.767,12.929-1.122c-0.054-0.579-0.108-1.159-0.162-1.739
					c-5.626-1.424-11.305-0.909-17.34-0.288c0,11.42,0,22.415,0,33.334c9.562,1.267,12.579,1.082,18.991-1.683
					c-5.897-0.569-10.264-0.991-14.516-1.4c0-4.346,0-8.091,0-11.301c4.055-2.25,8.691,0.897,12.7-3.675
					C1557.556-66.266,1553.799-66.525,1549.739-66.806z M1739.1-66.833c0-4.375,0-7.839,0-11.232
					c4.76-0.411,8.836-0.762,12.913-1.113c-5.784-2.982-10.108-3.061-17.724-1.316c-0.117,10.837-0.383,21.822,0.184,33.489
					c6.439-0.846,12.126,1.096,17.391-2.827c-4.23-0.337-8.46-0.674-12.982-1.034c0-4.183,0-7.926,0-11.051
					c3.821-3.208,9.022,1.102,12.679-4.026C1746.951-66.272,1743.176-66.542,1739.1-66.833z M180.869-50.854
					c0-4.183,0-7.92,0-11.331c3.924-2.579,8.995,1.215,12.754-3.731c-4.82-0.395-8.791-0.721-12.563-1.03c0-4.218,0-7.674,0-10.654
					c4.026-2.18,8.601,0.857,12.509-3.52c-6.314,0-11.519,0-17.253,0c-0.235,11.561-0.415,22.514,0.056,33.324
					c12.263,1.275,13.842,1.124,18.18-1.997C189.636-50.174,185.407-50.502,180.869-50.854z M346.832-63.745
					c-0.054-0.739-0.106-1.479-0.16-2.219c-3.777-0.286-7.555-0.57-11.559-0.872c0-4.065,0-7.697,0-10.839
					c4.158-2.079,8.721,0.988,12.638-3.565c-6.387,0-11.658,0-17.21,0c0,11.459,0,22.438,0,33.779
					c6.072,0.019,11.7,1.343,17.093-0.739c0.028-0.62,0.056-1.24,0.084-1.859c-4.175-0.186-8.35-0.372-12.905-0.574
					c0-4.314,0-8.047,0-12.183C339.071-63.145,342.951-63.444,346.832-63.745z M1460.626-81.155
					c2.627,11.336,9.404,21.37,7.326,33.051c4.146,1.553,5.514-0.049,5.185-2.917c-0.967-8.449,2.86-15.617,5.719-23.071
					c0.869-2.268,1.529-4.614,2.285-6.926c-0.553-0.279-1.105-0.558-1.658-0.837c-5.584,3.029-5.01,10.573-9.32,14.54
					C1465.723-71.095,1467.367-78.796,1460.626-81.155z M101.295-67.271c-6.819-13.111-6.981-13.338-10.138-13.43
					c3.863,10.515,9.397,20.456,8.557,32.024c-0.027,0.37,1.882,0.88,4.676,2.116c-3.911-13.831,5.274-23.367,8.413-35.915
					C104.976-79.059,106.272-70.867,101.295-67.271z M1062.851-47.607c0.839,0.181,1.677,0.362,2.516,0.543
					c0.66-1.299,1.972-2.65,1.872-3.888c-0.612-7.532,1.75-14.282,4.76-20.963c1.31-2.908,2.22-5.997,3.311-9.004
					c-0.635-0.323-1.269-0.647-1.903-0.971c-5.032,3.208-4.512,10.397-8.727,15.118c-1.723-3.5-2.944-6.335-4.478-8.99
					c-1.322-2.288-1.352-6.275-6.515-5.449C1057.668-69.88,1065.405-60.203,1062.851-47.607z M905.162-79.415
					c-0.078-0.604-0.155-1.208-0.232-1.812c-6.595-0.607-13.188-1.161-19.929,1.667c2.479,0.656,4.957,1.313,7.896,2.09
					c0,4.028-0.007,7.878,0.002,11.728c0.014,5.176,0,10.352,0.082,15.527c0.037,2.307,1.162,3.312,4.358,2.064
					c0-9.624,0-19.607,0-29.533C900.496-78.382,902.829-78.898,905.162-79.415z M1589.228-51.313c0-3.178,0.007-6.243-0.001-9.309
					c-0.018-5.955,0.09-11.916-0.178-17.86c-0.053-1.158-1.574-2.251-3.078-4.251c-1.688,9.709-1.401,29.846,0.109,34.876
					c5.555,0,11.003,0,16.451,0C1598.928-51.677,1594.311-49.358,1589.228-51.313z M1624.306-47.682
					c12.433,1.113,13.633,0.994,17.827-2.092c-4.876-0.401-9.072-0.747-13.982-1.151c0-3.481,0.007-6.533-0.002-9.585
					c-0.016-5.945,0.088-11.896-0.17-17.831c-0.051-1.192-1.483-2.323-2.279-3.482c-0.464,0.218-0.929,0.437-1.394,0.655
					C1624.306-70.172,1624.306-59.178,1624.306-47.682z M765.792-79.436c-9.24-3.035-16.549-2.675-21.345-0.069
					c3.159,0.651,5.77,1.189,8.959,1.848c0,5.353-0.231,10.515,0.066,15.646c0.281,4.832-1.316,9.971,2.259,14.544
					c3.25-9.98,0.475-20.528,2.597-30.39C761.114-78.445,763.453-78.94,765.792-79.436z M1245.085-77.757
					c2.932-0.631,5.482-1.179,9.068-1.951c-7.378-2.81-17.38-2.632-22.343,0.252c2.935,0.577,5.367,1.056,8.685,1.708
					c0,5.056-0.293,10.201,0.084,15.296c0.37,4.989-1.771,10.462,2.702,14.958C1245.611-57.483,1243.866-67.736,1245.085-77.757z
					 M1207.667-46.476c1.787-1.19,2.982-1.538,3.208-2.212c1.331-3.954,0.373-28.757-1.149-32.751
					c-0.678,0.177-1.972,0.352-1.973,0.539C1207.656-69.883,1207.667-58.864,1207.667-46.476z M723.404-81.143
					c-0.475-0.211-0.95-0.423-1.425-0.635c-0.745,0.799-2.125,1.588-2.14,2.399c-0.167,9.824-0.202,19.652-0.042,29.476
					c0.015,0.937,1.579,1.849,3.607,4.066C723.404-58.814,723.404-69.978,723.404-81.143z M1664.297-82.607
					c-2.312,9.83-1.838,30.654,0.664,35.546c0.732-0.841,1.832-1.517,1.839-2.204c0.106-10.11,0.102-20.224-0.014-30.334
					C1666.778-80.296,1665.684-80.981,1664.297-82.607z M861.632-45.934c3.197-7.031,1.783-12.914,1.876-18.558
					c0.235-14.254,0.078-14.256-2.612-16.806C858.859-75.068,858.939-53.214,861.632-45.934z M1279.209-81.208
					c-0.816-0.064-1.633-0.127-2.449-0.191c-3.916,3.279,2.127,6.684-0.365,9.981c0.652,0.035,1.303,0.071,1.955,0.106
					C1278.637-74.61,1278.923-77.909,1279.209-81.208z M373.815-82.332c-4.452,3.688-4.452,3.688,0,8.563
					C373.815-76.344,373.815-78.78,373.815-82.332z M1768.223-48.137c-0.781-1.308-1.287-2.756-1.704-2.73
					c-0.997,0.061-1.951,0.815-2.924,1.29c0.472,0.721,0.804,1.823,1.452,2.062C1765.751-47.259,1766.75-47.806,1768.223-48.137z
					 M1763.871-78.833c-0.99,3.78,0.571,3.796,2.975,2.659C1765.939-76.984,1765.033-77.794,1763.871-78.833z M914.561-46.447
					c0.909-1.354,1.804-2.104,1.717-2.714c-0.102-0.708-1.065-1.294-1.654-1.932c-0.608,0.625-1.587,1.187-1.71,1.896
					C912.809-48.591,913.69-47.816,914.561-46.447z"/>
				<path fill-rule="evenodd" clip-rule="evenodd" d="M21.179,26.535c0,29.609,0,59.219,0,89.407c-6.056,0-11.592,0-17.637,0
					c0-37.634,0-74.966,0-113.194c7.859,0,15.334-0.109,22.8,0.106c1.258,0.036,2.81,1.216,3.635,2.312
					c1.231,1.636,1.951,3.66,2.865,5.531c12.677,25.948,25.346,51.9,38.033,77.843c1.238,2.531,2.583,5.011,4.637,8.98
					c15.84-31.973,30.146-63.267,45.384-94.408c8.434,0,16.67,0,24.886,0c1.601,5.539,2.208,98.905,0.682,112.753
					c-5.461,0-11.016,0-17.654,0c-0.458-9.569-0.163-19.358-0.212-29.129c-0.051-10.153-0.011-20.308-0.011-30.461
					c0-9.883,0-19.766,0-29.529c-0.523-0.205-0.74-0.345-0.966-0.362c-0.224-0.018-0.602,0.017-0.667,0.149
					c-14.67,29.853-29.318,59.715-44.037,89.72c-5.349,0-10.501,0-16.116,0c-14.578-30.133-29.139-60.233-43.7-90.332
					C22.46,26.126,21.82,26.331,21.179,26.535z"/>
				<path fill-rule="evenodd" clip-rule="evenodd" d="M608.541,116.121c0-37.923,0-75.067,0-112.762
					c2.18-0.234,4.159-0.627,6.139-0.629c19.254-0.015,38.509-0.084,57.76,0.139c5.96,0.07,11.979,0.591,17.851,1.606
					c10.241,1.769,18.638,6.571,22.997,16.599c4.887,11.239,1.038,23.806-9.377,30.946c-2.297,1.575-4.737,2.941-7.664,4.745
					c3.171,1.039,5.671,1.733,8.079,2.666c17.944,6.957,23.179,27.37,10.857,42.236c-5.905,7.125-13.756,11.047-22.545,13.059
					c-4.533,1.039-9.263,1.649-13.911,1.687c-21.854,0.18-43.71,0.099-65.566,0.089C611.9,116.502,610.64,116.3,608.541,116.121z
					 M627.179,103.535c19.318-0.468,38.212,1.096,57.043-1.129c3.687-0.436,7.535-2.263,10.634-4.418
					c11.085-7.706,9.927-23.397-2.19-29.329c-3.869-1.894-8.375-3.328-12.63-3.442c-17.104-0.458-34.224-0.321-51.338-0.361
					c-0.411-0.001-0.824,0.511-1.519,0.971C627.179,77.971,627.179,90.299,627.179,103.535z M627.205,51.002
					c16.665,0,32.499,0.166,48.325-0.121c3.796-0.069,7.673-1.325,11.322-2.585c6.608-2.282,9.987-7.227,10.146-14.204
					c0.171-7.474-3.548-13.047-10.539-15.671c-2.406-0.903-5.01-1.714-7.542-1.774c-16.618-0.393-33.24-0.574-49.861-0.786
					c-0.455-0.005-0.915,0.417-1.852,0.874C627.205,27.796,627.205,39.086,627.205,51.002z"/>
				<path fill-rule="evenodd" clip-rule="evenodd" d="M1546.979,91.825c0-29.314,0-58.628,0-88.53c6.147,0,11.68,0,17.705,0
					c0,37.577,0,74.9,0,113.168c-6.188,0-12.13,0.405-17.963-0.215c-2.105-0.225-4.268-2.637-5.863-4.512
					c-17.546-20.6-34.984-41.291-52.453-61.956c-5.543-6.557-11.078-13.122-16.648-19.654c-0.783-0.917-1.753-1.673-3.831-3.626
					c0,30.663,0,59.856,0,89.531c-6.438,0-12.004,0-18.082,0c0-37.607,0-74.923,0-113.287c6.082,0,12.026-0.468,17.829,0.229
					c2.334,0.281,4.749,2.791,6.472,4.838c21.276,25.282,42.431,50.667,63.623,76.02c2.472,2.957,4.983,5.881,7.477,8.82
					C1545.821,92.375,1546.4,92.099,1546.979,91.825z"/>
				<path fill-rule="evenodd" clip-rule="evenodd" d="M1787.621-17.993c-606.197,0-1212.394,0-1818.59,0
					c-0.084-0.411-0.169-0.821-0.253-1.231c1.232-0.454,2.438-1.167,3.704-1.303c2.06-0.223,4.16-0.073,6.244-0.073
					c599.74-0.001,1199.479-0.001,1799.219,0.008c3.228,0,6.455,0.129,9.683,0.199C1787.625-19.594,1787.622-18.793,1787.621-17.993
					z"/>
				<path fill-rule="evenodd" clip-rule="evenodd" d="M1654.451,2.967c33.676,0,66.42,0,99.796,0c0,3.983,0,7.71,0,12.584
					c-26.438,0.197-52.836-0.024-79.749,0.129c-1.505,6.031-0.603,11.719-0.762,17.309c-0.16,5.7-0.035,11.409-0.035,18.108
					c8.587,0.487,16.82,0.188,25.032,0.24c8.327,0.052,16.654,0.011,24.98,0.011c8.257,0,16.513,0,25.15,0c0,4.691,0,8.473,0,13.113
					c-24.955,0-49.56,0-74.654,0c0,13.183,0,25.514,0,38.757c26.664,0,53.062,0,80.057,0c0,4.618,0,8.351,0,12.077
					c-5.749,1.564-91.218,1.829-99.815,0.239C1654.451,78.307,1654.451,40.994,1654.451,2.967z"/>
				<path fill-rule="evenodd" clip-rule="evenodd" d="M829.765,103.58c25.978,0,52.188,0,78.902,0c0,4.38,0,8.135,0,12.421
					c-33.161,0-66.056,0-98.935,0c-1.564-5.591-2.172-98.397-0.751-112.006c5.502-1.616,83.271-2.257,98.551-0.742
					c0,3.652,0,7.369,0,12.185c-25.988,0.499-52.122-0.068-78.862,0.314c0,11.891,0,23.177,0,35.421c24.25,0,48.563,0,73.373,0
					c0,4.698,0,8.458,0,13.255c-24.448,0-48.747,0-72.815,0C827.308,73.966,827.633,97.592,829.765,103.58z"/>
				<path fill-rule="evenodd" clip-rule="evenodd" d="M223.974,116.179c19.084-38.529,37.61-75.934,56.098-113.258
					c7.376,0,14.106,0,21.77,0c18.765,37.162,37.687,74.63,57.327,113.524c-7.326,0-13.419,0.335-19.43-0.221
					c-1.63-0.151-3.497-2.759-4.426-4.647c-4.696-9.548-9.118-19.23-13.793-29.201c-20.287,0-40.479,0-61.052,0
					c-5.336,11.229-10.667,22.446-16.063,33.803C237.887,116.179,231.719,116.179,223.974,116.179z M290.959,16.831
					c-8.59,18.582-16.877,35.117-24.349,52.675c16.546,0,32.052,0,48.661,0C307.761,51.771,299.461,35.272,290.959,16.831z"/>
				<path fill-rule="evenodd" clip-rule="evenodd" d="M469.786,56.611c11.151-14.278,22.411-27.324,32.033-41.483
					c6.779-9.975,14.577-14.7,26.424-12.437c1.007,0.192,2.054,0.173,4.054,0.328c-1.345,2.09-2.23,3.807-3.428,5.269
					c-15.168,18.523-30.243,37.127-45.688,55.417c-3.646,4.318-5.022,8.615-4.889,14.118c0.302,12.456,0.095,24.925,0.095,38.043
					c-6.568,0-12.615,0-19.164,0c-0.195-2.026-0.542-4.023-0.553-6.021c-0.056-10.67-0.251-21.348,0.065-32.008
					c0.163-5.504-1.226-9.785-4.932-14.08c-15.297-17.733-30.203-35.803-45.229-53.769c-1.6-1.913-3.047-3.954-5.568-7.245
					c7.583,0,13.747-0.454,19.783,0.229c2.326,0.263,4.753,2.779,6.463,4.829c12,14.389,23.818,28.929,35.714,43.405
					C466.263,52.782,467.681,54.257,469.786,56.611z"/>
				<path fill-rule="evenodd" clip-rule="evenodd" d="M1260.663,116.103c-32.2,0-63.595,0-95.475,0c0-37.749,0-75.075,0-112.903
					c6.132,0,11.961,0,18.764,0c0,33.165,0,66.08,0,99.754c26.009,1.074,51.135-0.139,76.711,0.716
					C1260.663,107.979,1260.663,111.719,1260.663,116.103z"/>
				<path fill-rule="evenodd" clip-rule="evenodd" d="M1089.594,103.387c0,4.72,0,8.308,0,11.845
					c-5.618,1.594-84.903,1.97-94.478,0.414c0-37.207,0-74.5,0-112.37c5.713,0,11.271,0,17.693,0c0,32.916,0,65.793,0,99.413
					c8.919,1.315,17.158,0.537,25.332,0.668c8.578,0.137,17.16,0.031,25.74,0.031
					C1072.169,103.387,1080.455,103.387,1089.594,103.387z"/>
				<path fill-rule="evenodd" clip-rule="evenodd" d="M1358.731,116.285c-6.091,0-11.768,0-17.372,0
					c-1.7-5.679-2.103-103.371-0.453-113.095c5.766,0,11.631,0,17.506,0C1360.029,8.607,1360.424,106.474,1358.731,116.285z"/>
				<path fill-rule="evenodd" clip-rule="evenodd" d="M1322.891,164.324c4.27,0,7.061,0,10.627,0
					c3.751,11.631,7.546,23.393,11.97,37.107c4.387-13.525,8.192-25.262,12.044-37.139c3.555,0,6.621,0,10.588,0
					c3.66,11.312,7.395,22.847,11.522,35.601c3.676-6.159,4.354-12.265,6.193-17.901c1.846-5.655,3.358-11.42,5.126-17.512
					c3.286,0,6.262,0,10.36,0c-4.693,16.307-10.39,31.76-15.621,47.771c-3.565,0-6.843,0-10.919,0
					c-3.76-11.173-7.6-22.584-12.023-35.725c-4.689,13.063-8.699,24.229-12.834,35.746c-3.507,0-6.793,0-11.016,0
					C1333.759,196.859,1328.535,181.222,1322.891,164.324z"/>
				<path fill-rule="evenodd" clip-rule="evenodd" d="M1175.588,177.047c0,12.744,0,23.739,0,35.237
					c-3.363,0.177-5.859,0.306-8.255,0.432c-1.683-5.803-2.158-35.456-0.88-47.505c9.131-2.604,10.353-2.241,15.712,4.73
					c6.967,9.062,13.923,18.131,20.904,27.183c0.294,0.382,0.785,0.613,2.345,1.792c0.113-6.275,0.25-11.762,0.3-17.248
					c0.05-5.428,0.011-10.856,0.011-17.212c3.433-0.202,6.397-0.376,9.267-0.545c1.886,5.711,2.267,39.316,0.664,48.072
					c-7.055,2.293-12.129,0.302-16.483-5.987c-5.607-8.101-12.136-15.564-18.314-23.266
					C1179.638,181.209,1178.207,179.856,1175.588,177.047z"/>
				<path fill-rule="evenodd" clip-rule="evenodd" d="M1663.238,189.053c5.381,6.14,5.381,6.14,6.488,23.175
					c-3.241,0-6.455,0-10.452,0c-0.34-3.569-0.577-6.858-0.981-10.127c-0.79-6.384-3.125-8.563-9.641-8.754
					c-5.131-0.149-10.271-0.03-16.236-0.03c0,6.659,0,12.527,0,18.884c-3.521,0-6.19,0-9.318,0c0-15.908,0-31.419,0-47.832
					c2.473-0.136,4.964-0.37,7.456-0.389c7.021-0.053,14.042-0.085,21.061,0.02c2.582,0.039,5.181,0.35,7.733,0.769
					c4.922,0.806,8.899,2.969,10.298,8.206c1.383,5.175,0.423,9.782-3.589,13.55
					C1665.309,187.227,1664.528,187.897,1663.238,189.053z M1632.633,185.067c1.805,0.233,3.042,0.522,4.281,0.53
					c5.178,0.038,10.363,0.16,15.532-0.074c4.643-0.212,6.659-2.055,7.012-5.682c0.375-3.857-1.831-7.502-5.917-7.806
					c-6.831-0.508-13.727-0.139-20.908-0.139C1632.633,176.564,1632.633,180.384,1632.633,185.067z"/>
				<path fill-rule="evenodd" clip-rule="evenodd" d="M1561.124,214.064c-3.56-0.459-6.698-0.59-9.7-1.299
					c-13.318-3.15-20.304-12.531-19.55-25.971c0.704-12.573,9.126-21.64,22.094-23.131c4.85-0.558,9.897-0.562,14.725,0.112
					c12.356,1.727,19.704,10.529,20.435,23.679c0.692,12.475-5.819,21.824-17.7,24.985
					C1567.957,213.362,1564.301,213.582,1561.124,214.064z M1560.556,206.121c11.128,0.068,17.803-6.379,17.795-17.188
					c-0.007-10.79-6.85-18.091-17.153-18.305c-11.374-0.236-18.541,6.911-18.501,18.449
					C1542.734,199.969,1549.107,206.051,1560.556,206.121z"/>
				<path fill-rule="evenodd" clip-rule="evenodd" d="M1752.533,165c-7.64,6.596-14.277,12.327-21.438,18.508
					c7.558,9.418,14.801,18.444,22.146,27.599c-9.023,3.19-11.807,2.521-16.996-3.835c-4.422-5.417-8.827-10.847-13.254-16.286
					c-10.531,3.853-7.786,12.883-8.528,21.048c-3.4,0-6.546,0-10.15,0c0-15.671,0-31.174,0-47.373c3.12,0,6.271,0,10.318,0
					c0,6.677,0,13.273,0,21.834c3.89-3.367,6.359-5.443,8.759-7.6c3.48-3.126,6.898-6.319,10.361-9.465
					C1740.704,163.115,1740.709,163.121,1752.533,165z"/>
				<path fill-rule="evenodd" clip-rule="evenodd" d="M1292.047,185.063c0.173,2.204,0.311,3.95,0.532,6.761
					c-10.002,0-19.726,0-29.982,0c0,4.785,0,8.543,0,13.249c10.333,0,20.605,0,31.367,0c0.139,2.813,0.232,4.712,0.379,7.698
					c-7.217,0-13.9,0-20.582,0c-6.738,0-13.476,0-20.018,0c-1.71-6.17-2.016-39.147-0.542-48.287c13.307,0,26.709,0,40.678,0
					c0.229,1.97,0.453,3.905,0.782,6.734c-10.74,0-21.027,0-31.965,0c0,4.554,0,8.279,0,12.802
					C1272.236,185.569,1282.117,183.873,1292.047,185.063z"/>
				<path fill-rule="evenodd" clip-rule="evenodd" d="M1482.466,212.35c-2.882,0-5.38,0-8.667,0
					c-0.192-2.687-0.769-5.208-0.472-7.623c0.919-7.472-1.634-13.543-6.295-19.237c-4.098-5.007-7.629-10.478-11.356-15.781
					c-0.998-1.421-1.801-2.98-3.173-5.28c2.479-0.198,4.164-0.259,5.827-0.48c4.356-0.58,7.335,0.91,9.355,5.037
					c2.045,4.176,4.675,8.07,7.129,12.038c0.782,1.264,1.824,2.366,3.107,4.003c3.286-4.992,6.768-9.271,9.129-14.099
					c3.552-7.261,8.967-8.193,16.844-6.063c-2.424,3.503-4.564,6.622-6.734,9.722c-1.338,1.912-2.593,3.903-4.106,5.667
					c-7.149,8.331-12.042,17.393-9.977,28.902C1483.202,209.851,1482.812,210.639,1482.466,212.35z"/>
				<path fill-rule="evenodd" clip-rule="evenodd" d="M987.202-81.35c2.46,0,4.458,0,6.755,0c0,11.335,0,22.526,0,33.716
					c-0.54,0.173-1.081,0.347-1.622,0.521c-0.657-1.281-1.841-2.546-1.881-3.846c-0.196-6.437-0.089-12.884-0.089-19.327
					c-0.574-0.092-1.148-0.185-1.723-0.277c-1.729,5.808-3.382,11.64-5.223,17.413c-0.728,2.281-0.368,5.889-3.968,5.729
					c-3.504-0.155-2.982-3.771-3.634-6.049c-1.679-5.875-3.051-11.836-4.547-17.763c-0.613,0.075-1.225,0.151-1.838,0.227
					c0,7.791,0,15.582,0,23.373c-0.511,0.139-1.022,0.278-1.532,0.417c-0.755-1.01-2.15-2.009-2.167-3.031
					c-0.164-10.095-0.098-20.193-0.098-30.854c2.691,0,4.822,0,7.438,0c1.956,8.123,3.888,16.144,5.82,24.165
					c0.421,0.081,0.842,0.161,1.263,0.241C982.431-64.65,984.703-72.605,987.202-81.35z"/>
				<path fill-rule="evenodd" clip-rule="evenodd" d="M682.083-70.627c-1.219,6.341-2.404,12.689-3.679,19.019
					c-0.399,1.982-0.566,4.252-3.467,4.364c-2.824,0.11-3.372-1.871-3.823-3.98c-2.1-9.815-4.194-19.632-6.302-29.504
					c3.967-1.75,5.313-0.147,5.752,2.984c0.649,4.626,1.258,9.259,1.968,13.876c0.466,3.033,1.08,6.044,2.883,9.097
					c1.032-6.253,2.072-12.506,3.089-18.763c0.166-1.024,0.181-2.073,0.354-3.096c0.38-2.237,0.187-5.015,3.592-4.966
					c3.385,0.047,3.108,3.035,3.59,5.115c0.877,3.787,1.365,7.661,2.104,11.483c0.535,2.771,1.211,5.515,2.021,9.154
					c2.563-9.155,4.86-17.373,7.221-25.572c0.019-0.063,0.928,0.131,2.026,0.298c-0.23,2.195-0.27,4.455-0.73,6.625
					c-1.668,7.867-3.482,15.704-5.23,23.553c-0.481,2.163-1.293,4.404-3.946,3.496c-1.257-0.431-2.545-2.34-2.829-3.775
					c-1.248-6.334-2.134-12.739-3.152-19.119C683.044-70.434,682.563-70.531,682.083-70.627z"/>
				<path fill-rule="evenodd" clip-rule="evenodd" d="M4.111-81.339c1.895,0,3.858,0,6.339,0c1.995,8.199,3.942,16.209,6.374,26.202
					c1.253-3.596,2.02-5.509,2.586-7.479c1.436-4.989,2.967-9.96,4.108-15.019c0.957-4.243,3.318-4.752,7.117-3.287
					c0,10.772,0.019,21.596-0.075,32.419c-0.003,0.392-1.115,0.775-2.265,1.523c-2.528-3.968-1.139-8.137-1.361-11.999
					c-0.23-4.016-0.051-8.055-0.979-12.167c-2.66,7.903-5.302,15.811-8.066,23.676c-0.084,0.24-1.449,0.031-2.921,0.031
					c-2.071-7.836-4.161-15.746-6.252-23.654c-2.19,7.876-0.731,15.92-2.38,24.666C2.632-51.11,1.835-70.511,4.111-81.339z"/>
				<path fill-rule="evenodd" clip-rule="evenodd" d="M1396.053-47.5c-1.447-7.67-0.06-15.597-1.984-23.595
					c-0.836,2.823-1.738,5.628-2.49,8.473c-0.795,3.012-1.219,6.142-2.238,9.068c-0.78,2.239-0.092,5.944-3.588,6.114
					c-3.648,0.176-3.193-3.445-3.838-5.754c-1.188-4.249-2.119-8.568-3.241-12.836c-0.448-1.707-1.117-3.356-2.845-4.98
					c0,7.765,0,15.53,0,22.999c-3.275,1.024-4.366-0.115-4.376-2.355c-0.047-10.1-0.021-20.199-0.021-30.88
					c2.766-0.129,4.949-0.23,7.492-0.35c2.132,8.663,4.151,16.864,6.169,25.066c0.399-0.022,0.798-0.044,1.196-0.067
					c1.916-6.979,3.9-13.941,5.719-20.946c0.996-3.834,3.024-5.129,7.446-3.081c0.11,10.866,0.136,21.978-0.015,33.082
					C1398.312-47.527,1397.182-47.514,1396.053-47.5z"/>
				<path fill-rule="evenodd" clip-rule="evenodd" d="M1695.816-70.469c-2.598,7.889-0.142,15.932-2.731,23.129
					c-0.919-0.118-1.837-0.237-2.756-0.356c0-11.037,0-22.074,0-33.151c3.454-1.839,5.194-0.257,6.452,2.912
					c2.771,6.984,5.687,13.91,9.262,22.607c2.132-9.662-0.053-17.879,1.605-25.621c3.448-1.29,3.81,0.799,3.818,3.056
					c0.037,9.858,0.016,19.716,0.016,29.463c-6.308,1.338-6.369,1.364-8.335-3.475C1700.645-58.069,1698.255-64.279,1695.816-70.469
					z"/>
				<path fill-rule="evenodd" clip-rule="evenodd" d="M596.211-80.701c4.76-2.069,6.09,0.353,7.248,3.231
					c2.705,6.731,5.47,13.438,8.906,21.858c0.564-3.092,1.051-4.609,1.083-6.136c0.111-5.452-0.063-10.914,0.181-16.357
					c0.058-1.271,1.339-2.486,2.057-3.727c0.528,0.185,1.057,0.369,1.585,0.554c0,10.995,0,21.988,0,33.346
					c-3.592,1.622-5.986,0.819-7.478-3.318c-2.34-6.492-5.011-12.865-7.542-19.288c-0.529,0.07-1.058,0.14-1.587,0.21
					c0,7.551,0,15.101,0,22.304c-3.29,1.039-4.426-0.011-4.435-2.296C596.188-60.425,596.211-70.529,596.211-80.701z"/>
				<path fill-rule="evenodd" clip-rule="evenodd" d="M483.298-65.509c1.243,1.493,2.689,2.732,3.509,4.299
					c3.35,6.405-0.01,12.999-7.191,13.772c-4.066,0.438-8.218,0.079-12.815,0.079c0-11.523,0-22.534,0-34.335
					c3.491,0,6.552-0.133,9.598,0.026c7.553,0.396,10.782,4.854,8.74,12.035C484.72-68.164,483.89-66.812,483.298-65.509z
					 M471.037-50.737c4.146,0.214,8.27,1.765,10.235-2.201c1.035-2.089,0.821-5.815-0.428-7.792
					c-2.181-3.451-6.053-2.689-9.807-1.912C471.037-58.628,471.037-55.108,471.037-50.737z M471.222-78.029
					c0,4.037,0,7.501,0,10.909c7.624,0.752,10.306-0.84,10.289-5.778C481.495-77.287,479.159-78.539,471.222-78.029z"/>
				<path fill-rule="evenodd" clip-rule="evenodd" d="M1501.899-81.655c3.968,0,7.556-0.236,11.103,0.047
					c8.205,0.655,11.07,6.332,7.025,13.636c-0.49,0.884-1.157,1.671-1.708,2.457c1.304,1.528,2.783,2.724,3.564,4.271
					c3.267,6.473-0.072,13.037-7.186,13.811c-4.065,0.442-8.219,0.08-12.799,0.08C1501.899-58.858,1501.899-69.888,1501.899-81.655z
					 M1506.234-62.773c0,4.066,0,7.999,0,12.12c4.432,0.183,8.813,1.592,11.117-2.621c1.029-1.882,1.028-5.42-0.105-7.169
					C1514.768-64.265,1510.472-63.291,1506.234-62.773z M1506.196-77.944c0,4.079,0,7.552,0,10.965
					c8.511,0.704,11.682-1.056,11.419-5.966C1517.385-77.266,1514.336-78.673,1506.196-77.944z"/>
				<path fill-rule="evenodd" clip-rule="evenodd" d="M133.387-47.321c0-11.599,0-22.38,0-34.283c3.872,0,7.662-0.333,11.374,0.069
					c7.928,0.857,10.601,6.846,6.426,13.875c-0.392,0.66-0.875,1.266-1.286,1.854c1.332,1.91,3.034,3.589,3.818,5.622
					c2.523,6.539-0.888,12.111-7.869,12.796C142.027-47.014,138.137-47.321,133.387-47.321z M137.809-62.785
					c0,4.507,0,8.214,0,12.168c4.125,0.111,8.238,1.552,10.222-2.553c0.963-1.992,0.911-5.325-0.139-7.259
					C145.803-64.278,141.791-63.276,137.809-62.785z M137.64-67.08c3.686,0.829,7.313,1.718,9.189-1.838
					c1.026-1.944,1.082-5.336,0.04-7.233c-1.92-3.497-5.592-2.49-9.229-1.769C137.64-74.227,137.64-70.76,137.64-67.08z"/>
				<path fill-rule="evenodd" clip-rule="evenodd" d="M553.933-81.617c7.061,0.476,13.621-2.438,17.944,3.497
					c3.359,4.611,1.725,9.37-2.059,14.016c5.8,4.367,3.202,10.549,4.139,16.112c-0.501,0.324-1.003,0.648-1.505,0.974
					c-1.024-0.951-2.391-1.733-2.974-2.905c-0.526-1.058-0.165-2.544-0.245-3.838c-0.483-7.77-1.309-8.449-10.578-7.907
					c-0.092,2.373-0.167,4.849-0.29,7.323c-0.112,2.249-0.279,4.495-0.517,8.247c-1.979-1.892-3.331-2.612-3.691-3.67
					c-0.479-1.407-0.217-3.077-0.219-4.634C553.927-63.179,553.933-71.955,553.933-81.617z M558.808-66.223
					c3.815,0.842,7.479,1.43,9.185-2.368c0.923-2.053,1.029-5.336-0.016-7.223c-1.883-3.399-5.507-3.01-9.169-2.099
					C558.808-73.855,558.808-70.081,558.808-66.223z"/>
				<path fill-rule="evenodd" clip-rule="evenodd" d="M302.014-68.247c1.876-4.511-0.46-9.501,2.541-14.104
					c2.924,5.139,3.526,24.945,1.517,34.874c-4.592-0.349-2.932-3.945-3.146-6.301c-0.254-2.787-0.06-5.614-0.06-8.927
					c-4.44,0-8.203,0-13.032,0c0,5.048,0,10.052,0,16.396c-2.277-1.535-3.987-2.14-4-2.779c-0.194-10.101-0.221-20.207-0.098-30.309
					c0.009-0.801,1.412-1.585,3.505-3.783c0.351,5.956,0.598,10.165,0.879,14.932C294.082-68.247,297.81-68.247,302.014-68.247z"/>
				<path fill-rule="evenodd" clip-rule="evenodd" d="M531.732-64.362c-0.559,3.663-0.824,7.324-1.725,10.823
					c-1.203,4.68-4.519,7.323-8.844,7.518c-4.597,0.208-8.275-1.689-10.112-5.909c-3.595-8.257-3.608-16.709,0.024-24.968
					c1.873-4.257,5.625-6.029,10.163-5.83c4.374,0.192,7.578,2.847,8.787,7.595C530.916-71.632,531.183-67.972,531.732-64.362z
					 M512.508-64.168c0.622,3.468,0.709,7.223,2.086,10.421c0.837,1.942,3.494,3.823,5.647,4.295c2.778,0.611,4.677-1.7,5.453-4.431
					c1.872-6.592,1.974-13.217,0.075-19.822c-0.777-2.703-2.567-5.08-5.406-4.486c-2.175,0.454-4.851,2.207-5.767,4.119
					C513.213-71.179,513.166-67.647,512.508-64.168z"/>
				<path fill-rule="evenodd" clip-rule="evenodd" d="M1095.953-47.278c0-11.592,0-22.381,0-34.269
					c3.813-0.029,7.598-0.346,11.328-0.025c7.739,0.666,10.649,6.295,7.003,13.168c-0.474,0.895-1.212,1.649-2.008,2.709
					c1.148,1.333,2.527,2.472,3.318,3.93c3.787,6.973,0.103,13.782-7.873,14.438C1104.133-47.032,1100.5-47.278,1095.953-47.278z
					 M1100.36-62.77c0,4.13,0,8.035,0,12.23c4.449,0.014,8.738,1.42,11.06-2.85c0.936-1.721,1.083-4.744,0.185-6.421
					C1109.17-64.349,1104.726-63.254,1100.36-62.77z M1100.204-67.001c4.09,0.793,7.929,1.496,10.176-2.137
					c1.01-1.633,1.182-4.822,0.237-6.42c-2.369-4.008-6.4-3.081-10.414-2.416C1100.204-74.061,1100.204-70.591,1100.204-67.001z"/>
				<path fill-rule="evenodd" clip-rule="evenodd" d="M261.155-73.124c-1.102-1.343-2.03-2.895-3.341-3.986
					c-2.668-2.22-7.245-1.718-9.116,0.772c-2.026,2.695-1.082,6.584,2.486,8.507c2.718,1.465,5.846,2.151,8.634,3.509
					c4.628,2.255,6.228,6.838,4.41,11.841c-1.854,5.104-8.512,7.846-14.399,5.929c-4.64-1.511-6.898-5.386-5.843-10.305
					c0.103-0.477,1.168-0.748,2.427-1.494c0.625,1.906,1.114,3.49,1.665,5.052c0.994,2.819,3.247,4.513,5.956,3.864
					c1.921-0.46,4.527-2.327,4.884-3.985c0.453-2.103-0.554-4.993-1.889-6.859c-1.055-1.475-3.563-1.898-5.409-2.822
					c-1.618-0.811-3.366-1.467-4.785-2.548c-3.145-2.393-4.089-6.461-2.956-10.547c1.247-4.494,4.657-6.087,8.743-6.485
					c4.045-0.395,7.95,0.338,9.98,4.406c0.663,1.329,0.289,3.175,0.39,4.784C262.378-73.367,261.767-73.246,261.155-73.124z"/>
				<path fill-rule="evenodd" clip-rule="evenodd" d="M1300.088-59.514c1.874,2.376,2.916,3.308,3.469,4.471
					c2.117,4.453,4.792,6.751,7.915,5.54c1.844-0.716,3.777-2.758,4.435-4.637c1.222-3.494-0.72-5.934-5.399-8.145
					c-2.336-1.105-4.874-1.928-6.951-3.401c-3.335-2.364-4.325-8.036-2.521-12.055c1.502-3.348,5.316-5.325,9.737-5.048
					c4.901,0.307,7.384,2.178,8.377,6.585c0.191,0.847-0.339,1.857-0.834,4.21c-1.848-2.015-2.858-3.199-3.954-4.296
					c-2.747-2.749-6.938-2.867-8.882-0.294c-1.99,2.635-1.108,6.752,2.141,8.744c1.745,1.07,3.809,1.613,5.717,2.423
					c6.208,2.636,8.373,6.448,6.849,12.031c-1.478,5.417-6.763,8.382-12.858,7.216C1301.644-47.257,1299.487-50.538,1300.088-59.514
					z"/>
				<path fill-rule="evenodd" clip-rule="evenodd" d="M413.496-72.145c-1.828-2.261-2.743-3.803-4.034-4.901
					c-2.638-2.245-7.25-1.81-9.151,0.642c-2.07,2.67-1.162,6.629,2.404,8.544c2.956,1.587,6.368,2.319,9.341,3.881
					c4.285,2.249,5.593,7.491,3.422,12.213c-2.155,4.686-8.549,7.04-14.121,5.199c-4.642-1.534-6.897-5.489-5.742-10.349
					c0.111-0.468,1.189-0.705,2.416-1.377c0.457,1.113,0.999,1.935,1.117,2.814c0.526,3.914,2.52,6.344,6.619,6.173
					c3.123-0.13,5.456-1.73,6.042-5.062c0.721-4.105-1.539-6.261-5.066-7.636c-2.658-1.035-5.427-1.956-7.822-3.449
					c-3.593-2.239-4.68-6.138-3.418-10.282c1.276-4.188,4.572-6.68,9.318-7.045c4.375-0.336,8.178,1.621,9.688,5.074
					c0.305,0.696,0.493,1.537,0.418,2.278C414.856-74.728,414.367-74.071,413.496-72.145z"/>
				<path fill-rule="evenodd" clip-rule="evenodd" d="M788.944-47.138c-0.715-1.048-2.033-2.084-2.052-3.144
					c-0.169-9.337-0.125-18.678-0.104-28.017c0.005-2.082,0.654-3.616,4.056-2.714c0.208,3.975,0.431,8.227,0.676,12.898
					c3.709,0,6.977,0,10.447,0c3.081-3.848-0.774-9.575,3.5-14.166c2.832,4.045,1.566,7.967,1.757,11.553
					c0.221,4.139,0.214,8.309,0.003,12.449c-0.185,3.612,1.026,7.521-1.746,11.751c-4.414-5.313-0.532-11.299-3.441-16.291
					c-3.069,0-6.37,0-10.706,0c0,5.023,0,10.05,0,15.076C790.538-47.542,789.741-47.34,788.944-47.138z"/>
				<path fill-rule="evenodd" clip-rule="evenodd" d="M1038.328-47.04c-5.362-1.119-4.028-5.372-6.277-8.043
					c-3.342,0-7.114,0-9.993,0c-3.648,1.972-1.064,7.583-6.814,7.717c0.115-1.596-0.005-3.055,0.354-4.386
					c2.301-8.53,4.588-17.069,7.184-25.511c0.512-1.666,2.116-3.78,3.623-4.189c3.094-0.841,3.569,2,4.212,4.306
					c2.374,8.51,4.844,16.993,7.213,25.504C1038.154-50.479,1038.106-49.211,1038.328-47.04z M1028.104-73.805
					c-0.65-0.084-1.301-0.169-1.951-0.252c-1.267,4.424-2.533,8.849-4.039,14.108c3.658-0.173,6.086-0.288,9.11-0.431
					C1030.065-65.366,1029.084-69.585,1028.104-73.805z"/>
				<path fill-rule="evenodd" clip-rule="evenodd" d="M59.537-55.098c-3.656,2.024-1.075,7.625-6.865,7.707
					c0.139-1.593,0.057-3.048,0.417-4.383c2.296-8.528,4.568-17.069,7.157-25.51c0.509-1.662,2.135-3.77,3.645-4.171
					c3.113-0.827,3.544,2.059,4.184,4.341c2.382,8.505,4.844,16.987,7.21,25.498c0.323,1.16,0.272,2.425,0.444,4.133
					c-5.581-0.122-3.771-5.141-6.331-7.614C66.369-55.098,62.825-55.098,59.537-55.098z M64.786-76.147
					c-0.514,0.109-1.027,0.217-1.542,0.326c-1.231,4.926-2.462,9.853-3.794,15.186c3.534,0,6.111,0,9.356,0
					C67.332-66.323,66.059-71.235,64.786-76.147z"/>
				<path fill-rule="evenodd" clip-rule="evenodd" d="M1443.854-47.373c-5.414-0.247-3.083-5.681-6.378-7.854
					c-2.93,0-6.498,0-9.673,0c-3.213,1.966-0.979,7.263-6.105,7.986c-0.217-1.054-0.74-2.035-0.53-2.817
					c2.501-9.285,5.127-18.537,7.684-27.807c0.592-2.143,1.447-4.345,4.044-3.629c1.378,0.381,2.984,2.026,3.408,3.427
					c2.792,9.2,5.314,18.482,7.836,27.762C1444.371-49.451,1443.973-48.428,1443.854-47.373z M1428.031-60.424
					c3.419,0,5.848,0,9.254,0c-1.414-5.725-2.674-10.824-3.934-15.922c-0.457,0-0.914,0-1.372-0.001
					C1430.715-71.248,1429.451-66.149,1428.031-60.424z"/>
				<path fill-rule="evenodd" clip-rule="evenodd" d="M1143.294-62.188c0,3.64,0,7.185,0,11.259
					c4.594,0.417,8.934,0.812,13.273,1.207c-0.055,0.683-0.111,1.366-0.166,2.048c-5.601,0.961-11.251,0.469-17.351,0.229
					c0-11.434,0-22.25,0-33.67c5.95,0,11.631,0,18.99,0c-5.197,4.379-10.341,1.058-14.627,3.728c0,2.989,0,6.278,0,10.262
					c3.851,0.431,7.804,0.872,12.582,1.406C1152.207-61.414,1147.545-64.467,1143.294-62.188z"/>
				<path fill-rule="evenodd" clip-rule="evenodd" d="M1549.739-66.806c4.06,0.28,7.816,0.54,12.603,0.869
					c-4.009,4.572-8.646,1.425-12.7,3.675c0,3.21,0,6.955,0,11.301c4.252,0.41,8.618,0.831,14.516,1.4
					c-6.412,2.765-9.43,2.95-18.991,1.683c0-10.919,0-21.914,0-33.334c6.035-0.621,11.714-1.136,17.34,0.288
					c0.054,0.58,0.108,1.16,0.162,1.739c-4.084,0.354-8.169,0.708-12.929,1.122C1549.739-74.671,1549.739-71.203,1549.739-66.806z"
					/>
				<path fill-rule="evenodd" clip-rule="evenodd" d="M1739.1-66.833c4.076,0.292,7.852,0.561,12.46,0.89
					c-3.656,5.127-8.857,0.817-12.679,4.026c0,3.125,0,6.868,0,11.051c4.522,0.36,8.752,0.696,12.982,1.034
					c-5.265,3.923-10.951,1.981-17.391,2.827c-0.566-11.667-0.301-22.652-0.184-33.489c7.615-1.745,11.939-1.666,17.724,1.316
					c-4.077,0.352-8.153,0.703-12.913,1.113C1739.1-74.672,1739.1-71.208,1739.1-66.833z"/>
				<path fill-rule="evenodd" clip-rule="evenodd" d="M180.869-50.854c4.539,0.352,8.768,0.68,13.682,1.061
					c-4.338,3.12-5.917,3.272-18.18,1.997c-0.471-10.81-0.291-21.763-0.056-33.324c5.734,0,10.938,0,17.253,0
					c-3.908,4.377-8.482,1.34-12.509,3.52c0,2.98,0,6.437,0,10.654c3.772,0.309,7.743,0.635,12.563,1.03
					c-3.759,4.947-8.83,1.153-12.754,3.731C180.869-58.774,180.869-55.037,180.869-50.854z"/>
				<path fill-rule="evenodd" clip-rule="evenodd" d="M346.832-63.745c-3.881,0.3-7.761,0.6-12.019,0.929c0,4.136,0,7.869,0,12.183
					c4.555,0.202,8.73,0.388,12.905,0.574c-0.028,0.62-0.056,1.24-0.084,1.859c-5.393,2.082-11.021,0.758-17.093,0.739
					c0-11.341,0-22.32,0-33.779c5.552,0,10.823,0,17.21,0c-3.917,4.553-8.48,1.486-12.638,3.565c0,3.142,0,6.774,0,10.839
					c4.004,0.302,7.782,0.586,11.559,0.872C346.726-65.224,346.778-64.484,346.832-63.745z"/>
				<path fill-rule="evenodd" clip-rule="evenodd" d="M1460.626-81.155c6.741,2.358,5.097,10.06,9.537,13.839
					c4.31-3.966,3.735-11.51,9.319-14.539c0.553,0.279,1.105,0.558,1.658,0.837c-0.756,2.312-1.416,4.658-2.285,6.926
					c-2.858,7.455-6.686,14.623-5.719,23.071c0.329,2.868-1.039,4.47-5.185,2.917C1470.03-59.785,1463.253-69.819,1460.626-81.155z"
					/>
				<path fill-rule="evenodd" clip-rule="evenodd" d="M101.295-67.271c4.978-3.597,3.681-11.788,11.508-15.205
					c-3.138,12.548-12.324,22.084-8.413,35.915c-2.794-1.235-4.703-1.746-4.676-2.116c0.84-11.568-4.694-21.509-8.557-32.024
					C94.313-80.608,94.476-80.382,101.295-67.271z"/>
				<path fill-rule="evenodd" clip-rule="evenodd" d="M1062.851-47.607c2.555-12.596-5.182-22.272-9.164-33.604
					c5.163-0.827,5.193,3.161,6.515,5.449c1.534,2.654,2.755,5.49,4.478,8.99c4.215-4.721,3.694-11.91,8.727-15.118
					c0.634,0.324,1.268,0.648,1.903,0.971c-1.091,3.007-2.001,6.096-3.311,9.004c-3.01,6.682-5.373,13.431-4.76,20.963
					c0.1,1.238-1.212,2.589-1.872,3.888C1064.528-47.246,1063.689-47.427,1062.851-47.607z"/>
				<path fill-rule="evenodd" clip-rule="evenodd" d="M905.162-79.415c-2.333,0.517-4.667,1.033-7.823,1.73
					c0,9.925,0,19.909,0,29.533c-3.196,1.248-4.322,0.243-4.358-2.064c-0.082-5.175-0.068-10.351-0.082-15.527
					c-0.01-3.85-0.002-7.7-0.002-11.728c-2.939-0.777-5.417-1.434-7.896-2.09c6.741-2.827,13.334-2.274,19.929-1.667
					C905.007-80.622,905.084-80.018,905.162-79.415z"/>
				<path fill-rule="evenodd" clip-rule="evenodd" d="M1589.228-51.313c5.083,1.955,9.7-0.363,13.304,3.457
					c-5.448,0-10.896,0-16.451,0c-1.511-5.03-1.797-25.167-0.109-34.876c1.504,2,3.025,3.093,3.078,4.251
					c0.268,5.944,0.16,11.905,0.178,17.86C1589.234-57.557,1589.228-54.491,1589.228-51.313z"/>
				<path fill-rule="evenodd" clip-rule="evenodd" d="M1624.306-47.682c0-11.496,0-22.49,0-33.485
					c0.465-0.218,0.93-0.437,1.394-0.655c0.796,1.159,2.229,2.29,2.279,3.482c0.258,5.935,0.154,11.885,0.17,17.831
					c0.009,3.052,0.002,6.104,0.002,9.585c4.91,0.404,9.106,0.75,13.982,1.151C1637.938-46.688,1636.738-46.568,1624.306-47.682z"/>
				<path fill-rule="evenodd" clip-rule="evenodd" d="M765.792-79.436c-2.339,0.495-4.678,0.99-7.464,1.58
					c-2.122,9.862,0.654,20.409-2.597,30.39c-3.575-4.573-1.979-9.713-2.259-14.544c-0.297-5.131-0.066-10.293-0.066-15.646
					c-3.189-0.659-5.8-1.197-8.959-1.848C749.243-82.11,756.552-82.47,765.792-79.436z"/>
				<path fill-rule="evenodd" clip-rule="evenodd" d="M1245.085-77.757c-1.22,10.021,0.526,20.274-1.804,30.264
					c-4.473-4.495-2.332-9.968-2.702-14.958c-0.377-5.095-0.084-10.24-0.084-15.296c-3.318-0.652-5.75-1.132-8.685-1.708
					c4.963-2.884,14.965-3.062,22.343-0.252C1250.567-78.937,1248.017-78.388,1245.085-77.757z"/>
				<path fill-rule="evenodd" clip-rule="evenodd" d="M1207.667-46.476c0-12.388-0.011-23.407,0.086-34.425
					c0.001-0.187,1.295-0.361,1.973-0.539c1.522,3.994,2.48,28.798,1.149,32.751C1210.649-48.014,1209.454-47.666,1207.667-46.476z"
					/>
				<path fill-rule="evenodd" clip-rule="evenodd" d="M723.404-81.143c0,11.165,0,22.329,0,35.307
					c-2.028-2.217-3.592-3.129-3.607-4.066c-0.16-9.824-0.125-19.652,0.042-29.476c0.015-0.812,1.395-1.6,2.14-2.399
					C722.454-81.565,722.93-81.354,723.404-81.143z"/>
				<path fill-rule="evenodd" clip-rule="evenodd" d="M1664.297-82.607c1.387,1.626,2.481,2.311,2.489,3.009
					c0.115,10.11,0.12,20.224,0.014,30.334c-0.007,0.687-1.106,1.362-1.839,2.204C1662.459-51.953,1661.985-72.777,1664.297-82.607z
					"/>
				<path fill-rule="evenodd" clip-rule="evenodd" d="M861.632-45.934c-2.693-7.28-2.773-29.135-0.735-35.363
					c2.689,2.549,2.847,2.552,2.612,16.806C863.416-58.848,864.829-52.965,861.632-45.934z"/>
				<path fill-rule="evenodd" clip-rule="evenodd" d="M1279.209-81.208c-0.286,3.298-0.572,6.597-0.859,9.896
					c-0.651-0.035-1.303-0.071-1.955-0.106c2.492-3.297-3.551-6.702,0.365-9.981C1277.576-81.335,1278.393-81.271,1279.209-81.208z"
					/>
				<path fill-rule="evenodd" clip-rule="evenodd" d="M373.815-82.332c0,3.552,0,5.987,0,8.563
					C369.364-78.643,369.364-78.643,373.815-82.332z"/>
				<path fill-rule="evenodd" clip-rule="evenodd" d="M1768.223-48.137c-1.473,0.332-2.472,0.878-3.176,0.621
					c-0.648-0.238-0.98-1.341-1.452-2.062c0.973-0.475,1.927-1.229,2.924-1.29C1766.936-50.893,1767.441-49.445,1768.223-48.137z"/>
				<path fill-rule="evenodd" clip-rule="evenodd" d="M1763.871-78.833c1.162,1.039,2.068,1.849,2.973,2.661
					C1764.442-75.037,1762.881-75.053,1763.871-78.833z"/>
				<path fill-rule="evenodd" clip-rule="evenodd" d="M914.561-46.447c-0.871-1.369-1.752-2.144-1.647-2.75
					c0.124-0.709,1.103-1.271,1.71-1.896c0.589,0.638,1.553,1.223,1.654,1.932C916.365-48.551,915.47-47.801,914.561-46.447z"/>
				<path fill-rule="evenodd" clip-rule="evenodd" fill="#FFFFFF" d="M627.179,103.535c0-13.236,0-25.563,0-37.708
					c0.695-0.46,1.108-0.972,1.519-0.971c17.114,0.04,34.235-0.097,51.338,0.361c4.255,0.114,8.762,1.548,12.63,3.442
					c12.117,5.932,13.275,21.623,2.19,29.329c-3.1,2.155-6.947,3.982-10.634,4.418C665.391,104.63,646.497,103.067,627.179,103.535z
					"/>
				<path fill-rule="evenodd" clip-rule="evenodd" fill="#FFFFFF" d="M627.205,51.002c0-11.916,0-23.206,0-34.267
					c0.937-0.456,1.397-0.879,1.852-0.874c16.622,0.212,33.244,0.393,49.861,0.786c2.533,0.06,5.137,0.871,7.542,1.774
					c6.991,2.624,10.709,8.198,10.539,15.671c-0.159,6.977-3.538,11.921-10.146,14.204c-3.649,1.26-7.526,2.516-11.322,2.585
					C659.704,51.167,643.869,51.002,627.205,51.002z"/>
				<path fill-rule="evenodd" clip-rule="evenodd" fill="#FFFFFF" d="M290.959,16.831c8.501,18.442,16.801,34.94,24.312,52.675
					c-16.608,0-32.114,0-48.661,0C274.083,51.947,282.37,35.412,290.959,16.831z"/>
				<path fill-rule="evenodd" clip-rule="evenodd" fill="#FFFFFF" d="M1632.633,185.067c0-4.684,0-8.503,0-13.17
					c7.182,0,14.077-0.369,20.908,0.139c4.086,0.304,6.292,3.948,5.917,7.806c-0.353,3.627-2.369,5.47-7.012,5.682
					c-5.169,0.234-10.354,0.112-15.532,0.074C1635.675,185.59,1634.438,185.301,1632.633,185.067z"/>
				<path fill-rule="evenodd" clip-rule="evenodd" fill="#FFFFFF" d="M1560.556,206.121c-11.448-0.07-17.821-6.152-17.859-17.044
					c-0.04-11.538,7.127-18.686,18.501-18.449c10.304,0.214,17.146,7.515,17.153,18.305
					C1578.358,199.742,1571.684,206.189,1560.556,206.121z"/>
				<path fill-rule="evenodd" clip-rule="evenodd" fill="#FFFFFF" d="M471.037-50.737c0-4.371,0-7.891,0-11.904
					c3.754-0.777,7.625-1.539,9.807,1.912c1.25,1.976,1.463,5.703,0.428,7.792C479.307-48.973,475.183-50.523,471.037-50.737z"/>
				<path fill-rule="evenodd" clip-rule="evenodd" fill="#FFFFFF" d="M471.222-78.029c7.937-0.509,10.273,0.742,10.289,5.131
					c0.017,4.938-2.665,6.53-10.289,5.778C471.222-70.528,471.222-73.992,471.222-78.029z"/>
				<path fill-rule="evenodd" clip-rule="evenodd" fill="#FFFFFF" d="M1506.234-62.773c4.237-0.518,8.533-1.492,11.012,2.33
					c1.134,1.749,1.135,5.288,0.105,7.169c-2.304,4.212-6.686,2.803-11.117,2.621C1506.234-54.774,1506.234-58.707,1506.234-62.773z
					"/>
				<path fill-rule="evenodd" clip-rule="evenodd" fill="#FFFFFF" d="M1506.196-77.944c8.14-0.729,11.188,0.679,11.419,5
					c0.263,4.91-2.908,6.669-11.419,5.966C1506.196-70.393,1506.196-73.865,1506.196-77.944z"/>
				<path fill-rule="evenodd" clip-rule="evenodd" fill="#FFFFFF" d="M137.809-62.785c3.981-0.491,7.994-1.493,10.083,2.356
					c1.05,1.934,1.102,5.267,0.139,7.259c-1.984,4.105-6.096,2.665-10.222,2.553C137.809-54.571,137.809-58.278,137.809-62.785z"/>
				<path fill-rule="evenodd" clip-rule="evenodd" fill="#FFFFFF" d="M137.64-67.08c0-3.681,0-7.147,0-10.839
					c3.637-0.722,7.309-1.728,9.229,1.769c1.042,1.896,0.986,5.289-0.04,7.233C144.953-65.361,141.326-66.251,137.64-67.08z"/>
				<path fill-rule="evenodd" clip-rule="evenodd" fill="#FFFFFF" d="M558.808-66.223c0-3.858,0-7.632,0-11.689
					c3.662-0.912,7.286-1.3,9.169,2.099c1.045,1.887,0.939,5.17,0.016,7.223C566.287-64.793,562.623-65.381,558.808-66.223z"/>
				<path fill-rule="evenodd" clip-rule="evenodd" fill="#FFFFFF" d="M512.508-64.168c0.657-3.479,0.705-7.011,2.088-9.904
					c0.916-1.912,3.592-3.665,5.767-4.119c2.838-0.594,4.628,1.784,5.406,4.486c1.899,6.605,1.797,13.23-0.075,19.822
					c-0.775,2.731-2.674,5.042-5.453,4.431c-2.154-0.473-4.811-2.353-5.647-4.295C513.217-56.945,513.13-60.7,512.508-64.168z"/>
				<path fill-rule="evenodd" clip-rule="evenodd" fill="#FFFFFF" d="M1100.36-62.77c4.365-0.485,8.81-1.579,11.245,2.959
					c0.899,1.677,0.751,4.7-0.185,6.421c-2.322,4.271-6.611,2.864-11.06,2.85C1100.36-54.735,1100.36-58.64,1100.36-62.77z"/>
				<path fill-rule="evenodd" clip-rule="evenodd" fill="#FFFFFF" d="M1100.204-67.001c0-3.59,0-7.06,0-10.973
					c4.014-0.665,8.044-1.593,10.414,2.416c0.945,1.598,0.773,4.787-0.237,6.42C1108.133-65.505,1104.294-66.208,1100.204-67.001z"
					/>
				<path fill-rule="evenodd" clip-rule="evenodd" fill="#FFFFFF" d="M1028.104-73.805c0.98,4.219,1.961,8.439,3.12,13.424
					c-3.024,0.144-5.453,0.258-9.11,0.431c1.506-5.259,2.772-9.684,4.039-14.108C1026.803-73.974,1027.454-73.889,1028.104-73.805z"
					/>
				<path fill-rule="evenodd" clip-rule="evenodd" fill="#FFFFFF" d="M64.786-76.147c1.273,4.912,2.546,9.824,4.02,15.511
					c-3.245,0-5.822,0-9.356,0c1.333-5.333,2.563-10.26,3.794-15.186C63.759-75.93,64.272-76.038,64.786-76.147z"/>
				<path fill-rule="evenodd" clip-rule="evenodd" fill="#FFFFFF" d="M1428.031-60.424c1.42-5.726,2.684-10.824,3.948-15.923
					c0.458,0.001,0.915,0.001,1.372,0.001c1.26,5.098,2.52,10.198,3.934,15.922C1433.879-60.424,1431.45-60.424,1428.031-60.424z"/>
			</g>
		</g>
	</g>
</g>
</svg>
