<?xml version="1.0" encoding="utf-8"?>
<!-- Generator: Adobe Illustrator 16.0.0, SVG Export Plug-In . SVG Version: 6.00 Build 0)  -->
<!DOCTYPE svg PUBLIC "-//W3C//DTD SVG 1.1//EN" "http://www.w3.org/Graphics/SVG/1.1/DTD/svg11.dtd">
<svg version="1.1" id="Capa_1" xmlns="http://www.w3.org/2000/svg" xmlns:xlink="http://www.w3.org/1999/xlink" x="0px" y="0px"
	 width="1144px" height="262px" viewBox="0 0 1144 262" enable-background="new 0 0 1144 262" xml:space="preserve">
<g>
	<defs>
		<rect id="SVGID_1_" width="1144" height="262"/>
	</defs>
	<clipPath id="SVGID_2_">
		<use xlink:href="#SVGID_1_"  overflow="visible"/>
	</clipPath>
	<g clip-path="url(#SVGID_2_)">
		<g>
			<path fill-rule="evenodd" clip-rule="evenodd" fill="#FFFFFF" d="M0.75,238.715c0-92.968,0-185.937,0-278.965
				c486.938,0,973.878,0,1460.816,0c-1.902,1.487-4.365,2.611-5.611,4.526c-5.146,7.905-9.994,16.008-14.824,24.115
				c-12.146,20.393-22.903,41.509-32.209,63.341c-4.397,10.315-8.669,20.711-12.374,31.289
				c-4.425,12.628-8.421,25.421-12.154,38.273c-3.035,10.451-5.361,21.106-8.138,31.635c-0.326,1.234-1.279,2.69-2.354,3.25
				c-1.718,0.895-3.775,1.148-5.699,1.632c-13.286,3.34-26.582,6.644-39.861,10.009c-11.274,2.857-22.529,5.795-33.8,8.668
				c-15.975,4.073-31.975,8.048-47.923,12.225c-4.494,1.176-8.434,6.016-8.313,10.021c0.16,5.335,2.025,9.867,7.138,11.706
				c14.485,5.207,28.729,11.094,43.266,16.144c11.227,3.9,22.694,7.148,34.163,10.297c8.845,2.428,17.817,4.435,26.805,6.289
				c8.877,1.832,17.821,3.364,26.774,4.794c8.328,1.33,16.692,2.458,25.065,3.476c8.121,0.988,16.271,1.723,24.217,2.549
				c4.957,19.179,9.905,38.113,14.735,57.077c4.105,16.118,8.062,32.273,12.108,48.407c3.556,14.173,7.282,28.305,10.638,42.523
				c1.076,4.557,3.494,7.672,7.351,9.949c-489.938,0-979.877,0-1469.815,0c0-52.743,0-105.487,0-158.23c27.934,0,55.867,0,83.989,0
				c0-2.03,0.027-3.52-0.004-5.007c-0.184-8.668,1.293-7.163-7.338-9.555c-6.032-1.67-12.065-3.746-16.807-7.928
				c-5.326-4.698-6.99-11.417-8.22-18.138c-1.949-10.654,0.514-21.063,1.978-31.508c1.466-10.455,3.24-20.865,4.747-31.314
				c1.734-12.017,3.326-24.053,4.974-36.082c1.363-9.953,2.682-19.912,4.086-29.859c0.974-6.897,2.054-13.78,3.123-20.663
				c0.037-0.236,0.468-0.41,0.424-0.375c2.644,5.847,5.354,11.617,7.875,17.469c4.077,9.466,7.765,19.108,12.095,28.456
				c6.345,13.696,13.114,27.195,19.697,40.781c8.868,18.304,17.739,36.605,26.59,54.917c2.325,4.811,5.052,9.492,6.766,14.517
				c3.364,9.857,6.151,19.913,9.167,29.891c0.764,2.528,2.268,4.113,5.062,4.176c3.998,0.089,7.998,0.13,11.99,0.326
				c2.069,0.102,2.654-0.901,3.19-2.736c1.771-6.067,3.558-12.153,5.81-18.052c3.138-8.221,6.375-16.434,10.151-24.374
				c7.485-15.74,15.307-31.32,23.113-46.906c3.37-6.727,7.266-13.194,10.53-19.969c5.125-10.638,9.967-21.414,14.833-32.176
				c3.197-7.07,6.365-14.16,9.285-21.346c2.584-6.363,4.809-12.873,7.607-20.439c0.738,3.625,1.441,6.112,1.728,8.645
				c1.655,14.616,3.111,29.254,4.829,43.862c1.797,15.284,3.866,30.537,5.716,45.814c1.509,12.46,3.166,24.914,4.194,37.416
				c0.705,8.577,0.875,17.188-5.031,24.713c-2.991,3.81-6.369,6.644-10.871,8.031c-4.148,1.28-8.452,2.053-12.609,3.307
				c-1.023,0.31-2.416,1.57-2.486,2.482c-0.284,3.684-0.118,7.403-0.118,11.372c36.623,0,72.779,0,109.708,0
				c0-3.68,0.266-7.176-0.135-10.593c-0.155-1.323-1.584-3.119-2.841-3.575c-3.955-1.436-8.172-2.132-12.163-3.483
				c-11.114-3.767-17.875-11.732-20.568-22.938c-1.603-6.668-2.457-13.531-3.406-20.34c-0.974-6.984-1.629-14.011-2.468-21.015
				c-1.095-9.139-2.212-18.275-3.357-27.407c-1.62-12.924-3.275-25.842-4.917-38.763c-0.078-0.613-0.183-1.224-0.271-1.837
				c-1.392-9.654-2.822-19.303-4.156-28.966c-0.561-4.058-0.684-8.187-1.415-12.209c-1.743-9.591-2.566-19.052,3.046-27.756
				c1.278-1.981,3.005-3.813,4.888-5.233c4.253-3.208,9.316-4.388,14.505-5.225c1.228-0.198,3.17-1.229,3.297-2.095
				c0.609-4.132,0.706-8.34,0.983-12.517c-0.913-0.158-1.269-0.273-1.624-0.273c-20.619,0.002-41.237,0.012-61.855,0.032
				c-0.873,0-1.991-0.227-2.574,0.211c-2.152,1.618-7.171,1.216-5.944,5.174c1.507,4.861,0.757,8.959-0.199,13.731
				c-2.144,10.692-3.907,21.383-8.338,31.48c-3.17,7.221-5.656,14.74-8.744,22c-3.435,8.075-6.733,16.267-10.941,23.941
				c-6.236,11.374-8.268,24.665-16.395,35.134c-1.274,1.642-2.188,3.591-3.106,5.479c-2.807,5.766-5.477,11.599-8.307,17.353
				c-3.89,7.908-7.825,15.793-11.846,23.636c-2.075,4.045-4.376,7.974-6.706,12.19c-0.221-1.45-0.18-2.641-0.591-3.646
				c-2.85-6.98-5.553-14.036-8.756-20.855c-6.921-14.737-14.091-29.357-21.205-44.003c-3.587-7.386-7.339-14.692-10.899-22.091
				c-4.27-8.872-8.826-17.638-12.51-26.753c-4.691-11.607-8.679-23.502-12.882-35.303c-3.898-10.947-5.626-22.339-6.813-33.846
				c-0.193-1.875,0.073-4.174-3.392-4.136c-20.741,0.23-41.485,0.213-62.229,0.277c-2.426,0.007-4.852,0.001-7.556,0.001
				c0.089,1.832,0.187,3.183,0.215,4.534c0.066,3.197-1.131,7.479,0.476,9.303c1.79,2.033,6.324,1.374,9.291,2.711
				c4.209,1.897,9.274,3.649,11.846,7.065c5.471,7.266,6.418,16.175,5.153,25.195c-1.294,9.225-2.644,18.441-3.881,27.673
				c-1.008,7.522-1.703,15.091-2.866,22.588c-1.705,10.987-3.504,21.968-5.633,32.879c-2.102,10.771,0.306,22.22-4.964,32.494
				c-0.163,0.318-0.15,0.73-0.206,1.101c-1.51,10.001-2.827,20.036-4.6,29.99c-1.062,5.958-2.107,12.099-4.442,17.613
				C23.76,233.628,14.188,239.232,0.75,238.715z M693.647,4.555c-5.196,0.325-9.803-0.047-14.055,1.006
				c-11.99,2.968-23.823,6.566-35.741,9.832c-7.492,2.053-7.563,2.059-7.169,10.032c0.019,0.374-0.097,0.821,0.07,1.108
				c0.389,0.674,0.777,1.499,1.398,1.864c6.842,4.007,13.629,8.127,20.65,11.802c3.024,1.583,3.545,3.709,3.487,6.662
				c-0.116,5.996-0.036,11.995-0.036,17.993c0,9.465,0,18.932,0,28.501c-4.144-0.603-8.017-1.175-11.892-1.728
				c-6.076-0.866-12.131-2.085-18.238-2.477c-6.213-0.398-12.483-0.105-18.718,0.138c-3.187,0.125-6.413,0.545-9.515,1.277
				c-11.263,2.658-22.087,6.849-30.825,14.403c-10.311,8.914-20.159,18.286-26.015,31.331c-4.847,10.793-9.233,21.599-10.816,33.282
				c-0.903,6.662-1.168,13.548-0.595,20.236c0.783,9.137,2.89,18.196,7.331,26.315c3.517,6.431,7.795,12.469,12.024,18.478
				c2.116,3.008,4.518,6.03,7.41,8.233c8.215,6.256,17.518,10.226,27.484,13.195c12.344,3.678,24.309,1.813,35.97-1.517
				c10.166-2.902,19.357-8.462,27.687-15.184c2.705-2.183,5.538-4.206,9.226-6.992c0,7.593,0.141,14.311-0.05,21.02
				c-0.127,4.453,0.152,5.105,4.385,4.342c17.342-3.13,34.661-6.392,51.999-9.605c0-3.911-0.041-6.897,0.012-9.882
				c0.052-2.931-1.487-4-4.223-3.911c-2.62,0.085-5.301,0.45-7.85,0.038c-5.448-0.879-10.565-2.922-12.08-8.863
				c-1.021-4.004-1.247-8.297-1.251-12.462c-0.076-67.099-0.059-134.198-0.063-201.297C693.647,9.628,693.647,7.53,693.647,4.555z
				 M928.235,91.72c-0.141-1.353-0.325-2.322-0.331-3.293c-0.094-13.118-0.438-26.243-0.141-39.353
				c0.197-8.716,2.258-16.996,8.803-23.563c7.672-7.698,18.766-8.597,26.231-0.974c3.447,3.52,6.771,7.178,9.925,10.962
				c5.214,6.255,10.994,11.226,19.899,9.486c5.393-1.054,10.181-2.987,12.054-9.032c1.734-5.6,0.64-10.923-1.424-16.005
				c-0.901-2.22-2.946-4.313-4.997-5.672c-11.157-7.391-23.011-11.72-36.934-11.045c-21.921,1.064-40.146,8.237-52.412,27.247
				c-2.984,4.625-6.321,9.33-7.91,14.486c-3.561,11.55-5.973,23.385-6.122,35.64c-0.094,7.787-4.192,11.106-11.985,11.123
				c-4.248,0.01-8.498,0.083-12.743-0.02c-2.154-0.052-3.285,0.528-3.129,2.928c0.228,3.487,0.275,6.985,0.395,10.479
				c0.118,3.433,1.668,4.579,5.262,4.43c6.472-0.27,12.977,0.04,19.458,0.321c2.073,0.089,4.069,0.544,4.058,3.651
				c-0.128,32.482-0.148,64.964-0.176,97.446c-0.005,6.123-0.799,12.062-2.986,17.85c-1.733,4.586-4.603,7.732-9.429,8.72
				c-5.479,1.12-11.005,2.002-16.907,3.059c0,4.164,0,8.422,0,13.15c2.035,0,3.749-0.006,5.464,0.001
				c29.718,0.113,59.435,0.223,89.152,0.354c2.635,0.012,4.319-0.634,3.904-3.835c-0.285-2.21-0.263-4.487-0.129-6.718
				c0.163-2.697-0.785-3.548-3.601-3.752c-6.056-0.438-12.093-1.325-18.088-2.327c-2.312-0.386-5.037-1.002-6.629-2.51
				c-6.428-6.093-8.999-13.785-8.965-22.69c0.125-32.855,0.077-65.711-0.148-98.565c-0.025-3.663,1.269-4.052,4.255-4.015
				c11.243,0.137,22.488,0.103,33.732,0.085c1.5-0.002,3.53,0.576,3.542-2.053c0.023-5.2,0.007-10.4,0.007-15.996
				C955.283,91.72,941.848,91.72,928.235,91.72z M505.689,154.893c0.091-1.318,0.352-2.312,0.192-3.231
				c-0.819-4.737-1.661-9.473-2.65-14.176c-1.964-9.336-6.27-17.511-12.133-25.021c-10.943-14.017-25.404-21.727-42.74-24.384
				c-12.556-1.924-24.593,0.218-36.409,4.667c-7.235,2.724-13.189,7.285-18.967,12.091c-8.902,7.405-14.989,17.018-20.351,27.154
				c-3.423,6.47-5.604,13.208-5.708,20.584c-0.016,1.2-0.677,2.379-0.952,3.588c-0.849,3.73-2.339,7.472-2.331,11.206
				c0.019,7.295,0.846,14.592,1.408,21.882c1.028,13.323,5.801,25.391,13.039,36.429c10.672,16.276,25.496,26.866,44.686,30.903
				c12.261,2.579,24.631,2.823,36.366-1.874c8.836-3.537,17.845-7.443,25.466-12.987c7.311-5.317,12.981-12.911,19.244-19.624
				c0.833-0.894,1.655-3.109,1.203-3.657c-1.875-2.272-4.018-4.534-6.538-5.958c-0.993-0.561-3.489,0.74-4.861,1.775
				c-9.935,7.494-21.194,12.653-33.255,14.261c-13.938,1.856-27.486-2.319-39.16-9.893c-6.643-4.31-12.34-10.703-17.093-17.166
				c-8.217-11.172-11.497-24.392-12.424-38.132c-0.186-2.759,0.418-5.572,0.666-8.437
				C430.317,154.893,467.73,154.893,505.689,154.893z M1140.395,154.78c0-3.613,0.608-6.86-0.096-9.792
				c-6.074-25.318-19.378-45.093-44.906-53.853c-8.179-2.807-17.455-3.782-26.139-3.419c-11.138,0.464-21.857,3.963-31.518,10.143
				c-10.979,7.025-20.212,15.877-26.216,27.337c-4.063,7.755-6.642,16.36-9.273,24.776c-4.044,12.931-4.159,26.329-2.384,39.574
				c2.623,19.56,10.11,36.875,25.366,50.265c10.012,8.788,21.675,13.828,34.486,16.78c12.407,2.857,24.496,1.587,36.433-2.291
				c10.171-3.305,20.055-7.319,27.609-15.225c5.374-5.624,10.338-11.658,15.23-17.714c0.934-1.155,1.447-4.316,0.844-4.757
				c-2.506-1.829-3.752-5.845-7.857-5.108c-0.585,0.104-1.166,0.456-1.656,0.817c-1.994,1.472-3.785,3.313-5.953,4.433
				c-6.712,3.467-13.255,7.893-20.429,9.695c-12.318,3.096-24.858,2.643-37.021-2.295c-13.587-5.517-23.731-14.776-30.66-27.467
				c-2.595-4.753-4.621-10.021-5.783-15.3c-1.723-7.824-2.509-15.86-3.49-23.832c-0.091-0.741,1.146-2.167,1.999-2.394
				c1.726-0.457,3.612-0.397,5.432-0.397c31.74-0.006,63.481,0.011,95.222,0.023C1133.118,154.781,1136.603,154.78,1140.395,154.78z
				 M754.218,253.82c7.019,0,13.354,0,19.69,0c13.868,0,27.738,0.15,41.602-0.082c4.789-0.079,9.555-1.166,14.342-1.69
				c5.395-0.591,3.438-4.85,3.94-7.823c0.499-2.945-1.27-3.918-3.855-4.887c-3.632-1.357-7.464-2.973-10.3-5.499
				c-6.525-5.813-7.544-13.833-7.528-22.144c0.076-38.855,0.051-77.71,0.054-116.564c0-1.499-0.145-2.999-0.097-4.494
				c0.064-2.021-0.933-3.213-2.847-3.071c-3.768,0.278-7.638,0.399-11.24,1.4c-4.618,1.283-9.002,3.393-13.503,5.104
				c-8.124,3.088-16.256,6.152-24.393,9.207c-1.63,0.612-3.767,0.691-4.819,1.813c-1.246,1.33-1.984,3.483-2.167,5.356
				c-0.163,1.656,0.186,4.118,1.286,4.984c2.225,1.753,5.119,2.654,7.727,3.929c6.088,2.976,12.171,5.965,18.365,9.002
				c0,29.508,0.229,59.23-0.155,88.945c-0.1,7.746-4.111,14.389-11.099,18.381c-3.578,2.044-7.687,3.145-11.494,4.813
				c-1.013,0.444-2.453,1.317-2.573,2.155C754.616,246.414,754.483,250.23,754.218,253.82z M490.109,368.617
				c-0.277-0.043-0.554-0.085-0.831-0.128c-3.519-11.735-7.038-23.471-10.507-35.039c-3.469,0-6.545,0-9.884,0
				c-2.812,15.907-5.589,31.622-8.402,47.539c3.535,0.377,6.414,0.684,9.488,1.012c1.479-11.769,2.881-22.914,4.327-34.414
				c0.435,0.697,0.867,1.148,1.025,1.681c2.489,8.396,4.941,16.801,7.405,25.204c2.107,7.188,2.925,7.763,10.293,6.635
				c0.867-0.133,2.05-1.014,2.32-1.809c3.126-9.182,6.114-18.41,9.112-27.636c0.35-1.078,0.537-2.21,0.8-3.316
				c0.302,0.03,0.604,0.062,0.906,0.092c1.075,11.107,2.15,22.216,3.266,33.73c3.24-0.43,6.241-0.827,9.571-1.269
				c-2.279-16.006-4.519-31.742-6.789-47.687c-2.682,0-4.93,0.155-7.147-0.043c-2.206-0.197-3.17,0.921-3.774,2.749
				c-1.891,5.722-3.756,11.452-5.704,17.155C493.807,358.271,491.938,363.438,490.109,368.617z M1051.637,61.469
				c6.797-0.476,13.065,0.631,17.187-5.304c0.468-0.674,1.429-0.99,2.112-1.533c8.892-7.056,17.787-14.108,26.657-21.192
				c7.057-5.634,14.102-11.284,21.109-16.979c3.396-2.759,6.697-5.638,10.497-8.849c-1.353-0.569-1.779-0.904-2.208-0.907
				c-12.617-0.09-25.235-0.207-37.851-0.113c-1.24,0.009-2.926,1.046-3.629,2.116c-3.422,5.206-6.656,10.539-9.797,15.921
				c-1.566,2.686-2.476,5.791-4.237,8.319c-3.481,4.999-7.499,9.623-11.013,14.602C1057.481,51.781,1054.896,56.292,1051.637,61.469
				z M794.242,43.735c11.128-0.055,19.971-8.638,20.06-19.083c0.094-10.988-8.067-20.632-17.855-20.28
				c-12.369,0.444-21.519,7.18-21.74,18.504C774.471,35,783.389,44.636,794.242,43.735z M971.813,381.947
				c14.285,0.836,26.387-10.449,25.961-25.938c-0.353-12.835-9.998-23.279-24.546-23.703c-16.311-0.476-26.511,12.087-26.992,23.73
				C945.617,370.938,957.651,382.73,971.813,381.947z M53.256,357.574c-0.448,13.585,10.31,25.003,26.182,24.513
				c15.438-0.476,24.816-10.154,25.077-23.991c0.276-14.643-8.389-25.271-25.307-25.702
				C64.364,332.015,52.785,343.459,53.256,357.574z M1048.943,379.216c0-15.376,0-30.813,0-46.228c-3.276,0-5.916,0-9.066,0
				c0,10.714,0,21.577,0,33.418c-6.753-10.985-13.275-20.824-18.918-31.143c-2.357-4.313-4.912-2.123-7.459-1.717
				c-2.615,0.418-3.526,2.152-3.482,5.077c0.211,14.136,0.095,28.276,0.095,42.896c2.996-0.179,6.209-0.369,8.854-0.526
				c0-11.018,0-21.623,0-31.592c0.208,0.126,1.23,0.389,1.606,1.031c4.347,7.43,8.659,14.88,12.854,22.397
				C1038.889,382.623,1039.939,383.113,1048.943,379.216z M800.947,365.872c-5.544-9.028-11.017-17.679-16.22-26.487
				c-4.656-7.882-4.527-7.96-13.061-4.482c-0.201,0.082-0.327,0.349-0.364,0.39c0,15.324,0,30.503,0,45.595c3.28,0,6.207,0,8.973,0
				c0-10.792,0-21.281,0-32.833c6.567,10.992,12.702,21.079,18.607,31.299c1.195,2.068,2.523,3.404,4.598,2.229
				c2.371-1.345,6.625-0.267,6.675-4.899c0.121-11.201,0.327-22.401,0.477-33.604c0.042-3.205,0.007-6.412,0.007-9.888
				c-1.829,0-3.193,0.079-4.546-0.014c-5.143-0.354-5.144-0.374-5.145,4.8C800.946,347.119,800.947,356.262,800.947,365.872z
				 M570.476,381.985c8.46-0.808,16.873-1.092,25.071-2.567c5.884-1.06,10.394-5.33,13.09-10.622
				c2.46-4.832,3.346-10.105,2.673-15.8c-0.85-7.188-6.143-14.775-12.795-17.555c-9.042-3.777-18.334-1.564-28.039-2.337
				C570.476,349.347,570.476,365.012,570.476,381.985z M142.498,356.727c6.031-2.595,6.347-7.795,5.905-13.161
				c-0.413-5.008-3.689-8.3-8.195-9.236c-5.041-1.046-10.347-0.98-15.543-1.08c-8.244-0.158-8.423,0.435-8.217,8.699
				c0.313,12.566,0.176,25.143,0.32,37.713c0.007,0.658,0.867,1.884,1.303,1.872c6.622-0.179,13.242-0.476,19.856-0.837
				c6.762-0.369,10.311-5.146,11.206-9.357C150.423,365.267,147.932,359.997,142.498,356.727z M343.151,381.263
				c2.211,0,4.455-0.261,6.607,0.069c2.456,0.377,3.12-0.649,3.105-2.774c-0.032-4.738-0.062-9.478-0.041-14.217
				c0.003-0.861,0.252-1.723,0.509-3.361c1.808,1.52,3.229,2.336,4.134,3.541c3.949,5.255,7.663,10.688,11.689,15.88
				c0.598,0.771,2.464,0.95,3.644,0.767c1.133-0.177,2.1-1.255,3.206-1.807c3.229-1.614,3.116-3.231,0.78-5.905
				c-3.702-4.237-6.894-8.921-10.318-13.438c7.896-4.94,10.235-10.563,7.482-18.838c-1.271-3.818-6.452-8.171-14.776-7.996
				c-5.191,0.11-10.387,0.021-16.021,0.021C343.151,349.214,343.151,364.957,343.151,381.263z M225.339,359.998
				c4.822-2.844,8.181-6.158,8.228-12.201c0.062-8.021-4.073-12.973-9.966-13.687c-7.083-0.858-14.272-0.847-21.929-1.238
				c0,16.586,0,32.291,0,48.316c1.267,0,2.495-0.005,3.723,0.001c6.021,0.025,6.021,0.026,6.022-6.173c0.001-4.164,0-8.327,0-12.491
				c0.367-0.267,0.733-0.534,1.1-0.801c1.691,1.315,3.695,2.376,5.016,3.994c3.854,4.725,7.718,9.493,10.987,14.621
				c1.324,2.076,2.23,1.525,3.466,0.788c1.99-1.188,3.845-2.603,5.979-4.073C233.708,371.304,229.585,365.734,225.339,359.998z
				 M298.462,332.996c-1.092,0.06-1.807,0.11-2.522,0.135c-0.871,0.03-1.751,0.125-2.613,0.043c-4.103-0.391-4.265,0.04-4.192,4.277
				c0.148,8.697-0.111,17.4-0.046,26.1c0.037,4.904,1.029,9.498,4.659,13.279c5.799,6.043,13.121,6.04,20.349,4.778
				c7.239-1.263,12.617-5.821,13.494-13.379c1.043-8.984,1.13-18.093,1.366-27.154c0.224-8.582,0.153-9.285-9.541-7.64
				c-0.111,0.018-0.207,0.121-0.705,0.431c0,8.847,0.087,17.942-0.062,27.035c-0.037,2.273-0.575,4.626-1.334,6.783
				c-1.497,4.254-5.621,6.574-10.044,6.006c-4.04-0.521-7.51-3.777-8.081-7.886c-0.408-2.938-0.66-5.917-0.695-8.881
				C298.401,349.063,298.462,341.201,298.462,332.996z M864.563,379.302c-0.195-0.832-0.241-1.204-0.369-1.547
				c-4.518-12.146-9.463-24.155-13.376-36.491c-1.743-5.495-3.307-9.452-9.907-8.125c-1.02,0.205-2.469,0.71-2.801,1.475
				c-1.791,4.13-3.295,8.384-4.893,12.598c-3.538,9.332-7.015,18.687-10.634,27.986c-1.654,4.25-1.602,4.604,2.646,5.857
				c0.709,0.209,1.45,0.32,2.142,0.571c1.953,0.708,2.877,0.067,3.525-1.953c1.198-3.745,2.745-7.379,4.21-11.225
				c1.236,0,2.479-0.021,3.722,0.005c3.808,0.077,8.663-1.219,11.135,0.643c2.611,1.967,3.143,6.895,4.212,10.636
				c0.633,2.214,1.951,2.491,3.631,2.018C860.045,381.116,862.197,380.176,864.563,379.302z M737.076,379.538
				c-0.092-0.991-0.018-1.648-0.223-2.201c-4.782-12.887-9.541-25.783-14.425-38.633c-2.209-5.813-3.573-6.557-9.426-5.415
				c-0.962,0.188-2.155,1.193-2.524,2.11c-4.083,10.126-8.044,20.301-11.994,30.479c-1.716,4.423-3.333,8.885-4.975,13.272
				c3.084,1.119,5.688,2.064,8.7,3.157c1.253-3.192,2.484-6.058,3.502-8.998c1.148-3.313,2.697-5.659,6.858-4.93
				c2.179,0.383,4.491,0.206,6.723,0.032c2.76-0.214,4.437,0.691,5.141,3.523c0.65,2.614,1.474,5.218,2.563,7.675
				c0.419,0.945,1.895,2.184,2.697,2.058C732.192,381.279,734.598,380.3,737.076,379.538z M418.931,381.837
				c1.045-0.077,1.911-0.032,2.723-0.22c7.252-1.674,7.334-1.717,4.904-8.531c-4.508-12.643-9.12-25.247-13.72-37.856
				c-0.241-0.659-0.636-1.448-1.195-1.774c-3.219-1.883-8.882,0.295-10.299,3.808c-5.164,12.803-10.401,25.576-15.497,38.406
				c-0.794,2-1.142,4.243,2.095,4.783c1.078,0.181,2.084,0.77,3.138,1.127c1.708,0.578,2.938,0.601,3.629-1.655
				c0.958-3.127,2.315-6.143,3.681-9.124c0.379-0.828,1.355-1.886,2.125-1.944c3.93-0.296,7.889-0.468,11.821-0.296
				c1.068,0.047,2.611,1.23,3.015,2.255C416.75,374.356,417.742,378.059,418.931,381.837z M1103.117,378.792
				c-0.529-1.803-1.005-3.854-1.73-5.814c-4.441-12.006-8.953-23.985-13.402-35.988c-0.754-2.033-1.593-4.531-4.043-4.005
				c-2.688,0.578-6.229-1.411-7.889,3.33c-3.911,11.166-8.579,22.067-12.925,33.082c-1.263,3.2-2.47,6.423-3.746,9.75
				c3.074,1.117,5.776,2.099,8.484,3.083c1.077-2.108,2.391-3.748,2.769-5.58c1.497-7.25,5.903-9.094,12.83-8.331
				c5.94,0.654,6.132,0.257,7.637,5.79c2.38,8.751,3.688,9.346,11.606,5.261C1102.807,379.318,1102.854,379.171,1103.117,378.792z
				 M914.997,377.226c-0.616-1.137-1.177-2.07-1.644-3.05c-1.304-2.736-2.411-3.7-6.024-2.179
				c-10.037,4.225-16.687,1.272-21.143-8.141c-3.26-6.887-1.309-14.611,2.69-18.381c6.215-5.857,11.304-6.321,19.49-1.735
				c3.221,1.804,3.728-0.972,4.949-2.58c1.205-1.585,2.711-3.024-0.053-4.854c-6.699-4.435-14.063-4.709-21.457-3.241
				c-9.841,1.953-16.241,10.878-17.28,20.866c-0.861,8.281,1.029,16.211,7.297,21.798
				C890.634,383.582,904.203,384.711,914.997,377.226z M557.12,360.948c0.233-2.021,0.439-3.73,0.624-5.442
				c0.248-2.302-0.229-3.339-3.071-2.939c-3.422,0.481-6.963,0.074-10.451,0.158c-1.973,0.047-2.887-0.488-2.92-2.738
				c-0.127-8.507-0.208-8.506,8.391-8.533c1.125-0.003,2.255-0.063,3.374,0.021c4.868,0.366,4.633,0.367,4.938-4.288
				c0.231-3.525-0.98-4.622-4.383-4.25c-2.965,0.323-5.979,0.239-8.972,0.265c-4.202,0.037-8.403,0.01-12.992,0.01
				c0,16.201,0,31.834,0,47.979c6.928,0,14.139-0.008,21.35,0.003c4.937,0.008,4.937,0.021,4.921-4.743
				c-0.013-3.939-0.676-4.345-4.555-3.96c-4.059,0.401-8.157,0.411-12.195,0.591c0-4.226,0-8.088,0-12.132
				C546.354,360.948,551.462,360.948,557.12,360.948z M672.753,382.708c3.765-1.08,7.522-2.191,11.298-3.229
				c2.243-0.615,3.57-1.738,2.618-4.24c-1.223-3.212-3.554-4.6-5.95-3.482c-10.668,4.971-21.558,0.438-23.095-12.911
				c-0.396-3.434,0.359-7.443,1.871-10.566c3.81-7.872,13.64-9.702,21.082-4.899c3.963,2.558,4.417-1.557,6.013-3.21
				c1.913-1.981,0.043-2.979-1.443-3.962c-4.396-2.903-9.192-3.909-14.463-3.814c-13.534,0.243-21.266,8.275-23.21,19.839
				C644.556,369.597,655.938,382.24,672.753,382.708z M163.445,381.189c6.62,0,13.355,0.044,20.091-0.013
				c6.817-0.058,5.624,0.741,5.745-5.727c0.04-2.098-0.136-3.122-2.89-2.714c-3.546,0.526-7.231,0.313-10.838,0.099
				c-0.993-0.059-2.599-1.131-2.745-1.95c-0.428-2.393-0.516-4.924-0.204-7.332c0.126-0.979,1.55-2.42,2.52-2.538
				c2.832-0.345,5.733-0.134,8.607-0.134c5.553,0,5.59,0.001,5.446-5.524c-0.116-4.47-3.589-2.375-5.602-2.564
				c-3.433-0.322-6.919-0.089-10.377-0.089c-0.201-1.221-0.338-2.07-0.481-2.919c-1.182-7.01-0.084-8.332,6.92-8.332
				c1.25,0,2.5-0.002,3.749,0.001c6.416,0.014,6.483,0.006,5.774-6.366c-0.079-0.708-1.451-1.802-2.243-1.818
				c-6.619-0.138-13.252,0.152-19.861-0.137c-3.869-0.168-4.135,1.377-3.848,4.646c0.435,4.956,0.22,9.972,0.231,14.963
				C163.459,362.051,163.445,371.361,163.445,381.189z M45.315,338.028c-7.092-6.602-20.496-7.685-29.008-2.396
				c-5.328,3.312-8.324,8.066-10.277,14.188c-2.605,8.163,0.233,20.617,6.885,26.126c8.951,7.411,18.568,7.872,28.892,3.53
				c1.868-0.785,3.97-1.202,2.88-3.988c-1.493-3.816-3.356-4.994-6.136-3.641c-8.861,4.315-19.636,1.225-22.718-10.019
				c-1.738-6.343-0.801-12.064,3.867-16.799c4.859-4.929,10.556-5.452,16.727-2.544c1.743,0.821,3.598,1.404,5.249,2.038
				C43.033,342.101,44.19,340.036,45.315,338.028z M278.315,333.208c-10.5,0-20.33,0.106-30.155-0.042
				c-5.577-0.084-5.408-0.263-5.71,5.446c-0.171,3.218,1.248,3.412,3.839,3.185c3.104-0.273,6.251-0.064,9.116-0.064
				c0,12.538-0.049,24.362,0.082,36.186c0.012,1.091,1.031,2.964,1.824,3.104c2.362,0.416,4.845,0.149,8.05,0.149
				c0-13.533,0-26.499,0-39.689c4.127,0,7.479,0.089,10.821-0.062c0.864-0.039,2.397-0.796,2.422-1.284
				C278.725,337.749,278.44,335.342,278.315,333.208z M1141.943,372.947c-5.229,0-10.063-0.027-14.895,0.012
				c-2.363,0.02-3.62-0.599-3.572-3.427c0.133-7.924-0.064-15.854-0.101-23.78c-0.003-0.731,0.305-1.461,0.313-2.193
				c0.036-3.312,0.016-6.625,0.016-10.334c-2.726,0-5.326-0.135-7.895,0.096c-0.634,0.057-1.659,1.296-1.664,1.996
				c-0.097,15.129-0.073,30.258-0.073,45.595c9.495,0,18.623,0,27.871,0C1141.943,378.164,1141.943,375.698,1141.943,372.947z
				 M925.063,381.176c2.19,0,4.402-0.075,6.608,0.022c1.948,0.088,2.639-0.738,2.646-2.644c0.051-14.217,0.203-28.436,0.162-42.652
				c-0.003-0.938-1.253-2.572-2.07-2.671c-2.276-0.275-4.629,0.086-7.346,0.214C925.063,349.397,925.063,365.041,925.063,381.176z
				 M623.814,380.929c0.269,0.047,0.869,0.26,1.461,0.241c8.537-0.263,8.404,2.04,7.803-8.3c-0.468-8.041,0.286-16.15,0.417-24.23
				c0.082-5.058,0.015-10.116,0.015-15.183c-3.417,0-6.349,0-9.696,0C623.814,349.378,623.814,365.055,623.814,380.929z
				 M537.647,330.798c8.802,0.061,12.558-5.37,17.128-10.671c-6.75-1.152-12.271-1.297-14.751,5.821
				C539.483,327.501,538.578,328.927,537.647,330.798z"/>
			<path fill-rule="evenodd" clip-rule="evenodd" fill="#FFFFFF" d="M1469.066-40.25c63.991,0,127.983,0,191.976,0
				c0,150.731,0,301.462,0,452.193c-60.242,0-120.485,0-180.728,0c0.675-0.533,1.615-0.926,1.98-1.621
				c2.627-4.998,5.674-9.862,7.585-15.133c5.84-16.105,11.508-32.286,16.701-48.609c3.829-12.037,7.159-24.262,10.069-36.556
				c2.667-11.268,4.669-22.705,6.596-34.131c1.485-8.811,2.578-17.697,3.521-26.584c1.039-9.782,1.983-19.592,2.415-29.414
				c0.212-4.813,2.575-6.317,6.692-7.305c14.14-3.391,28.226-7.01,42.314-10.608c10.556-2.697,21.068-5.561,31.629-8.237
				c14.168-3.589,28.399-6.939,42.527-10.679c3.967-1.049,7.348-3.769,7.793-8.147c0.452-4.439,1.191-9.416-4.042-12.113
				c-2.616-1.347-5.196-2.854-7.958-3.817c-19.711-6.878-39.247-14.383-59.27-20.214c-18.655-5.433-37.75-9.505-56.824-13.307
				c-13.823-2.756-27.937-4.049-41.898-6.146c-1.09-0.164-2.787-1.451-2.872-2.342c-0.966-10.166-1.716-20.354-2.438-30.542
				c-1.038-14.629-2.004-29.263-3.006-43.893c-1.002-14.627-2.041-29.252-3.002-43.882c-0.578-8.802-0.914-17.622-1.59-26.416
				C1476.812-33.301,1475.061-38.227,1469.066-40.25z"/>
			<path fill-rule="evenodd" clip-rule="evenodd" d="M1469.066-40.25c5.994,2.023,7.745,6.949,8.172,12.497
				c0.676,8.794,1.012,17.614,1.59,26.416c0.961,14.63,2,29.254,3.002,43.882c1.002,14.63,1.968,29.264,3.006,43.893
				c0.723,10.188,1.473,20.375,2.438,30.542c0.085,0.892,1.782,2.179,2.872,2.342c13.962,2.097,28.075,3.391,41.898,6.146
				c19.074,3.802,38.169,7.874,56.824,13.307c20.022,5.832,39.559,13.336,59.27,20.214c2.762,0.963,5.342,2.47,7.958,3.817
				c5.233,2.697,4.494,7.673,4.042,12.113c-0.445,4.378-3.826,7.098-7.793,8.147c-14.128,3.739-28.359,7.09-42.527,10.679
				c-10.561,2.677-21.073,5.54-31.629,8.237c-14.089,3.599-28.175,7.218-42.314,10.608c-4.117,0.987-6.48,2.492-6.692,7.305
				c-0.432,9.822-1.376,19.632-2.415,29.414c-0.943,8.887-2.036,17.773-3.521,26.584c-1.927,11.426-3.929,22.863-6.596,34.131
				c-2.91,12.294-6.24,24.519-10.069,36.556c-5.193,16.323-10.861,32.504-16.701,48.609c-1.911,5.271-4.958,10.135-7.585,15.133
				c-0.365,0.695-1.306,1.088-1.98,1.621c-3.249,0-6.499,0-9.749,0c-3.856-2.277-6.274-5.393-7.351-9.949
				c-3.355-14.219-7.082-28.351-10.638-42.523c-4.047-16.134-8.003-32.289-12.108-48.407c-4.83-18.964-9.778-37.898-14.735-57.077
				c-7.945-0.826-16.096-1.561-24.217-2.549c-8.373-1.018-16.737-2.146-25.065-3.476c-8.953-1.43-17.897-2.962-26.774-4.794
				c-8.987-1.854-17.96-3.861-26.805-6.289c-11.469-3.148-22.937-6.396-34.163-10.297c-14.537-5.05-28.78-10.937-43.266-16.144
				c-5.112-1.839-6.978-6.371-7.138-11.706c-0.12-4.005,3.819-8.845,8.313-10.021c15.948-4.176,31.948-8.152,47.923-12.225
				c11.271-2.874,22.525-5.812,33.8-8.668c13.279-3.365,26.575-6.669,39.861-10.009c1.924-0.483,3.981-0.737,5.699-1.632
				c1.074-0.56,2.027-2.016,2.354-3.25c2.776-10.529,5.103-21.184,8.138-31.635c3.733-12.852,7.729-25.645,12.154-38.273
				c3.705-10.577,7.977-20.973,12.374-31.289c9.306-21.832,20.063-42.948,32.209-63.341c4.83-8.107,9.678-16.21,14.824-24.115
				c1.246-1.915,3.709-3.039,5.611-4.526C1464.066-40.25,1466.566-40.25,1469.066-40.25z"/>
			<path fill-rule="evenodd" clip-rule="evenodd" d="M0.75,238.715c13.438,0.518,23.01-5.087,27.768-16.325
				c2.335-5.515,3.38-11.655,4.442-17.613c1.773-9.954,3.089-19.989,4.6-29.99c0.056-0.371,0.043-0.782,0.206-1.101
				c5.27-10.274,2.863-21.723,4.964-32.494c2.129-10.912,3.928-21.892,5.633-32.879c1.163-7.497,1.858-15.065,2.866-22.588
				c1.237-9.232,2.586-18.449,3.881-27.673c1.265-9.02,0.318-17.929-5.153-25.195c-2.572-3.416-7.637-5.167-11.846-7.065
				c-2.967-1.337-7.501-0.678-9.291-2.711c-1.606-1.824-0.409-6.106-0.476-9.303c-0.028-1.352-0.125-2.703-0.215-4.534
				c2.704,0,5.13,0.006,7.556-0.001c20.744-0.064,41.488-0.047,62.229-0.277c3.465-0.038,3.198,2.261,3.392,4.136
				c1.188,11.507,2.915,22.899,6.813,33.846c4.204,11.801,8.191,23.696,12.882,35.303c3.684,9.115,8.24,17.881,12.51,26.753
				c3.561,7.399,7.312,14.705,10.899,22.091c7.114,14.646,14.284,29.267,21.205,44.003c3.203,6.819,5.906,13.875,8.756,20.855
				c0.411,1.005,0.37,2.195,0.591,3.646c2.329-4.217,4.631-8.146,6.706-12.19c4.021-7.842,7.957-15.728,11.846-23.636
				c2.831-5.754,5.5-11.587,8.307-17.353c0.918-1.887,1.832-3.837,3.106-5.479c8.127-10.469,10.159-23.761,16.395-35.134
				c4.208-7.675,7.507-15.866,10.941-23.941c3.088-7.26,5.574-14.779,8.744-22c4.432-10.097,6.195-20.788,8.338-31.48
				c0.956-4.772,1.706-8.87,0.199-13.731c-1.227-3.958,3.792-3.556,5.944-5.174c0.583-0.438,1.701-0.211,2.574-0.211
				c20.618-0.02,41.237-0.029,61.855-0.032c0.355,0,0.71,0.115,1.624,0.273c-0.278,4.176-0.375,8.384-0.983,12.517
				c-0.127,0.867-2.069,1.897-3.297,2.095c-5.189,0.836-10.252,2.017-14.505,5.225c-1.883,1.42-3.61,3.252-4.888,5.233
				c-5.613,8.704-4.79,18.165-3.046,27.756c0.731,4.023,0.854,8.151,1.415,12.209c1.334,9.663,2.764,19.312,4.156,28.966
				c0.088,0.613,0.193,1.224,0.271,1.837c1.642,12.921,3.297,25.839,4.917,38.763c1.146,9.132,2.262,18.269,3.357,27.407
				c0.839,7.003,1.495,14.031,2.468,21.015c0.95,6.809,1.804,13.672,3.406,20.34c2.693,11.205,9.455,19.171,20.568,22.938
				c3.991,1.352,8.208,2.048,12.163,3.483c1.257,0.456,2.687,2.252,2.841,3.575c0.401,3.417,0.135,6.913,0.135,10.593
				c-36.929,0-73.085,0-109.708,0c0-3.969-0.166-7.688,0.118-11.372c0.07-0.912,1.463-2.173,2.486-2.482
				c4.158-1.254,8.461-2.026,12.609-3.307c4.502-1.388,7.88-4.222,10.871-8.031c5.907-7.525,5.736-16.136,5.031-24.713
				c-1.028-12.502-2.685-24.956-4.194-37.416c-1.85-15.278-3.919-30.53-5.716-45.814c-1.717-14.608-3.174-29.247-4.829-43.862
				c-0.287-2.533-0.99-5.02-1.728-8.645c-2.798,7.566-5.022,14.076-7.607,20.439c-2.92,7.187-6.088,14.276-9.285,21.346
				c-4.866,10.762-9.708,21.538-14.833,32.176c-3.264,6.774-7.16,13.242-10.53,19.969c-7.806,15.586-15.628,31.166-23.113,46.906
				c-3.775,7.94-7.013,16.153-10.151,24.374c-2.252,5.898-4.04,11.984-5.81,18.052c-0.536,1.835-1.121,2.838-3.19,2.736
				c-3.993-0.196-7.993-0.237-11.99-0.326c-2.794-0.063-4.298-1.647-5.062-4.176c-3.016-9.978-5.803-20.033-9.167-29.891
				c-1.714-5.024-4.441-9.706-6.766-14.517c-8.851-18.312-17.722-36.613-26.59-54.917c-6.583-13.586-13.352-27.085-19.697-40.781
				c-4.33-9.347-8.018-18.99-12.095-28.456c-2.52-5.852-5.231-11.622-7.875-17.469c0.043-0.035-0.388,0.139-0.424,0.375
				c-1.069,6.883-2.148,13.766-3.123,20.663c-1.404,9.947-2.723,19.906-4.086,29.859c-1.647,12.028-3.24,24.065-4.974,36.082
				c-1.507,10.449-3.281,20.86-4.747,31.314c-1.464,10.445-3.927,20.854-1.978,31.508c1.229,6.721,2.894,13.439,8.22,18.138
				c4.741,4.182,10.775,6.258,16.807,7.928c8.632,2.392,7.155,0.887,7.338,9.555c0.032,1.487,0.004,2.977,0.004,5.007
				c-28.122,0-56.056,0-83.989,0C0.75,248.714,0.75,243.715,0.75,238.715z"/>
			<path fill-rule="evenodd" clip-rule="evenodd" d="M693.647,4.555c0,2.975,0,5.073,0,7.171
				c0.005,67.099-0.012,134.198,0.063,201.297c0.005,4.165,0.23,8.458,1.251,12.462c1.514,5.941,6.631,7.984,12.08,8.863
				c2.549,0.412,5.23,0.047,7.85-0.038c2.736-0.089,4.275,0.98,4.223,3.911c-0.053,2.984-0.012,5.971-0.012,9.882
				c-17.338,3.214-34.657,6.476-51.999,9.605c-4.233,0.764-4.513,0.111-4.385-4.342c0.191-6.709,0.05-13.427,0.05-21.02
				c-3.688,2.786-6.521,4.81-9.226,6.992c-8.329,6.722-17.521,12.281-27.687,15.184c-11.662,3.329-23.626,5.194-35.97,1.517
				c-9.966-2.97-19.269-6.939-27.484-13.195c-2.892-2.203-5.294-5.226-7.41-8.233c-4.229-6.009-8.507-12.047-12.024-18.478
				c-4.441-8.119-6.548-17.179-7.331-26.315c-0.573-6.688-0.308-13.575,0.595-20.236c1.583-11.684,5.969-22.489,10.816-33.282
				c5.856-13.045,15.705-22.417,26.015-31.331c8.738-7.555,19.563-11.745,30.825-14.403c3.102-0.732,6.328-1.153,9.515-1.277
				c6.235-0.243,12.505-0.537,18.718-0.138c6.107,0.392,12.162,1.61,18.238,2.477c3.875,0.553,7.748,1.125,11.892,1.728
				c0-9.569,0-19.036,0-28.501c0-5.998-0.08-11.997,0.036-17.993c0.058-2.953-0.463-5.079-3.487-6.662
				c-7.021-3.674-13.808-7.794-20.65-11.802c-0.622-0.365-1.01-1.19-1.398-1.864c-0.167-0.287-0.051-0.734-0.07-1.108
				c-0.394-7.973-0.323-7.979,7.169-10.032c11.918-3.266,23.751-6.863,35.741-9.832C683.845,4.508,688.451,4.88,693.647,4.555z
				 M662.36,181.417c0.188-0.012,0.376-0.023,0.564-0.035c-0.692-11.92-0.458-23.986-2.294-35.729
				c-2.765-17.689-11.957-30.991-29.505-37.833c-14.868-5.796-28.52-4.863-40.933,5.403c-4.389,3.63-8.215,7.989-12.018,12.265
				c-8.46,9.509-10.941,21.348-11.635,33.458c-0.914,15.925,3.801,30.769,10.313,45.139c7.486,16.519,20.655,25.978,38.059,28.412
				c17.154,2.398,32.195-3.684,44.33-16.122c1.713-1.755,2.889-4.761,2.982-7.237C662.569,199.909,662.36,190.659,662.36,181.417z"
				/>
			<path fill-rule="evenodd" clip-rule="evenodd" d="M928.235,91.72c13.612,0,27.048,0,40.955,0c0,5.596,0.017,10.796-0.007,15.996
				c-0.012,2.628-2.042,2.051-3.542,2.053c-11.244,0.018-22.489,0.051-33.732-0.085c-2.986-0.037-4.28,0.352-4.255,4.015
				c0.226,32.854,0.273,65.71,0.148,98.565c-0.034,8.905,2.537,16.598,8.965,22.69c1.592,1.508,4.317,2.124,6.629,2.51
				c5.995,1.002,12.032,1.89,18.088,2.327c2.815,0.204,3.764,1.055,3.601,3.752c-0.134,2.23-0.156,4.508,0.129,6.718
				c0.415,3.201-1.27,3.847-3.904,3.835c-29.718-0.131-59.435-0.24-89.152-0.354c-1.715-0.007-3.429-0.001-5.464-0.001
				c0-4.729,0-8.986,0-13.15c5.902-1.057,11.429-1.938,16.907-3.059c4.826-0.987,7.695-4.134,9.429-8.72
				c2.188-5.788,2.981-11.727,2.986-17.85c0.027-32.482,0.048-64.964,0.176-97.446c0.012-3.107-1.984-3.562-4.058-3.651
				c-6.481-0.281-12.986-0.59-19.458-0.321c-3.594,0.149-5.144-0.997-5.262-4.43c-0.119-3.494-0.167-6.992-0.395-10.479
				c-0.156-2.399,0.975-2.979,3.129-2.928c4.245,0.103,8.495,0.029,12.743,0.02c7.793-0.017,11.892-3.336,11.985-11.123
				c0.149-12.255,2.562-24.09,6.122-35.64c1.589-5.157,4.926-9.862,7.91-14.486C921.176,11.469,939.4,4.296,961.321,3.232
				c13.923-0.675,25.776,3.654,36.934,11.045c2.051,1.359,4.096,3.452,4.997,5.672c2.063,5.083,3.158,10.406,1.424,16.005
				c-1.873,6.045-6.661,7.979-12.054,9.032c-8.905,1.739-14.686-3.231-19.899-9.486c-3.154-3.784-6.478-7.443-9.925-10.962
				c-7.466-7.623-18.56-6.724-26.231,0.974c-6.545,6.567-8.605,14.847-8.803,23.563c-0.298,13.109,0.047,26.234,0.141,39.353
				C927.91,89.398,928.095,90.368,928.235,91.72z"/>
			<path fill-rule="evenodd" clip-rule="evenodd" d="M505.689,154.893c-37.959,0-75.373,0-113.303,0
				c-0.247,2.865-0.852,5.678-0.666,8.437c0.927,13.74,4.207,26.96,12.424,38.132c4.753,6.463,10.45,12.856,17.093,17.166
				c11.674,7.573,25.222,11.749,39.16,9.893c12.062-1.607,23.32-6.767,33.255-14.261c1.373-1.035,3.868-2.336,4.861-1.775
				c2.521,1.424,4.663,3.686,6.538,5.958c0.452,0.548-0.371,2.764-1.203,3.657c-6.263,6.713-11.934,14.307-19.244,19.624
				c-7.622,5.544-16.63,9.45-25.466,12.987c-11.735,4.697-24.105,4.453-36.366,1.874c-19.19-4.037-34.014-14.627-44.686-30.903
				c-7.238-11.038-12.011-23.105-13.039-36.429c-0.562-7.291-1.389-14.587-1.408-21.882c-0.009-3.733,1.482-7.476,2.331-11.206
				c0.275-1.209,0.936-2.389,0.952-3.588c0.104-7.376,2.285-14.114,5.708-20.584c5.362-10.136,11.449-19.75,20.351-27.154
				c5.778-4.806,11.732-9.367,18.967-12.091c11.816-4.449,23.854-6.59,36.409-4.667c17.336,2.657,31.797,10.367,42.74,24.384
				c5.863,7.51,10.169,15.685,12.133,25.021c0.99,4.703,1.832,9.439,2.65,14.176C506.041,152.581,505.781,153.574,505.689,154.893z
				 M430.515,141.266c0-0.028,0-0.055,0-0.083c10.49,0,20.98,0.049,31.469-0.022c4.693-0.032,5.709-1.088,4.201-5.346
				c-2.606-7.357-3.43-15.326-9.332-21.535c-5.92-6.227-12.609-10.612-20.939-11.915c-7.645-1.196-15.264,0.761-21.587,4.763
				c-10.588,6.703-17.352,16.578-19.351,29.227c-0.705,4.459-0.193,4.887,4.435,4.901
				C409.778,141.288,420.146,141.266,430.515,141.266z"/>
			<path fill-rule="evenodd" clip-rule="evenodd" d="M1140.395,154.78c-3.792,0-7.276,0.001-10.761,0
				c-31.74-0.012-63.481-0.029-95.222-0.023c-1.819,0-3.706-0.06-5.432,0.397c-0.854,0.227-2.09,1.653-1.999,2.394
				c0.981,7.972,1.768,16.008,3.49,23.832c1.162,5.279,3.188,10.547,5.783,15.3c6.929,12.69,17.073,21.95,30.66,27.467
				c12.163,4.938,24.703,5.391,37.021,2.295c7.174-1.803,13.717-6.229,20.429-9.695c2.168-1.119,3.959-2.961,5.953-4.433
				c0.49-0.361,1.071-0.713,1.656-0.817c4.105-0.736,5.352,3.279,7.857,5.108c0.604,0.44,0.09,3.602-0.844,4.757
				c-4.893,6.056-9.856,12.09-15.23,17.714c-7.555,7.905-17.438,11.92-27.609,15.225c-11.937,3.878-24.025,5.148-36.433,2.291
				c-12.812-2.952-24.475-7.992-34.486-16.78c-15.256-13.39-22.743-30.705-25.366-50.265c-1.775-13.245-1.66-26.643,2.384-39.574
				c2.632-8.416,5.211-17.021,9.273-24.776c6.004-11.46,15.236-20.313,26.216-27.337c9.66-6.179,20.38-9.678,31.518-10.143
				c8.684-0.362,17.96,0.612,26.139,3.419c25.528,8.76,38.832,28.535,44.906,53.853
				C1141.003,147.92,1140.395,151.167,1140.395,154.78z M1029.432,140.171c2.791,0.457,4.82,1.069,6.85,1.075
				c19.361,0.057,38.723-0.006,58.084-0.001c9.429,0.003,8.188-1.232,6.186-7.747c-0.108-0.353-0.11-0.739-0.165-1.109
				c-2.202-14.824-11.493-24.876-25.815-29.001c-7.659-2.207-14.586-0.869-21.584,2.032
				C1037.813,111.71,1032.82,124.812,1029.432,140.171z"/>
			<path fill-rule="evenodd" clip-rule="evenodd" d="M754.218,253.82c0.266-3.59,0.398-7.406,0.937-11.164
				c0.12-0.838,1.56-1.711,2.573-2.155c3.807-1.668,7.916-2.769,11.494-4.813c6.988-3.992,10.999-10.635,11.099-18.381
				c0.385-29.715,0.155-59.438,0.155-88.945c-6.194-3.038-12.277-6.026-18.365-9.002c-2.608-1.275-5.501-2.176-7.727-3.929
				c-1.1-0.866-1.449-3.328-1.286-4.984c0.183-1.873,0.922-4.026,2.167-5.356c1.052-1.123,3.188-1.202,4.819-1.813
				c8.136-3.055,16.269-6.119,24.393-9.207c4.501-1.711,8.886-3.821,13.503-5.104c3.602-1.001,7.472-1.122,11.24-1.4
				c1.914-0.142,2.911,1.049,2.847,3.071c-0.048,1.495,0.097,2.995,0.097,4.494c-0.003,38.854,0.022,77.709-0.054,116.564
				c-0.016,8.311,1.002,16.33,7.528,22.144c2.836,2.526,6.668,4.142,10.3,5.499c2.586,0.969,4.354,1.941,3.855,4.887
				c-0.502,2.974,1.454,7.232-3.94,7.823c-4.788,0.524-9.554,1.611-14.342,1.69c-13.864,0.232-27.734,0.082-41.602,0.082
				C767.572,253.82,761.237,253.82,754.218,253.82z"/>
			<path fill-rule="evenodd" clip-rule="evenodd" d="M490.109,368.617c1.829-5.18,3.698-10.346,5.474-15.543
				c1.948-5.703,3.813-11.434,5.704-17.155c0.604-1.828,1.569-2.946,3.774-2.749c2.217,0.198,4.465,0.043,7.147,0.043
				c2.27,15.944,4.51,31.681,6.789,47.687c-3.33,0.441-6.331,0.839-9.571,1.269c-1.115-11.515-2.19-22.623-3.266-33.73
				c-0.302-0.03-0.604-0.062-0.906-0.092c-0.263,1.106-0.45,2.238-0.8,3.316c-2.998,9.226-5.985,18.454-9.112,27.636
				c-0.271,0.795-1.454,1.676-2.32,1.809c-7.368,1.128-8.186,0.553-10.293-6.635c-2.464-8.403-4.917-16.809-7.405-25.204
				c-0.158-0.532-0.59-0.983-1.025-1.681c-1.445,11.5-2.847,22.646-4.327,34.414c-3.074-0.328-5.953-0.635-9.488-1.012
				c2.813-15.917,5.59-31.632,8.402-47.539c3.339,0,6.416,0,9.884,0c3.469,11.568,6.988,23.304,10.507,35.039
				C489.555,368.532,489.832,368.574,490.109,368.617z"/>
			<path fill-rule="evenodd" clip-rule="evenodd" d="M1051.637,61.469c3.259-5.177,5.845-9.688,8.828-13.918
				c3.514-4.979,7.531-9.603,11.013-14.602c1.762-2.529,2.671-5.634,4.237-8.319c3.141-5.382,6.375-10.715,9.797-15.921
				c0.703-1.07,2.389-2.107,3.629-2.116c12.615-0.094,25.233,0.023,37.851,0.113c0.429,0.003,0.855,0.338,2.208,0.907
				c-3.8,3.21-7.101,6.089-10.497,8.849c-7.008,5.695-14.053,11.345-21.109,16.979c-8.87,7.084-17.766,14.136-26.657,21.192
				c-0.684,0.542-1.645,0.858-2.112,1.533C1064.702,62.101,1058.434,60.993,1051.637,61.469z"/>
			<path fill-rule="evenodd" clip-rule="evenodd" d="M794.242,43.735c-10.854,0.901-19.771-8.734-19.535-20.859
				c0.221-11.325,9.371-18.061,21.74-18.504c9.788-0.352,17.949,9.292,17.855,20.28C814.213,35.097,805.371,43.68,794.242,43.735z"
				/>
			<path fill-rule="evenodd" clip-rule="evenodd" d="M971.813,381.947c-14.161,0.783-26.195-11.01-25.577-25.91
				c0.481-11.644,10.682-24.206,26.992-23.73c14.548,0.424,24.193,10.868,24.546,23.703
				C998.199,371.498,986.098,382.783,971.813,381.947z M971.77,340.456c-7.842-0.449-15.842,8.533-15.551,16.191
				c0.439,11.589,7.11,17.355,15.908,17.659c8.246,0.285,15.75-8.499,15.495-17.029C987.323,347.248,980.823,340.351,971.77,340.456
				z"/>
			<path fill-rule="evenodd" clip-rule="evenodd" d="M53.256,357.574c-0.471-14.115,11.107-25.56,25.952-25.181
				c16.918,0.432,25.583,11.06,25.307,25.702c-0.261,13.837-9.638,23.516-25.077,23.991
				C63.566,382.577,52.808,371.159,53.256,357.574z M80.009,340.421c-9.037-0.508-16.607,6.521-16.845,16.733
				c-0.229,9.897,5.607,16.55,15.383,17.156c8.413,0.523,15.468-7.508,15.975-17.037C94.963,348.97,87.961,340.194,80.009,340.421z"
				/>
			<path fill-rule="evenodd" clip-rule="evenodd" d="M1048.943,379.216c-9.004,3.897-10.055,3.407-15.518-6.385
				c-4.194-7.518-8.507-14.968-12.854-22.397c-0.376-0.643-1.398-0.905-1.606-1.031c0,9.969,0,20.574,0,31.592
				c-2.645,0.157-5.857,0.348-8.854,0.526c0-14.62,0.116-28.761-0.095-42.896c-0.044-2.925,0.867-4.659,3.482-5.077
				c2.547-0.406,5.102-2.596,7.459,1.717c5.643,10.318,12.165,20.157,18.918,31.143c0-11.841,0-22.704,0-33.418
				c3.15,0,5.79,0,9.066,0C1048.943,348.402,1048.943,363.84,1048.943,379.216z"/>
			<path fill-rule="evenodd" clip-rule="evenodd" d="M800.947,365.872c0-9.61-0.001-18.753,0-27.895
				c0.001-5.174,0.001-5.153,5.145-4.8c1.353,0.093,2.717,0.014,4.546,0.014c0,3.476,0.036,6.683-0.007,9.888
				c-0.149,11.202-0.356,22.402-0.477,33.604c-0.05,4.633-4.304,3.555-6.675,4.899c-2.074,1.175-3.402-0.161-4.598-2.229
				c-5.905-10.22-12.04-20.307-18.607-31.299c0,11.552,0,22.041,0,32.833c-2.766,0-5.692,0-8.973,0c0-15.092,0-30.271,0-45.595
				c0.038-0.041,0.164-0.308,0.364-0.39c8.534-3.478,8.405-3.399,13.061,4.482C789.931,348.193,795.403,356.844,800.947,365.872z"/>
			<path fill-rule="evenodd" clip-rule="evenodd" d="M570.476,381.985c0-16.974,0-32.639,0-48.881
				c9.705,0.772,18.997-1.44,28.039,2.337c6.652,2.779,11.945,10.366,12.795,17.555c0.673,5.694-0.212,10.968-2.673,15.8
				c-2.696,5.292-7.206,9.563-13.09,10.622C587.349,380.894,578.936,381.178,570.476,381.985z M580.05,342.488
				c0,9.935,0,19.745,0,29.603c5.147,2.65,15.722-1.051,18.182-4.917c3.435-5.397,4.969-11.576,1.662-17.445
				C595.282,341.543,586.534,340.104,580.05,342.488z"/>
			<path fill-rule="evenodd" clip-rule="evenodd" d="M142.498,356.727c5.434,3.271,7.925,8.54,6.635,14.612
				c-0.895,4.212-4.444,8.988-11.206,9.357c-6.615,0.361-13.235,0.658-19.856,0.837c-0.436,0.012-1.296-1.214-1.303-1.872
				c-0.144-12.57-0.007-25.146-0.32-37.713c-0.206-8.265-0.027-8.857,8.217-8.699c5.197,0.1,10.502,0.034,15.543,1.08
				c4.506,0.937,7.782,4.229,8.195,9.236C148.845,348.932,148.529,354.132,142.498,356.727z M125.984,373.69
				c2.454,0,4.367,0.246,6.189-0.056c2.89-0.48,6.393-0.853,7.076-4.284c0.39-1.953-0.445-4.604-1.639-6.303
				c-1.488-2.118-8.932-3.379-10.346-1.813c-1.089,1.205-1.073,3.549-1.235,5.414C125.838,368.854,125.984,371.088,125.984,373.69z
				 M126.697,352.853c4.725,0.154,9.296,1.016,11.802-3.496c0.847-1.524,0.96-4.691-0.038-5.776
				c-3.128-3.399-7.474-2.732-11.764-2.192C126.697,345.329,126.697,349.024,126.697,352.853z"/>
			<path fill-rule="evenodd" clip-rule="evenodd" d="M343.151,381.263c0-16.306,0-32.049,0-48.058
				c5.633,0,10.829,0.089,16.021-0.021c8.324-0.175,13.506,4.178,14.776,7.996c2.753,8.275,0.414,13.897-7.482,18.838
				c3.425,4.517,6.616,9.2,10.318,13.438c2.336,2.674,2.449,4.291-0.78,5.905c-1.105,0.552-2.072,1.63-3.206,1.807
				c-1.18,0.184-3.046,0.005-3.644-0.767c-4.026-5.192-7.741-10.625-11.689-15.88c-0.905-1.205-2.326-2.021-4.134-3.541
				c-0.257,1.639-0.506,2.5-0.509,3.361c-0.021,4.739,0.009,9.479,0.041,14.217c0.015,2.125-0.649,3.151-3.105,2.774
				C347.605,381.002,345.362,381.263,343.151,381.263z M352.45,347.267c0.149,7.086,0.149,7.086,4.592,6.983
				c4.639-0.106,7.749-2.818,7.727-6.738c-0.024-4.203-3.076-6.081-9.223-6.113C350.01,341.369,353.633,345.609,352.45,347.267z"/>
			<path fill-rule="evenodd" clip-rule="evenodd" d="M225.339,359.998c4.246,5.736,8.369,11.306,12.626,17.057
				c-2.133,1.471-3.989,2.885-5.979,4.073c-1.236,0.737-2.143,1.288-3.466-0.788c-3.269-5.128-7.132-9.896-10.987-14.621
				c-1.32-1.618-3.324-2.679-5.016-3.994c-0.367,0.267-0.733,0.534-1.1,0.801c0,4.164,0,8.327,0,12.491
				c-0.001,6.199-0.002,6.198-6.022,6.173c-1.228-0.006-2.456-0.001-3.723-0.001c0-16.025,0-31.73,0-48.316
				c7.657,0.392,14.845,0.38,21.929,1.238c5.893,0.714,10.028,5.665,9.966,13.687C233.521,353.84,230.162,357.154,225.339,359.998z
				 M211.66,354.231c4.333-0.072,8.912,0.847,11.022-3.732c0.826-1.794,0.77-5.104-0.376-6.474
				c-2.654-3.171-6.637-3.055-10.646-2.184C211.66,346.031,211.66,349.942,211.66,354.231z"/>
			<path fill-rule="evenodd" clip-rule="evenodd" d="M298.462,332.996c0,8.205-0.062,16.067,0.032,23.928
				c0.035,2.964,0.287,5.943,0.695,8.881c0.571,4.108,4.041,7.365,8.081,7.886c4.423,0.568,8.548-1.752,10.044-6.006
				c0.759-2.157,1.297-4.51,1.334-6.783c0.148-9.093,0.062-18.188,0.062-27.035c0.499-0.31,0.594-0.413,0.705-0.431
				c9.693-1.646,9.765-0.942,9.541,7.64c-0.236,9.062-0.323,18.17-1.366,27.154c-0.877,7.558-6.255,12.116-13.494,13.379
				c-7.228,1.262-14.549,1.265-20.349-4.778c-3.63-3.781-4.622-8.375-4.659-13.279c-0.065-8.699,0.194-17.402,0.046-26.1
				c-0.072-4.237,0.09-4.668,4.192-4.277c0.862,0.082,1.742-0.013,2.613-0.043C296.656,333.106,297.37,333.056,298.462,332.996z"/>
			<path fill-rule="evenodd" clip-rule="evenodd" d="M864.563,379.302c-2.365,0.874-4.518,1.814-6.758,2.447
				c-1.68,0.474-2.998,0.196-3.631-2.018c-1.069-3.741-1.601-8.669-4.212-10.636c-2.472-1.861-7.327-0.565-11.135-0.643
				c-1.242-0.025-2.485-0.005-3.722-0.005c-1.465,3.846-3.012,7.479-4.21,11.225c-0.647,2.021-1.572,2.661-3.525,1.953
				c-0.692-0.251-1.433-0.362-2.142-0.571c-4.248-1.253-4.3-1.607-2.646-5.857c3.62-9.3,7.096-18.654,10.634-27.986
				c1.598-4.214,3.102-8.468,4.893-12.598c0.332-0.765,1.781-1.27,2.801-1.475c6.601-1.327,8.164,2.63,9.907,8.125
				c3.913,12.336,8.858,24.346,13.376,36.491C864.321,378.098,864.367,378.47,864.563,379.302z M838.234,360.678
				c3.607,0,6.521,0,9.788,0c-1.555-5.011-3.096-9.979-4.637-14.945c-0.297,0.087-0.594,0.175-0.891,0.262
				C841.133,350.687,839.771,355.38,838.234,360.678z"/>
			<path fill-rule="evenodd" clip-rule="evenodd" d="M737.076,379.538c-2.478,0.762-4.884,1.741-7.382,2.131
				c-0.802,0.126-2.278-1.112-2.697-2.058c-1.089-2.457-1.913-5.061-2.563-7.675c-0.705-2.832-2.381-3.737-5.141-3.523
				c-2.232,0.174-4.544,0.351-6.723-0.032c-4.161-0.729-5.71,1.617-6.858,4.93c-1.019,2.94-2.25,5.806-3.502,8.998
				c-3.013-1.093-5.616-2.038-8.7-3.157c1.641-4.388,3.258-8.85,4.975-13.272c3.95-10.179,7.912-20.354,11.994-30.479
				c0.369-0.917,1.562-1.923,2.524-2.11c5.854-1.142,7.217-0.397,9.426,5.415c4.884,12.85,9.643,25.746,14.425,38.633
				C737.058,377.89,736.984,378.547,737.076,379.538z M710.799,360.566c3.519,0,6.667,0,9.618,0
				c-1.576-5.577-3.067-10.853-4.639-16.413C714.063,349.806,712.46,355.088,710.799,360.566z"/>
			<path fill-rule="evenodd" clip-rule="evenodd" d="M418.931,381.837c-1.188-3.778-2.18-7.48-3.578-11.022
				c-0.404-1.024-1.947-2.208-3.015-2.255c-3.932-0.172-7.891,0-11.821,0.296c-0.77,0.059-1.747,1.116-2.125,1.944
				c-1.366,2.981-2.724,5.997-3.681,9.124c-0.691,2.256-1.922,2.233-3.629,1.655c-1.054-0.357-2.06-0.946-3.138-1.127
				c-3.237-0.54-2.89-2.783-2.095-4.783c5.096-12.83,10.333-25.604,15.497-38.406c1.417-3.513,7.08-5.69,10.299-3.808
				c0.559,0.326,0.954,1.115,1.195,1.774c4.6,12.609,9.211,25.214,13.72,37.856c2.43,6.814,2.348,6.857-4.904,8.531
				C420.842,381.805,419.976,381.76,418.931,381.837z M411.977,361.083c-1.582-5.602-2.963-10.493-4.344-15.384
				c-0.273-0.015-0.546-0.027-0.819-0.041c-1.578,4.817-3.154,9.637-4.827,14.747C405.302,360.63,408.34,360.836,411.977,361.083z"
				/>
			<path fill-rule="evenodd" clip-rule="evenodd" d="M1103.117,378.792c-0.264,0.379-0.311,0.526-0.409,0.577
				c-7.918,4.085-9.227,3.49-11.606-5.261c-1.505-5.533-1.696-5.136-7.637-5.79c-6.927-0.763-11.333,1.081-12.83,8.331
				c-0.378,1.832-1.691,3.472-2.769,5.58c-2.708-0.984-5.41-1.966-8.484-3.083c1.276-3.327,2.483-6.55,3.746-9.75
				c4.346-11.015,9.014-21.916,12.925-33.082c1.66-4.741,5.2-2.752,7.889-3.33c2.45-0.526,3.289,1.972,4.043,4.005
				c4.449,12.003,8.961,23.982,13.402,35.988C1102.112,374.938,1102.588,376.989,1103.117,378.792z M1082.097,345.616
				c-0.261,0.12-0.521,0.24-0.782,0.36c-1.383,4.162-2.866,8.296-4.035,12.517c-0.166,0.601,1.119,2.245,1.866,2.339
				c2.433,0.305,4.927,0.114,7.532,0.114C1085.047,355.488,1083.572,350.552,1082.097,345.616z"/>
			<path fill-rule="evenodd" clip-rule="evenodd" d="M914.997,377.226c-10.794,7.485-24.363,6.356-33.174-1.497
				c-6.268-5.587-8.158-13.517-7.297-21.798c1.039-9.988,7.439-18.913,17.28-20.866c7.395-1.468,14.758-1.193,21.457,3.241
				c2.764,1.83,1.258,3.27,0.053,4.854c-1.222,1.608-1.729,4.384-4.949,2.58c-8.187-4.586-13.275-4.122-19.49,1.735
				c-3.999,3.77-5.95,11.494-2.69,18.381c4.456,9.413,11.105,12.365,21.143,8.141c3.613-1.521,4.721-0.558,6.024,2.179
				C913.82,375.155,914.381,376.089,914.997,377.226z"/>
			<path fill-rule="evenodd" clip-rule="evenodd" d="M557.12,360.948c-5.658,0-10.766,0-15.94,0c0,4.044,0,7.906,0,12.132
				c4.038-0.18,8.136-0.189,12.195-0.591c3.879-0.385,4.542,0.021,4.555,3.96c0.015,4.764,0.015,4.751-4.921,4.743
				c-7.211-0.011-14.422-0.003-21.35-0.003c0-16.145,0-31.777,0-47.979c4.589,0,8.791,0.027,12.992-0.01
				c2.993-0.025,6.006,0.059,8.972-0.265c3.402-0.372,4.614,0.725,4.383,4.25c-0.305,4.655-0.071,4.654-4.938,4.288
				c-1.119-0.084-2.249-0.024-3.374-0.021c-8.599,0.027-8.519,0.026-8.391,8.533c0.034,2.25,0.948,2.785,2.92,2.738
				c3.488-0.084,7.028,0.323,10.451-0.158c2.843-0.399,3.319,0.638,3.071,2.939C557.56,357.218,557.353,358.928,557.12,360.948z"/>
			<path fill-rule="evenodd" clip-rule="evenodd" d="M672.753,382.708c-16.815-0.468-28.197-13.111-25.279-30.476
				c1.944-11.563,9.676-19.596,23.21-19.839c5.271-0.095,10.068,0.911,14.463,3.814c1.487,0.982,3.356,1.98,1.443,3.962
				c-1.596,1.653-2.05,5.768-6.013,3.21c-7.442-4.803-17.272-2.973-21.082,4.899c-1.512,3.123-2.268,7.133-1.871,10.566
				c1.537,13.349,12.426,17.882,23.095,12.911c2.396-1.117,4.727,0.271,5.95,3.482c0.953,2.502-0.375,3.625-2.618,4.24
				C680.275,380.517,676.519,381.628,672.753,382.708z"/>
			<path fill-rule="evenodd" clip-rule="evenodd" d="M163.445,381.189c0-9.828,0.015-19.139-0.006-28.449
				c-0.011-4.991,0.204-10.007-0.231-14.963c-0.287-3.269-0.021-4.813,3.848-4.646c6.609,0.289,13.242-0.001,19.861,0.137
				c0.792,0.017,2.164,1.11,2.243,1.818c0.709,6.372,0.642,6.38-5.774,6.366c-1.25-0.003-2.5-0.001-3.749-0.001
				c-7.004,0-8.102,1.322-6.92,8.332c0.143,0.849,0.281,1.698,0.481,2.919c3.458,0,6.944-0.233,10.377,0.089
				c2.013,0.189,5.486-1.905,5.602,2.564c0.144,5.525,0.107,5.524-5.446,5.524c-2.874,0-5.775-0.211-8.607,0.134
				c-0.969,0.118-2.393,1.56-2.52,2.538c-0.312,2.408-0.224,4.939,0.204,7.332c0.146,0.819,1.752,1.892,2.745,1.95
				c3.606,0.214,7.292,0.428,10.838-0.099c2.753-0.408,2.929,0.616,2.89,2.714c-0.122,6.468,1.072,5.669-5.745,5.727
				C176.8,381.233,170.064,381.189,163.445,381.189z"/>
			<path fill-rule="evenodd" clip-rule="evenodd" d="M45.315,338.028c-1.125,2.008-2.282,4.072-3.64,6.495
				c-1.651-0.634-3.506-1.217-5.249-2.038c-6.171-2.908-11.867-2.385-16.727,2.544c-4.667,4.734-5.605,10.456-3.867,16.799
				c3.082,11.243,13.856,14.334,22.718,10.019c2.78-1.354,4.643-0.176,6.136,3.641c1.089,2.786-1.012,3.203-2.88,3.988
				c-10.324,4.342-19.941,3.881-28.892-3.53c-6.652-5.509-9.49-17.963-6.885-26.126c1.953-6.121,4.949-10.876,10.277-14.188
				C24.82,330.344,38.224,331.427,45.315,338.028z"/>
			<path fill-rule="evenodd" clip-rule="evenodd" d="M278.315,333.208c0.125,2.134,0.41,4.541,0.289,6.929
				c-0.025,0.488-1.558,1.245-2.422,1.284c-3.341,0.15-6.694,0.062-10.821,0.062c0,13.19,0,26.156,0,39.689
				c-3.205,0-5.688,0.267-8.05-0.149c-0.793-0.141-1.812-2.014-1.824-3.104c-0.13-11.823-0.082-23.647-0.082-36.186
				c-2.865,0-6.012-0.209-9.116,0.064c-2.592,0.228-4.01,0.033-3.839-3.185c0.303-5.709,0.134-5.53,5.71-5.446
				C257.985,333.314,267.814,333.208,278.315,333.208z"/>
			<path fill-rule="evenodd" clip-rule="evenodd" d="M1141.943,372.947c0,2.751,0,5.217,0,7.964c-9.248,0-18.376,0-27.871,0
				c0-15.337-0.023-30.466,0.073-45.595c0.005-0.7,1.03-1.939,1.664-1.996c2.568-0.23,5.169-0.096,7.895-0.096
				c0,3.709,0.021,7.022-0.016,10.334c-0.008,0.732-0.315,1.462-0.313,2.193c0.036,7.927,0.233,15.856,0.101,23.78
				c-0.048,2.828,1.209,3.446,3.572,3.427C1131.881,372.92,1136.715,372.947,1141.943,372.947z"/>
			<path fill-rule="evenodd" clip-rule="evenodd" d="M925.063,381.176c0-16.135,0-31.778,0-47.73
				c2.717-0.128,5.069-0.489,7.346-0.214c0.817,0.099,2.067,1.733,2.07,2.671c0.041,14.217-0.111,28.436-0.162,42.652
				c-0.007,1.905-0.697,2.731-2.646,2.644C929.466,381.101,927.254,381.176,925.063,381.176z"/>
			<path fill-rule="evenodd" clip-rule="evenodd" d="M623.814,380.929c0-15.874,0-31.551,0-47.472c3.347,0,6.279,0,9.696,0
				c0,5.066,0.067,10.125-0.015,15.183c-0.131,8.08-0.885,16.189-0.417,24.23c0.601,10.34,0.734,8.037-7.803,8.3
				C624.684,381.188,624.083,380.976,623.814,380.929z"/>
			<path fill-rule="evenodd" clip-rule="evenodd" d="M537.647,330.798c0.931-1.871,1.836-3.297,2.377-4.85
				c2.48-7.118,8.001-6.974,14.751-5.821C550.205,325.428,546.449,330.858,537.647,330.798z"/>
			<path fill-rule="evenodd" clip-rule="evenodd" fill="#FFFFFF" d="M662.36,181.417c0,9.243,0.209,18.493-0.138,27.721
				c-0.093,2.477-1.269,5.482-2.982,7.237c-12.135,12.438-27.176,18.521-44.33,16.122c-17.404-2.435-30.573-11.894-38.059-28.412
				c-6.512-14.37-11.228-29.214-10.313-45.139c0.694-12.11,3.175-23.949,11.635-33.458c3.803-4.276,7.629-8.635,12.018-12.265
				c12.413-10.266,26.065-11.199,40.933-5.403c17.549,6.842,26.741,20.144,29.505,37.833c1.836,11.742,1.603,23.808,2.294,35.729
				C662.737,181.393,662.549,181.405,662.36,181.417z"/>
			<path fill-rule="evenodd" clip-rule="evenodd" fill="#FFFFFF" d="M430.515,141.266c-10.369,0-20.737,0.022-31.104-0.01
				c-4.628-0.014-5.14-0.442-4.435-4.901c1.999-12.649,8.763-22.523,19.351-29.227c6.323-4.002,13.942-5.959,21.587-4.763
				c8.33,1.303,15.019,5.688,20.939,11.915c5.902,6.209,6.726,14.178,9.332,21.535c1.509,4.258,0.492,5.313-4.201,5.346
				c-10.489,0.071-20.979,0.022-31.469,0.022C430.515,141.211,430.515,141.238,430.515,141.266z"/>
			<path fill-rule="evenodd" clip-rule="evenodd" fill="#FFFFFF" d="M1029.432,140.171c3.389-15.359,8.381-28.46,23.555-34.751
				c6.998-2.901,13.925-4.239,21.584-2.032c14.322,4.125,23.613,14.177,25.815,29.001c0.055,0.371,0.057,0.756,0.165,1.109
				c2.003,6.514,3.243,7.75-6.186,7.747c-19.361-0.005-38.723,0.058-58.084,0.001
				C1034.252,141.24,1032.223,140.627,1029.432,140.171z"/>
			<path fill-rule="evenodd" clip-rule="evenodd" fill="#FFFFFF" d="M971.77,340.456c9.054-0.105,15.554,6.792,15.853,16.821
				c0.255,8.53-7.249,17.314-15.495,17.029c-8.798-0.304-15.469-6.07-15.908-17.659C955.928,348.989,963.928,340.007,971.77,340.456
				z"/>
			<path fill-rule="evenodd" clip-rule="evenodd" fill="#FFFFFF" d="M80.009,340.421c7.953-0.227,14.954,8.549,14.513,16.853
				c-0.507,9.529-7.562,17.561-15.975,17.037c-9.776-0.606-15.612-7.259-15.383-17.156
				C63.401,346.941,70.972,339.913,80.009,340.421z"/>
			<path fill-rule="evenodd" clip-rule="evenodd" fill="#FFFFFF" d="M580.05,342.488c6.484-2.385,15.231-0.945,19.844,7.24
				c3.307,5.869,1.773,12.048-1.662,17.445c-2.46,3.866-13.035,7.567-18.182,4.917C580.05,362.233,580.05,352.423,580.05,342.488z"
				/>
			<path fill-rule="evenodd" clip-rule="evenodd" fill="#FFFFFF" d="M125.984,373.69c0-2.603-0.146-4.837,0.045-7.041
				c0.162-1.865,0.146-4.209,1.235-5.414c1.415-1.566,8.858-0.306,10.346,1.813c1.194,1.698,2.029,4.35,1.639,6.303
				c-0.684,3.432-4.186,3.804-7.076,4.284C130.351,373.937,128.438,373.69,125.984,373.69z"/>
			<path fill-rule="evenodd" clip-rule="evenodd" fill="#FFFFFF" d="M126.697,352.853c0-3.828,0-7.523,0-11.465
				c4.29-0.54,8.636-1.207,11.764,2.192c0.999,1.085,0.885,4.252,0.038,5.776C135.993,353.868,131.422,353.007,126.697,352.853z"/>
			<path fill-rule="evenodd" clip-rule="evenodd" fill="#FFFFFF" d="M352.45,347.267c1.183-1.657-2.439-5.897,3.096-5.868
				c6.147,0.032,9.199,1.91,9.223,6.113c0.022,3.92-3.088,6.632-7.727,6.738C352.599,354.353,352.599,354.353,352.45,347.267z"/>
			<path fill-rule="evenodd" clip-rule="evenodd" fill="#FFFFFF" d="M211.66,354.231c0-4.289,0-8.2,0-12.39
				c4.009-0.871,7.991-0.987,10.646,2.184c1.146,1.369,1.203,4.68,0.376,6.474C220.572,355.078,215.992,354.159,211.66,354.231z"/>
			<path fill-rule="evenodd" clip-rule="evenodd" fill="#FFFFFF" d="M838.234,360.678c1.537-5.298,2.898-9.991,4.261-14.684
				c0.297-0.087,0.594-0.175,0.891-0.262c1.541,4.967,3.082,9.935,4.637,14.945C844.755,360.678,841.842,360.678,838.234,360.678z"
				/>
			<path fill-rule="evenodd" clip-rule="evenodd" fill="#FFFFFF" d="M710.799,360.566c1.662-5.479,3.264-10.761,4.979-16.413
				c1.572,5.561,3.063,10.836,4.639,16.413C717.465,360.566,714.318,360.566,710.799,360.566z"/>
			<path fill-rule="evenodd" clip-rule="evenodd" fill="#FFFFFF" d="M411.977,361.083c-3.637-0.247-6.675-0.453-9.99-0.678
				c1.673-5.11,3.25-9.93,4.827-14.747c0.272,0.014,0.546,0.026,0.819,0.041C409.014,350.59,410.395,355.481,411.977,361.083z"/>
			<path fill-rule="evenodd" clip-rule="evenodd" fill="#FFFFFF" d="M1082.097,345.616c1.476,4.936,2.95,9.872,4.581,15.33
				c-2.605,0-5.1,0.19-7.532-0.114c-0.747-0.094-2.032-1.738-1.866-2.339c1.169-4.221,2.652-8.354,4.035-12.517
				C1081.575,345.856,1081.836,345.736,1082.097,345.616z"/>
		</g>
	</g>
</g>
</svg>
