<?xml version="1.0" encoding="utf-8"?>
<!-- Generator: Adobe Illustrator 16.0.0, SVG Export Plug-In . SVG Version: 6.00 Build 0)  -->
<!DOCTYPE svg PUBLIC "-//W3C//DTD SVG 1.1//EN" "http://www.w3.org/Graphics/SVG/1.1/DTD/svg11.dtd">
<svg version="1.1" id="Capa_1" xmlns="http://www.w3.org/2000/svg" xmlns:xlink="http://www.w3.org/1999/xlink" x="0px" y="0px"
	 width="856px" height="487px" viewBox="0 0 856 487" enable-background="new 0 0 856 487" xml:space="preserve">
<g>
	<defs>
		<rect id="SVGID_1_" width="856" height="487"/>
	</defs>
	<clipPath id="SVGID_2_">
		<use xlink:href="#SVGID_1_"  overflow="visible"/>
	</clipPath>
	<g clip-path="url(#SVGID_2_)">
		<g>
			<path fill-rule="evenodd" clip-rule="evenodd" fill="#FFFFFF" d="M973.65,527.567c-360.254,0.003-720.508,0.003-1080.832,0.003
				c0-186.201,0-372.41,0-558.719c360.231,0,720.532,0,1080.832,0C973.65,155.054,973.65,341.31,973.65,527.567z M126.033,383.161
				c0.147-0.363,0.294-0.727,0.442-1.089c-0.854-0.484-1.655-1.218-2.571-1.411c-4.717-0.995-7.285-4.073-8.223-8.545
				c-0.558-2.662-0.908-5.427-0.884-8.141c0.146-16.354-0.015-32.728,0.815-49.05c0.583-11.47,3.738-22.393,10.93-31.871
				c9.108-12.005,28.606-13.429,38.912-2.534c6.466,6.835,8.408,15.557,8.495,24.394c0.198,20.225-0.146,40.461-0.682,60.682
				c-0.179,6.756-2.136,13.106-9.933,15.35c-0.574,0.165-0.907,1.169-1.557,2.066c15.467,0,30.375,0,45.283,0
				c0.07-0.326,0.141-0.651,0.211-0.977c-1.184-0.478-2.353-0.996-3.553-1.424c-3.426-1.222-5.745-3.526-6.415-7.11
				c-0.501-2.681-0.804-5.438-0.816-8.163c-0.078-16.624,0.16-33.252-0.158-49.871c-0.123-6.419-0.835-12.955-2.307-19.195
				c-3.441-14.589-12.078-24.588-27.271-27.775c-8.4-1.762-16.76-1.306-25.1,0.902c-12.178,3.224-20.458,10.796-25.586,22.085
				c-0.815,1.793-1.461,3.664-2.414,6.08c-3.936-16.372-13.764-26.73-29.123-29.105c-23.773-3.678-42.64,3.402-53.312,26.931
				c0-8.268,0-16.536,0-25.105c-10.5,2.593-20.472,5.056-30.443,7.518c0.002,0.42,0.004,0.839,0.006,1.259
				c4.608,0.608,8.352,2.425,9.541,7.147c0.603,2.394,0.958,4.924,0.943,7.39c-0.152,24.105-0.291,48.212-0.71,72.313
				c-0.108,6.18-0.712,12.555-7.164,16.132c-0.166,0.093-0.065,0.665-0.098,1.147c13.86,0,27.609,0,41.357,0
				c-0.487-1.402-1.458-1.905-2.221-2.628c-2.183-2.063-4.882-3.891-6.251-6.42c-1.475-2.727-2.348-6.148-2.319-9.256
				c0.179-19.321-1.821-38.732,1.45-57.938c1.77-10.395,5.307-20.14,13.483-27.563c9.787-8.887,28.953-8.759,37.098,3.305
				c4.336,6.422,6.32,13.531,6.406,21.049c0.221,19.247,0.097,38.497,0.026,57.746c-0.009,2.601-0.247,5.257-0.829,7.785
				c-1.205,5.233-3.346,9.93-8.938,11.93c-0.798,0.286-1.669,0.367-2.506,0.543c0.446,0.474,0.892,0.946,1.338,1.42
				C96.267,383.161,111.15,383.161,126.033,383.161z M523.655,382.159c0.098,0.292,0.194,0.583,0.292,0.876
				c16.162,0,32.323,0,48.484,0c0.078-0.334,0.154-0.668,0.232-1.002c-1.138-0.464-2.239-1.076-3.42-1.366
				c-3.746-0.917-6.151-3.474-7.334-6.827c-1.016-2.882-1.545-6.071-1.592-9.135c-0.193-12.994-0.607-26.014,0.006-38.979
				c0.433-9.13,1.508-18.424,3.878-27.219c3.351-12.432,10.188-22.593,24.295-24.859c10.741-1.726,20.226,0.729,27.447,9.509
				c7.259,8.825,9.352,19.393,9.634,30.307c0.373,14.486,0.289,28.993-0.011,43.482c-0.112,5.409-1.045,10.869-2.231,16.166
				c-0.935,4.169-3.646,7.245-8.237,8.129c-0.996,0.191-1.904,0.841-2.852,1.279c0.099,0.188,0.197,0.377,0.296,0.565
				c15.424,0,30.847,0,46.632,0c-0.521-0.578-0.654-0.798-0.848-0.928c-0.411-0.272-0.826-0.598-1.288-0.73
				c-5.712-1.642-8.138-5.742-8.478-11.359c-0.257-4.226-0.535-8.455-0.602-12.687c-0.276-17.476,0.249-35.001-0.93-52.412
				c-0.977-14.424-8.091-25.869-21.727-32.416c-10.326-4.958-21.138-5.971-32.358-4.45c-13.268,1.801-23.722,7.775-30.047,19.938
				c-1.653,3.18-2.981,6.528-4.46,9.8c-0.348-0.058-0.696-0.115-1.044-0.173c0-9.11,0-18.221,0-27.229
				c-10.618,2.263-20.6,4.39-31.13,6.633c1.002,0.813,1.54,1.537,2.243,1.774c6.558,2.215,8.462,7.801,8.53,13.584
				c0.298,24.735,0.253,49.477,0.056,74.214c-0.064,8.015-3.512,11.884-11.036,14.185
				C525.201,381.091,524.454,381.707,523.655,382.159z M409.51,299.782c0.321-0.003,0.644-0.005,0.966-0.008
				c0.669-1.572,1.313-3.156,2.011-4.716c4.623-10.325,11.381-18.446,22.878-21.3c3.955-0.981,8.052-1.624,12.116-1.871
				c7.702-0.469,15.054,0.804,21.829,4.958c10.852,6.652,14.434,24.203,12.436,37.773c-8.807,0-17.771-0.202-26.722,0.05
				c-11.978,0.336-23.682,2.535-34.839,6.936c-9.242,3.646-17.332,8.995-20.96,18.855c-5.318,14.457,1.225,31.267,14.919,38.753
				c10.801,5.904,22.347,7.763,34.604,6.628c10.712-0.993,19.711-5.021,26.626-13.249c2.749-3.27,4.974-6.98,7.275-10.261
				c1.419,5.644,2.887,11.37,4.294,17.112c0.664,2.711,2.188,3.876,5.086,3.743c4.364-0.2,8.745,0.007,13.118-0.07
				c3.032-0.054,6.063-0.292,9.094-0.448c0.123-0.332,0.246-0.664,0.368-0.996c-4.241-1.952-8.15-4.461-8.935-9.201
				c-0.747-4.518-0.879-9.17-0.902-13.766c-0.095-18.618,0.034-37.238-0.077-55.856c-0.057-9.415-3.42-17.613-10.7-23.708
				c-8.593-7.193-18.917-10.394-29.931-10.934c-8.804-0.433-17.669-0.475-26.466,0.024c-11.38,0.646-22.203,3.839-32.282,9.25
				c-0.804,0.431-1.699,2.025-1.492,2.796C405.581,286.816,407.582,293.289,409.51,299.782z M789.685,338.846
				c-2.968-1.253-4.318-0.277-5.539,2.427c-2.84,6.292-5.338,12.942-9.322,18.476c-11.507,15.979-27.499,23.079-47.04,19.992
				c-16.798-2.653-26.202-13.987-31.038-29.637c-3.409-11.032-3.237-22.375-3.028-33.744c0.063-3.393,1.213-4.42,4.646-4.403
				c28.128,0.135,56.257,0.079,84.384,0.066c1.422-0.001,2.842-0.129,4.554-0.212c-2.56-18.507-12.605-30.74-28.601-38.319
				c-11.138-5.278-22.873-7.009-35.23-5.46c-13.852,1.737-26.344,6.447-36.579,15.973c-15.766,14.671-20.975,33.144-17.493,54.021
				c2.24,13.435,8.778,24.799,19.504,33.404c16.807,13.485,36.125,17.425,56.911,13.33
				C769.465,380.099,784.904,361.479,789.685,338.846z M802.581,382.206c0.12,0.272,0.239,0.545,0.358,0.817
				c16.15,0,32.302,0,49.462,0c-1.312-1.001-1.712-1.488-2.222-1.669c-7.328-2.596-10.689-8.16-11.512-15.52
				c-0.29-2.598-0.226-5.242-0.227-7.864c-0.015-42.124-0.015-84.247-0.018-126.371c0-1.475,0-2.95,0-4.864
				c-11.279,2.64-22.075,5.168-33.7,7.889c1.305,1.188,1.538,1.589,1.833,1.642c7.307,1.311,9.028,6.473,9.021,12.907
				c-0.044,38.623-0.012,77.246-0.153,115.869c-0.025,6.823-3.133,12.139-9.49,15.24
				C804.779,380.848,803.697,381.562,802.581,382.206z M335.864,382.297c0.117,0.26,0.234,0.519,0.352,0.778
				c16.14,0,32.281,0,48.42,0c-0.543-1.242-1.246-1.901-2.08-2.241c-5.602-2.281-9.313-6.161-10-12.307
				c-0.498-4.443-0.79-8.934-0.795-13.404c-0.06-41.119-0.031-82.238-0.056-123.358c-0.001-1.622-0.277-3.244-0.43-4.911
				c-11.201,2.612-21.769,5.077-32.336,7.542c-0.019,0.438-0.037,0.875-0.055,1.312c1.183,0.466,2.339,1.026,3.554,1.381
				c3.169,0.927,5.145,2.951,5.725,6.186c0.392,2.19,0.795,4.419,0.795,6.63c0.015,38.243,0.004,76.488-0.1,114.732
				c-0.019,7.153-3.158,12.62-9.802,15.808C337.951,380.976,336.927,381.676,335.864,382.297z M276.058,382.396
				c0.141,0.183,0.281,0.365,0.422,0.547c16.115,0,32.231,0,49.375,0c-1.28-0.979-1.602-1.367-2.012-1.521
				c-8.89-3.306-11.913-10.194-11.911-19.097c0.011-43.494-0.03-86.987-0.052-130.482c-0.001-1.577,0-3.154,0-5.1
				c-11.331,2.643-22.095,5.152-32.859,7.662c0.029,0.371,0.057,0.741,0.086,1.111c0.858,0.438,1.674,1.108,2.582,1.273
				c4.749,0.863,6.521,4.32,7.104,8.458c0.555,3.938,0.771,7.953,0.778,11.933c0.057,33.246,0.056,66.492-0.001,99.738
				c-0.006,3.601-0.265,7.231-0.787,10.793c-0.805,5.494-3.772,9.61-8.73,12.248C278.68,380.692,277.388,381.581,276.058,382.396z
				 M264.822,383.13c0.117-0.29,0.235-0.58,0.353-0.87c-0.919-0.548-1.773-1.344-2.767-1.602c-4.827-1.246-7.83-4.392-8.866-9.077
				c-0.879-3.974-1.505-8.093-1.524-12.151c-0.132-28.106-0.075-56.215-0.078-84.322c0-1.475,0-2.949,0-4.952
				c-11.32,2.536-22.177,4.969-32.773,7.343c2.509,1.707,5.999,2.93,7.46,5.367c1.853,3.093,2.805,7.163,2.849,10.827
				c0.252,21.234,0.158,42.474,0.088,63.71c-0.012,3.474-0.213,6.993-0.803,10.409c-1.095,6.336-3.705,11.586-10.881,13.005
				c-0.739,0.146-1.285,1.274-2.268,2.313C232.559,383.13,248.691,383.13,264.822,383.13z M451.499,33.099
				c0-1.373,0.062-2.75-0.009-4.119c-0.946-18.262-20.115-29.501-36.58-21.558c-11.944,5.761-16.719,20.78-13.351,33.188
				c3.062,11.276,10.167,20.274,17.709,28.904c0.426,0.488,1.174,0.959,1.787,0.978c11.364,0.352,12.665-0.343,19.335-9.977
				c0.848-1.224,1.84-2.353,2.636-3.608C447.647,49.612,451.933,42.188,451.499,33.099z M485.68,117.503
				c2.703-0.36,5.47-0.465,8.099-1.122c19.703-4.925,24.388-25.229,15.27-39.035c-6.685-10.122-22.328-13.915-35.004-8.972
				c-8.938,3.485-16.398,9.204-23.72,15.195c-3.181,2.604-3.396,14.076-0.158,16.555c3.845,2.941,7.602,6.025,11.638,8.681
				C469.024,113.556,476.582,117.587,485.68,117.503z M451.836,151.157c-0.34-2.449-0.467-4.951-1.058-7.338
				c-2.841-11.459-10.104-20.328-17.351-29.19c-4.74-0.115-9.479-0.252-14.219-0.296c-0.321-0.003-0.668,0.691-0.972,1.084
				c-2.277,2.939-4.635,5.82-6.8,8.841c-7.322,10.208-13.048,20.857-10.081,34.174c3.409,15.3,15.833,23.219,31.392,19.672
				C445.008,175.31,451.553,165.311,451.836,151.157z M404.071,92.476c0.039-7.079,0.093-7.145-4.618-10.998
				c-2.876-2.353-5.87-4.584-8.949-6.665c-9.436-6.375-19.446-10.396-31.194-7.75c-19.277,4.341-24.242,23.317-17.504,36.726
				c5.805,11.554,20.837,15.88,33.369,12.454c9.018-2.465,16.397-7.991,23.784-13.519C402.877,99.793,405.745,96.888,404.071,92.476
				z M443.339,78.032c14.298-12.747,29.263-22.475,49.583-20.499c0.324-2.759,1.071-5.569,0.912-8.326
				c-1.006-17.414-14.868-26.158-30.014-24.831c-2.42,0.213-3.401,1.275-3.12,3.847c0.965,8.838-1.099,17.157-5.671,24.621
				c-4.509,7.36-9.705,14.299-14.673,21.529C441.037,75.21,442.112,76.528,443.339,78.032z M411.813,109.094
				c-1.817-2.836-3.423-3.67-6.544-0.769c-4.053,3.768-8.694,7.025-13.451,9.889c-9.392,5.653-19.448,9.163-30.72,7.785
				c-0.718-0.088-2.265,1.181-2.31,1.891c-0.234,3.674-0.676,7.48-0.001,11.042c2.781,14.682,16.97,21.888,30.313,19.991
				c0.854-0.122,2.244-1.814,2.13-2.591c-1.475-10.018,1.643-18.976,6.663-27.244C402.059,122.223,407.056,115.861,411.813,109.094z
				 M439.893,109.221c12.768,14.477,23.433,28.897,21.235,48.826c3.351,1.511,6.73,1.606,13.466,0.378
				c13.08-2.383,22.657-17.669,18.92-30.364c-0.256-0.869-1.542-2.144-2.227-2.072c-12.479,1.319-23.419-2.765-33.519-9.539
				c-4.81-3.226-9.293-6.938-14.153-10.604C442.354,106.988,441.192,108.042,439.893,109.221z M359.658,57.544
				c20.223-2.113,35.269,7.715,49.308,20.162c1.519-1.233,2.805-2.277,4.096-3.325c-12.56-14.582-23.556-28.915-21.208-49.331
				c-9.489-2.022-18.054-0.226-25.16,6.346C359.098,38.419,357.234,47.324,359.658,57.544z M323.683,480.808
				c-0.731-3.234-1.772-6.11-1.957-9.041c-0.313-4.978-0.272-10-0.016-14.985c0.151-2.928,0.61-5.965,1.622-8.697
				c2.383-6.434,9.021-11.744,15.04-10.027c5.636,1.608,8.923,5.836,9.019,12.572c0.098,6.871,0.269,13.758-0.096,20.61
				c-0.171,3.21-1.526,6.357-2.339,9.511c3.747,0,8.357,0,12.533,0c-0.953-2.232-2.562-4.353-2.661-6.541
				c-0.322-7.106-0.363-14.253,0.023-21.354c0.264-4.83,1.211-9.941,5.56-12.9c6.767-4.604,16.593-2.588,18.265,7.476
				c1.294,7.791,0.738,15.888,1.018,23.847c0.124,3.523-0.236,6.87-3.929,9.4c5.208,0,9.656,0,13.343,0
				c-0.732-2.457-1.936-4.794-2.041-7.18c-0.294-6.609,0.114-13.252-0.218-19.859c-0.301-6.006-1.208-11.93-7.153-15.504
				c-7.489-4.502-21.963-4.792-25.806,6.888c-0.169,0.515-0.582,0.948-1.033,1.66c-2.678-7.056-7.173-10.961-14.801-11.385
				c-7.608-0.423-12.591,3.303-17.18,10.067c0-3.539,0-5.859,0-8.936c-3.437,1.071-6.343,1.979-8.262,2.576
				c0.963,3.201,2.272,5.731,2.396,8.319c0.316,6.606,0.099,13.24,0.108,19.862c0.006,4.767-0.199,9.482-3.322,13.62
				C316.221,480.808,320.292,480.808,323.683,480.808z M839.317,453.437c-3.088,0-5.983-0.32-8.78,0.067
				c-5.626,0.781-11.324,1.512-16.755,3.082c-5.251,1.519-9.272,5.105-9.898,10.943c-0.462,4.316,1.322,8.145,4.935,10.662
				c5.316,3.706,11.262,4.873,17.714,3.833c5.646-0.91,10.07-3.633,13.256-8.713c0.957,2.863,1.083,6.042,2.685,7.23
				c1.551,1.149,4.62,0.249,6.289,0.249c-0.752-3.38-1.877-6.5-2.06-9.674c-0.346-5.974-0.082-11.979-0.191-17.97
				c-0.188-10.346-4.086-15.616-13.835-17.336c-8.322-1.468-16.608-0.313-24.518,2.799c-0.7,0.275-1.623,1.522-1.492,2.104
				c0.512,2.284,1.404,4.482,2.36,7.316c3.099-8.516,13.345-11.75,21.623-9.778C835.595,439.431,838.779,441.812,839.317,453.437z
				 M129.563,435.395c-14.28-0.035-26.075,10.351-25.812,23.248c0.296,14.499,11.951,23.626,25.181,23.65
				c14.544,0.028,25.158-9.989,25.381-23.745C154.519,445.926,143.011,435.429,129.563,435.395z M210.104,477.925
				c2.387,0.897,4.503,1.923,6.737,2.495c10.348,2.644,20.614,3.637,30.283-2.396c4.818-3.007,6.739-7.539,6.282-13.023
				c-0.384-4.61-3.665-6.896-7.681-8.146c-2.111-0.656-4.378-0.816-6.577-1.186c-4.503-0.756-9.214-0.913-13.463-2.396
				c-5.805-2.025-6.635-10.069-1.323-13.039c3.054-1.706,7.09-2.451,10.632-2.311c5.817,0.231,11.19,2.165,13.443,8.855
				c1.104-2.132,2.014-3.921,2.291-5.804c0.137-0.932-0.639-2.637-1.43-2.967c-6.461-2.692-13.32-3.293-20.149-2.343
				c-3.327,0.463-6.779,1.809-9.624,3.619c-8.22,5.231-7.647,15.674,1.345,19.442c5.016,2.102,10.809,2.366,16.26,3.414
				c3.561,0.685,7.311,1.161,8.865,5.107c2.029,5.153-0.946,10.563-7.078,11.536c-4.799,0.762-9.894,0.625-14.727-0.05
				c-5.252-0.732-8.472-4.67-10.767-10.381C212.161,471.994,211.214,474.724,210.104,477.925z M456.452,453.109
				c11.159,0,22.152,0.002,33.146-0.001c4.95-0.001,5.029-0.337,3.412-5.062c-2.582-7.542-12.156-12.981-22.111-12.741
				c-15.538,0.375-26.43,13.739-22.954,28.795c2.371,10.271,11.654,18.067,21.788,18.297c11.894,0.269,21.918-6.359,24.819-16.464
				c0.224-0.777,0.098-1.654,0.135-2.485c-3.294,5.126-6.054,10.214-11.341,13.268c-5.486,3.167-11.189,3.98-17.101,1.4
				C458.112,474.565,454.029,464.313,456.452,453.109z M413.378,91.834c-0.001,7.261,5.849,13.248,12.84,13.141
				c7.089-0.11,13.178-6.029,13.12-13.05c-0.063-7.611-6.973-13.338-13.088-12.975C418.51,79.408,413.38,84.128,413.378,91.834z
				 M44.153,448.993c0.641-2.182,0.903-3.896,1.632-5.384c1.473-3.009,0.128-4.588-2.593-5.155
				c-5.554-1.159-11.138-2.705-16.754-2.921c-11.102-0.426-20.616,6.882-23.169,16.921c-2.873,11.294,2.136,21.934,11.415,27.01
				c10.842,5.932,25.081,2.628,31.63-7.759c0.502-0.795,0.636-1.822,1.112-3.257c-3.669,3.257-6.485,6.431-9.915,8.663
				c-8.127,5.292-20.17,2.936-24.51-7.052c-2.396-5.519-2.279-11.195-1.745-16.901c0.743-7.927,5.573-13.814,11.864-14.963
				c9.258-1.69,15.588,1.126,19.648,8.727C43.045,447.438,43.419,447.902,44.153,448.993z M747.551,469.177
				c-0.322-0.175-0.646-0.351-0.968-0.526c-0.805,1-1.635,1.981-2.409,3.004c-6.354,8.395-19.029,10.697-26.145,4.879
				c-9.216-7.535-8.721-25.592-2.896-33.017c7.133-9.092,22.354-7.428,27.517,2.763c0.364,0.718,0.848,1.376,1.697,2.737
				c1.003-3.229,1.79-5.763,2.646-8.519c-6.688-4.207-13.936-5.238-21.479-5.104c-15.339,0.275-26.32,15.043-22.043,29.819
				c2.916,10.071,10.145,15.441,20.137,16.979c9.709,1.494,17.189-2.762,22.937-10.381
				C747.088,471.092,747.226,470.063,747.551,469.177z M238.79,255.969c7.169,0.042,12.996-5.479,13.137-12.447
				c0.144-7.084-5.766-13.083-12.92-13.117c-6.74-0.031-13.15,5.962-13.001,12.708C226.182,251.047,233.027,256.488,238.79,255.969z
				 M557.455,441.396c0,1.453,0,2.674,0,3.895c0.002,8.987-0.038,17.975,0.04,26.962c0.016,1.841,0.124,3.834,0.846,5.468
				c0.569,1.289,2.025,2.804,3.302,3.034c2.598,0.47,5.339,0.141,7.38,0.141c-1.325-3.12-3.403-5.983-3.665-9.004
				c-0.813-9.41-1.007-18.879-1.194-28.33c-0.015-0.749,1.767-1.935,2.889-2.215c1.755-0.438,3.658-0.276,5.499-0.368
				c0.011-0.498,0.021-0.996,0.032-1.495c-1.733-0.11-3.48-0.412-5.196-0.286c-2.663,0.195-3.557-0.876-3.406-3.468
				c0.173-3.002,0.04-6.022,0.04-9.035c-0.394-0.12-0.787-0.241-1.181-0.362c-1.283,6.815-6.153,10.696-11.113,14.771
				C553.425,441.188,555.124,441.276,557.455,441.396z M641.18,436.496c-3.607,0.978-6.64,1.8-8.611,2.334
				c0.845,2.84,1.957,4.95,2.02,7.09c0.223,7.602,0.153,15.215,0.062,22.821c-0.053,4.353,0.264,8.907-4.536,11.961
				c5.396,0,10.12,0,14.306,0c-0.859-2.013-2.213-3.908-2.424-5.923c-0.542-5.183-0.702-10.417-0.786-15.635
				C641.092,451.817,641.18,444.485,641.18,436.496z M466.025,430.46c0.17,0.345,0.34,0.69,0.511,1.035
				c1.186-0.158,2.595,0.041,3.521-0.536c4.5-2.802,8.994-5.652,13.189-8.879c0.905-0.697,0.568-3.012,0.804-4.581
				c-1.452-0.002-3.439-0.622-4.267,0.097C475.044,421.708,470.582,426.138,466.025,430.46z M633.228,425.59
				c0.021,0.59,0.042,1.181,0.063,1.77c1.547,1.065,3.265,3.15,4.595,2.927c1.527-0.256,3.56-2.406,3.846-4.007
				c0.432-2.417-1.622-4.472-4.102-4.083C636.025,422.447,634.687,424.399,633.228,425.59z"/>
			<path fill-rule="evenodd" clip-rule="evenodd" d="M126.033,383.161c-14.883,0-29.766,0-44.648,0
				c-0.446-0.474-0.893-0.946-1.338-1.42c0.837-0.176,1.708-0.257,2.506-0.543c5.592-2,7.733-6.696,8.938-11.93
				c0.582-2.528,0.819-5.185,0.829-7.785c0.071-19.249,0.195-38.499-0.026-57.746c-0.086-7.518-2.07-14.627-6.406-21.049
				c-8.145-12.063-27.311-12.191-37.098-3.305c-8.176,7.424-11.714,17.169-13.483,27.563c-3.271,19.206-1.271,38.617-1.45,57.938
				c-0.029,3.107,0.844,6.529,2.319,9.256c1.369,2.529,4.068,4.356,6.251,6.42c0.764,0.723,1.734,1.226,2.221,2.628
				c-13.749,0-27.498,0-41.357,0c0.033-0.482-0.067-1.055,0.098-1.147c6.451-3.577,7.056-9.952,7.164-16.132
				c0.42-24.102,0.558-48.208,0.71-72.313c0.015-2.466-0.34-4.996-0.943-7.39c-1.189-4.723-4.933-6.539-9.541-7.147
				c-0.002-0.42-0.004-0.839-0.006-1.259c9.971-2.462,19.943-4.925,30.443-7.518c0,8.569,0,16.838,0,25.105
				c10.672-23.528,29.539-30.608,53.312-26.931c15.358,2.375,25.187,12.733,29.123,29.105c0.953-2.416,1.599-4.287,2.414-6.08
				c5.128-11.289,13.408-18.861,25.586-22.085c8.34-2.208,16.7-2.664,25.1-0.902c15.193,3.188,23.831,13.187,27.271,27.775
				c1.472,6.24,2.185,12.776,2.307,19.195c0.318,16.619,0.08,33.247,0.158,49.871c0.013,2.725,0.315,5.482,0.816,8.163
				c0.67,3.584,2.989,5.889,6.415,7.11c1.201,0.428,2.37,0.946,3.553,1.424c-0.07,0.325-0.141,0.65-0.211,0.977
				c-14.908,0-29.816,0-45.283,0c0.65-0.897,0.983-1.901,1.557-2.066c7.797-2.243,9.754-8.594,9.933-15.35
				c0.536-20.221,0.88-40.457,0.682-60.682c-0.086-8.837-2.029-17.559-8.495-24.394c-10.305-10.895-29.804-9.471-38.912,2.534
				c-7.192,9.479-10.347,20.401-10.93,31.871c-0.83,16.322-0.669,32.696-0.815,49.05c-0.024,2.714,0.326,5.479,0.884,8.141
				c0.938,4.472,3.506,7.55,8.223,8.545c0.916,0.193,1.717,0.927,2.571,1.411C126.327,382.435,126.18,382.798,126.033,383.161z"/>
			<path fill-rule="evenodd" clip-rule="evenodd" d="M523.655,382.159c0.799-0.452,1.546-1.068,2.402-1.331
				c7.524-2.301,10.972-6.17,11.036-14.185c0.197-24.737,0.242-49.479-0.056-74.214c-0.068-5.783-1.973-11.369-8.53-13.584
				c-0.703-0.237-1.241-0.962-2.243-1.774c10.53-2.243,20.512-4.37,31.13-6.633c0,9.009,0,18.119,0,27.229
				c0.348,0.058,0.696,0.115,1.044,0.173c1.479-3.271,2.807-6.62,4.46-9.8c6.325-12.162,16.779-18.137,30.047-19.938
				c11.221-1.521,22.032-0.508,32.358,4.45c13.636,6.547,20.75,17.992,21.727,32.416c1.179,17.411,0.653,34.937,0.93,52.412
				c0.066,4.231,0.345,8.461,0.602,12.687c0.34,5.617,2.766,9.718,8.478,11.359c0.462,0.133,0.877,0.458,1.288,0.73
				c0.193,0.13,0.326,0.35,0.848,0.928c-15.785,0-31.208,0-46.632,0c-0.099-0.188-0.197-0.377-0.296-0.565
				c0.947-0.438,1.855-1.088,2.852-1.279c4.591-0.884,7.303-3.96,8.237-8.129c1.187-5.297,2.119-10.757,2.231-16.166
				c0.3-14.489,0.384-28.996,0.011-43.482c-0.282-10.914-2.375-21.481-9.634-30.307c-7.222-8.779-16.706-11.234-27.447-9.509
				c-14.107,2.267-20.944,12.428-24.295,24.859c-2.37,8.795-3.445,18.089-3.878,27.219c-0.613,12.965-0.199,25.984-0.006,38.979
				c0.047,3.063,0.576,6.253,1.592,9.135c1.183,3.354,3.588,5.91,7.334,6.827c1.181,0.29,2.282,0.902,3.42,1.366
				c-0.078,0.334-0.154,0.668-0.232,1.002c-16.161,0-32.322,0-48.484,0C523.85,382.742,523.753,382.451,523.655,382.159z"/>
			<path fill-rule="evenodd" clip-rule="evenodd" d="M409.51,299.782c-1.928-6.493-3.929-12.966-5.685-19.505
				c-0.207-0.771,0.688-2.365,1.492-2.796c10.08-5.411,20.902-8.604,32.282-9.25c8.797-0.499,17.662-0.457,26.466-0.024
				c11.014,0.54,21.338,3.74,29.931,10.934c7.28,6.095,10.644,14.293,10.7,23.708c0.111,18.618-0.018,37.238,0.077,55.856
				c0.023,4.596,0.155,9.248,0.902,13.766c0.784,4.74,4.693,7.249,8.935,9.201c-0.122,0.332-0.245,0.664-0.368,0.996
				c-3.031,0.156-6.062,0.395-9.094,0.448c-4.373,0.077-8.754-0.13-13.118,0.07c-2.897,0.133-4.422-1.032-5.086-3.743
				c-1.407-5.742-2.875-11.469-4.294-17.112c-2.302,3.28-4.526,6.991-7.275,10.261c-6.915,8.229-15.914,12.256-26.626,13.249
				c-12.258,1.135-23.804-0.724-34.604-6.628c-13.694-7.486-20.237-24.296-14.919-38.753c3.628-9.86,11.718-15.21,20.96-18.855
				c11.157-4.4,22.861-6.6,34.839-6.936c8.951-0.252,17.915-0.05,26.722-0.05c1.998-13.57-1.584-31.121-12.436-37.773
				c-6.775-4.154-14.127-5.427-21.829-4.958c-4.064,0.247-8.161,0.89-12.116,1.871c-11.497,2.854-18.255,10.975-22.878,21.3
				c-0.698,1.56-1.342,3.144-2.011,4.716C410.154,299.777,409.831,299.779,409.51,299.782z M482.395,328.872
				c0-2.497-0.123-5.003,0.034-7.491c0.158-2.512-0.91-3.289-3.299-3.181c-7.219,0.328-14.49,0.105-21.655,0.889
				c-8.304,0.907-16.381,3.108-23.146,8.422c-9.143,7.181-12.07,16.952-11.472,28.169c0.778,14.59,12.113,25.024,26.858,24.839
				c12.8-0.162,21.566-7.017,26.82-18.55C481.334,351.436,482.37,340.246,482.395,328.872z"/>
			<path fill-rule="evenodd" clip-rule="evenodd" d="M789.685,338.846c-4.78,22.633-20.22,41.253-43.872,45.913
				c-20.786,4.095-40.104,0.155-56.911-13.33c-10.726-8.605-17.264-19.97-19.504-33.404c-3.481-20.877,1.728-39.35,17.493-54.021
				c10.235-9.525,22.728-14.235,36.579-15.973c12.357-1.549,24.093,0.182,35.23,5.46c15.995,7.579,26.041,19.813,28.601,38.319
				c-1.712,0.083-3.132,0.211-4.554,0.212c-28.127,0.013-56.256,0.068-84.384-0.066c-3.434-0.017-4.584,1.011-4.646,4.403
				c-0.209,11.369-0.381,22.712,3.028,33.744c4.836,15.649,14.24,26.983,31.038,29.637c19.541,3.087,35.533-4.014,47.04-19.992
				c3.984-5.533,6.482-12.184,9.322-18.476C785.366,338.568,786.717,337.593,789.685,338.846z M760.066,307.134
				c-0.316-2.905-0.514-5.37-0.864-7.814c-1.307-9.108-4.754-17.353-12.761-22.269c-14.692-9.02-34.428-7.187-44.464,10.011
				c-3.596,6.162-5.865,12.704-6.777,20.072C716.887,307.134,738.189,307.134,760.066,307.134z"/>
			<path fill-rule="evenodd" clip-rule="evenodd" d="M802.581,382.206c1.116-0.645,2.198-1.358,3.354-1.923
				c6.357-3.102,9.465-8.417,9.49-15.24c0.142-38.623,0.109-77.246,0.153-115.869c0.007-6.434-1.715-11.596-9.021-12.907
				c-0.295-0.053-0.528-0.454-1.833-1.642c11.625-2.721,22.421-5.25,33.7-7.889c0,1.914,0,3.389,0,4.864
				c0.003,42.124,0.003,84.247,0.018,126.371c0.001,2.622-0.063,5.267,0.227,7.864c0.822,7.359,4.184,12.924,11.512,15.52
				c0.51,0.181,0.91,0.668,2.222,1.669c-17.16,0-33.312,0-49.462,0C802.82,382.751,802.701,382.479,802.581,382.206z"/>
			<path fill-rule="evenodd" clip-rule="evenodd" d="M335.864,382.297c1.063-0.621,2.087-1.321,3.192-1.852
				c6.645-3.188,9.783-8.654,9.802-15.808c0.104-38.244,0.114-76.489,0.1-114.732c0-2.211-0.403-4.44-0.795-6.63
				c-0.58-3.235-2.556-5.259-5.725-6.186c-1.215-0.355-2.371-0.915-3.554-1.381c0.018-0.438,0.037-0.875,0.055-1.312
				c10.567-2.464,21.135-4.929,32.336-7.542c0.153,1.667,0.429,3.289,0.43,4.911c0.025,41.12-0.004,82.239,0.056,123.358
				c0.006,4.471,0.298,8.961,0.795,13.404c0.688,6.146,4.399,10.025,10,12.307c0.833,0.34,1.536,0.999,2.08,2.241
				c-16.14,0-32.28,0-48.42,0C336.099,382.815,335.981,382.557,335.864,382.297z"/>
			<path fill-rule="evenodd" clip-rule="evenodd" d="M276.058,382.396c1.33-0.815,2.622-1.704,3.997-2.436
				c4.958-2.638,7.925-6.754,8.73-12.248c0.522-3.562,0.781-7.192,0.787-10.793c0.057-33.246,0.059-66.492,0.001-99.738
				c-0.007-3.98-0.223-7.995-0.778-11.933c-0.583-4.137-2.355-7.595-7.104-8.458c-0.908-0.165-1.724-0.836-2.582-1.273
				c-0.029-0.371-0.058-0.74-0.086-1.111c10.765-2.51,21.529-5.02,32.859-7.662c0,1.946-0.001,3.523,0,5.1
				c0.022,43.495,0.063,86.988,0.052,130.482c-0.002,8.902,3.021,15.791,11.911,19.097c0.41,0.153,0.732,0.541,2.012,1.521
				c-17.145,0-33.26,0-49.375,0C276.339,382.762,276.199,382.579,276.058,382.396z"/>
			<path fill-rule="evenodd" clip-rule="evenodd" d="M264.822,383.13c-16.131,0-32.263,0-49.21,0
				c0.982-1.039,1.528-2.168,2.268-2.313c7.176-1.419,9.786-6.669,10.881-13.005c0.59-3.416,0.792-6.936,0.803-10.409
				c0.07-21.236,0.164-42.476-0.088-63.71c-0.043-3.664-0.996-7.734-2.849-10.827c-1.461-2.438-4.951-3.66-7.46-5.367
				c10.596-2.374,21.453-4.807,32.773-7.343c0,2.003,0,3.478,0,4.952c0.003,28.107-0.054,56.216,0.078,84.322
				c0.019,4.059,0.645,8.178,1.524,12.151c1.037,4.686,4.04,7.831,8.866,9.077c0.994,0.258,1.848,1.054,2.767,1.602
				C265.058,382.55,264.939,382.84,264.822,383.13z"/>
			<path fill-rule="evenodd" clip-rule="evenodd" d="M451.499,33.099c0.434,9.089-3.852,16.513-8.473,23.807
				c-0.796,1.255-1.788,2.384-2.636,3.608c-6.67,9.634-7.971,10.329-19.335,9.977c-0.613-0.019-1.361-0.49-1.787-0.978
				c-7.542-8.629-14.647-17.627-17.709-28.904c-3.369-12.408,1.407-27.427,13.351-33.188c16.465-7.943,35.634,3.296,36.58,21.558
				C451.561,30.349,451.499,31.726,451.499,33.099z"/>
			<path fill-rule="evenodd" clip-rule="evenodd" d="M485.68,117.503c-9.098,0.084-16.655-3.947-23.876-8.698
				c-4.036-2.656-7.793-5.74-11.638-8.681c-3.238-2.479-3.022-13.952,0.158-16.555c7.321-5.991,14.782-11.71,23.72-15.195
				c12.676-4.942,28.319-1.15,35.004,8.972c9.118,13.806,4.434,34.11-15.27,39.035C491.149,117.038,488.383,117.143,485.68,117.503z
				"/>
			<path fill-rule="evenodd" clip-rule="evenodd" d="M451.836,151.157c-0.283,14.154-6.828,24.152-19.088,26.947
				c-15.558,3.546-27.983-4.372-31.392-19.672c-2.967-13.317,2.759-23.967,10.081-34.174c2.166-3.021,4.523-5.901,6.8-8.841
				c0.304-0.394,0.65-1.087,0.972-1.084c4.74,0.043,9.479,0.181,14.219,0.296c7.246,8.862,14.51,17.731,17.351,29.19
				C451.369,146.206,451.496,148.708,451.836,151.157z"/>
			<path fill-rule="evenodd" clip-rule="evenodd" d="M404.071,92.476c1.674,4.412-1.194,7.317-5.112,10.248
				c-7.387,5.527-14.766,11.054-23.784,13.519c-12.532,3.426-27.563-0.899-33.369-12.454c-6.738-13.409-1.772-32.384,17.504-36.726
				c11.748-2.646,21.758,1.375,31.194,7.75c3.08,2.081,6.073,4.312,8.949,6.665C404.165,85.331,404.11,85.396,404.071,92.476z"/>
			<path fill-rule="evenodd" clip-rule="evenodd" d="M443.339,78.032c-1.227-1.504-2.302-2.822-2.982-3.658
				c4.968-7.23,10.164-14.169,14.673-21.529c4.572-7.464,6.636-15.783,5.671-24.621c-0.281-2.571,0.7-3.634,3.12-3.847
				c15.146-1.328,29.008,7.417,30.014,24.831c0.159,2.756-0.588,5.566-0.912,8.326C472.602,55.557,457.637,65.286,443.339,78.032z"
				/>
			<path fill-rule="evenodd" clip-rule="evenodd" d="M411.813,109.094c-4.757,6.767-9.754,13.128-13.921,19.994
				c-5.02,8.269-8.137,17.226-6.663,27.244c0.114,0.777-1.276,2.469-2.13,2.591c-13.343,1.897-27.533-5.309-30.313-19.991
				c-0.675-3.562-0.232-7.368,0.001-11.042c0.044-0.709,1.591-1.979,2.31-1.891c11.272,1.378,21.328-2.132,30.72-7.785
				c4.757-2.864,9.398-6.121,13.451-9.889C408.39,105.424,409.996,106.258,411.813,109.094z"/>
			<path fill-rule="evenodd" clip-rule="evenodd" d="M439.893,109.221c1.3-1.179,2.462-2.233,3.723-3.375
				c4.86,3.666,9.344,7.378,14.153,10.604c10.1,6.774,21.039,10.858,33.519,9.539c0.685-0.072,1.971,1.203,2.227,2.072
				c3.737,12.695-5.84,27.981-18.92,30.364c-6.735,1.228-10.115,1.133-13.471-0.376C463.325,138.118,452.66,123.698,439.893,109.221
				z"/>
			<path fill-rule="evenodd" clip-rule="evenodd" d="M359.658,57.544c-2.423-10.22-0.56-19.125,7.036-26.148
				c7.105-6.571,15.671-8.368,25.16-6.346c-2.348,20.416,8.647,34.75,21.208,49.331c-1.291,1.047-2.577,2.092-4.096,3.325
				C394.927,65.259,379.881,55.431,359.658,57.544z"/>
			<path fill-rule="evenodd" clip-rule="evenodd" d="M323.683,480.808c-3.39,0-7.461,0-11.886,0
				c3.123-4.138,3.328-8.854,3.322-13.62c-0.009-6.622,0.208-13.256-0.108-19.862c-0.125-2.588-1.433-5.118-2.396-8.319
				c1.918-0.598,4.825-1.505,8.262-2.576c0,3.076,0,5.396,0,8.936c4.589-6.765,9.572-10.49,17.18-10.067
				c7.628,0.424,12.123,4.329,14.801,11.385c0.452-0.712,0.864-1.146,1.033-1.66c3.843-11.68,18.317-11.39,25.806-6.888
				c5.945,3.574,6.852,9.498,7.153,15.504c0.332,6.607-0.076,13.25,0.218,19.859c0.105,2.386,1.309,4.723,2.041,7.18
				c-3.688,0-8.136,0-13.343,0c3.693-2.53,4.053-5.877,3.929-9.4c-0.28-7.959,0.276-16.056-1.018-23.847
				c-1.672-10.063-11.499-12.08-18.265-7.476c-4.349,2.959-5.296,8.07-5.56,12.9c-0.387,7.101-0.345,14.247-0.023,21.354
				c0.099,2.188,1.708,4.309,2.661,6.541c-4.176,0-8.786,0-12.533,0c0.813-3.153,2.168-6.301,2.339-9.511
				c0.365-6.853,0.193-13.739,0.096-20.61c-0.095-6.736-3.383-10.964-9.019-12.572c-6.019-1.717-12.656,3.594-15.04,10.027
				c-1.012,2.732-1.471,5.77-1.622,8.697c-0.256,4.985-0.297,10.008,0.016,14.985C321.91,474.697,322.952,477.573,323.683,480.808z"
				/>
			<path fill-rule="evenodd" clip-rule="evenodd" d="M839.317,453.437c-0.538-11.625-3.723-14.006-8.668-15.184
				c-8.278-1.972-18.524,1.263-21.623,9.778c-0.956-2.834-1.849-5.032-2.36-7.316c-0.131-0.582,0.792-1.829,1.492-2.104
				c7.909-3.111,16.195-4.267,24.518-2.799c9.749,1.72,13.647,6.99,13.835,17.336c0.109,5.99-0.154,11.996,0.191,17.97
				c0.183,3.174,1.308,6.294,2.06,9.674c-1.669,0-4.738,0.9-6.289-0.249c-1.602-1.188-1.728-4.367-2.685-7.23
				c-3.186,5.08-7.609,7.803-13.256,8.713c-6.452,1.04-12.397-0.127-17.714-3.833c-3.612-2.518-5.396-6.346-4.935-10.662
				c0.626-5.838,4.647-9.425,9.898-10.943c5.431-1.57,11.129-2.301,16.755-3.082C833.334,453.116,836.229,453.437,839.317,453.437z
				 M839.51,456.332c-5.046,0-9.577-0.464-13.967,0.121c-5.093,0.68-10.104,2.303-12.394,7.718
				c-2.32,5.49-0.192,11.576,4.763,14.114c6.176,3.163,15.138,1.354,18.136-3.621C839.426,469.057,839.146,462.827,839.51,456.332z"
				/>
			<path fill-rule="evenodd" clip-rule="evenodd" d="M129.563,435.395c13.449,0.034,24.956,10.531,24.75,23.153
				c-0.224,13.756-10.837,23.773-25.381,23.745c-13.23-0.024-24.885-9.151-25.181-23.65
				C103.487,445.745,115.282,435.359,129.563,435.395z M146.265,458.645c-0.664-3.467-0.979-7.226-2.131-10.708
				c-2.708-8.192-8.133-9.947-15.077-10.342c-6.96-0.396-13.514,3.922-15.036,10.398c-1.256,5.347-1.656,11.056-1.407,16.557
				c0.375,8.277,6.261,14.214,13.844,15.128c8.7,1.048,15.275-2.627,17.929-10.534C145.474,465.911,145.63,462.366,146.265,458.645z
				"/>
			<path fill-rule="evenodd" clip-rule="evenodd" d="M210.104,477.925c1.11-3.201,2.057-5.931,3.319-9.57
				c2.295,5.711,5.515,9.648,10.767,10.381c4.833,0.675,9.928,0.812,14.727,0.05c6.132-0.974,9.106-6.383,7.078-11.536
				c-1.554-3.946-5.304-4.423-8.865-5.107c-5.451-1.048-11.244-1.313-16.26-3.414c-8.992-3.769-9.565-14.211-1.345-19.442
				c2.845-1.811,6.297-3.156,9.624-3.619c6.829-0.95,13.688-0.35,20.149,2.343c0.791,0.33,1.567,2.035,1.43,2.967
				c-0.277,1.883-1.187,3.672-2.291,5.804c-2.253-6.69-7.626-8.624-13.443-8.855c-3.542-0.141-7.578,0.604-10.632,2.311
				c-5.313,2.97-4.482,11.014,1.323,13.039c4.249,1.483,8.96,1.641,13.463,2.396c2.199,0.369,4.466,0.529,6.577,1.186
				c4.016,1.249,7.297,3.535,7.681,8.146c0.457,5.484-1.464,10.017-6.282,13.023c-9.669,6.032-19.936,5.039-30.283,2.396
				C214.607,479.848,212.491,478.822,210.104,477.925z"/>
			<path fill-rule="evenodd" clip-rule="evenodd" d="M456.452,453.109c-2.423,11.204,1.66,21.456,9.793,25.007
				c5.911,2.58,11.614,1.767,17.101-1.4c5.287-3.054,8.047-8.142,11.341-13.268c-0.037,0.831,0.089,1.708-0.135,2.485
				c-2.901,10.104-12.926,16.732-24.819,16.464c-10.134-0.229-19.417-8.025-21.788-18.297c-3.476-15.056,7.416-28.42,22.954-28.795
				c9.955-0.24,19.529,5.199,22.111,12.741c1.617,4.725,1.538,5.061-3.412,5.062C478.604,453.111,467.611,453.109,456.452,453.109z
				 M456.789,450.238c9.643,0,19.064,0,28.467,0c0.595-7.974-5.2-11.777-12.726-12.683
				C465.008,436.651,458.244,442.052,456.789,450.238z"/>
			<path fill-rule="evenodd" clip-rule="evenodd" d="M413.378,91.834c0.001-7.706,5.132-12.426,12.873-12.884
				c6.115-0.363,13.024,5.364,13.088,12.975c0.058,7.021-6.031,12.94-13.12,13.05C419.228,105.082,413.377,99.095,413.378,91.834z"
				/>
			<path fill-rule="evenodd" clip-rule="evenodd" d="M44.153,448.993c-0.734-1.091-1.108-1.555-1.384-2.071
				c-4.06-7.601-10.391-10.417-19.648-8.727c-6.292,1.148-11.122,7.036-11.864,14.963c-0.535,5.706-0.652,11.383,1.745,16.901
				c4.339,9.987,16.383,12.344,24.51,7.052c3.43-2.232,6.246-5.406,9.915-8.663c-0.476,1.435-0.61,2.462-1.112,3.257
				c-6.55,10.387-20.789,13.69-31.63,7.759c-9.279-5.076-14.287-15.716-11.415-27.01c2.553-10.039,12.068-17.347,23.169-16.921
				c5.616,0.216,11.2,1.762,16.754,2.921c2.721,0.567,4.065,2.146,2.593,5.155C45.057,445.097,44.794,446.812,44.153,448.993z"/>
			<path fill-rule="evenodd" clip-rule="evenodd" d="M747.551,469.177c-0.325,0.887-0.463,1.915-1.007,2.636
				c-5.747,7.619-13.228,11.875-22.937,10.381c-9.992-1.538-17.221-6.908-20.137-16.979c-4.277-14.776,6.704-29.544,22.043-29.819
				c7.544-0.135,14.791,0.896,21.479,5.104c-0.856,2.756-1.644,5.289-2.646,8.519c-0.85-1.361-1.333-2.02-1.697-2.737
				c-5.162-10.19-20.384-11.854-27.517-2.763c-5.824,7.425-6.319,25.481,2.896,33.017c7.115,5.818,19.791,3.516,26.145-4.879
				c0.774-1.022,1.604-2.004,2.409-3.004C746.905,468.826,747.229,469.002,747.551,469.177z"/>
			<path fill-rule="evenodd" clip-rule="evenodd" d="M238.79,255.969c-5.763,0.52-12.608-4.922-12.784-12.855
				c-0.149-6.747,6.261-12.739,13.001-12.708c7.154,0.033,13.064,6.032,12.92,13.117C251.786,250.49,245.959,256.011,238.79,255.969
				z"/>
			<path fill-rule="evenodd" clip-rule="evenodd" d="M557.455,441.396c-2.331-0.119-4.03-0.207-5.729-0.294
				c4.96-4.074,9.83-7.955,11.113-14.771c0.394,0.121,0.787,0.242,1.181,0.362c0,3.013,0.133,6.033-0.04,9.035
				c-0.15,2.592,0.743,3.663,3.406,3.468c1.716-0.126,3.463,0.176,5.196,0.286c-0.012,0.499-0.021,0.997-0.032,1.495
				c-1.841,0.092-3.744-0.069-5.499,0.368c-1.122,0.28-2.903,1.466-2.889,2.215c0.188,9.451,0.382,18.92,1.194,28.33
				c0.262,3.021,2.34,5.884,3.665,9.004c-2.041,0-4.782,0.329-7.38-0.141c-1.276-0.23-2.732-1.745-3.302-3.034
				c-0.722-1.634-0.83-3.627-0.846-5.468c-0.078-8.987-0.038-17.975-0.04-26.962C557.455,444.069,557.455,442.849,557.455,441.396z"
				/>
			<path fill-rule="evenodd" clip-rule="evenodd" d="M641.18,436.496c0,7.989-0.088,15.321,0.029,22.648
				c0.084,5.218,0.244,10.452,0.786,15.635c0.211,2.015,1.564,3.91,2.424,5.923c-4.186,0-8.909,0-14.306,0
				c4.8-3.054,4.483-7.608,4.536-11.961c0.092-7.606,0.161-15.22-0.062-22.821c-0.063-2.14-1.175-4.25-2.02-7.09
				C634.54,438.296,637.572,437.474,641.18,436.496z"/>
			<path fill-rule="evenodd" clip-rule="evenodd" d="M466.025,430.46c4.557-4.322,9.019-8.752,13.758-12.864
				c0.827-0.719,2.814-0.099,4.267-0.097c-0.235,1.569,0.102,3.884-0.804,4.581c-4.195,3.227-8.689,6.077-13.189,8.879
				c-0.926,0.577-2.335,0.378-3.521,0.536C466.365,431.15,466.195,430.805,466.025,430.46z"/>
			<path fill-rule="evenodd" clip-rule="evenodd" d="M633.228,425.59c1.459-1.19,2.798-3.143,4.402-3.394
				c2.479-0.389,4.533,1.666,4.102,4.083c-0.286,1.601-2.318,3.751-3.846,4.007c-1.33,0.224-3.048-1.861-4.595-2.927
				C633.27,426.771,633.249,426.18,633.228,425.59z"/>
			<path fill-rule="evenodd" clip-rule="evenodd" fill="#FFFFFF" d="M482.395,328.872c-0.024,11.374-1.061,22.563-5.859,33.097
				c-5.254,11.533-14.021,18.388-26.82,18.55c-14.745,0.186-26.081-10.249-26.858-24.839c-0.599-11.217,2.329-20.988,11.472-28.169
				c6.766-5.313,14.843-7.515,23.146-8.422c7.165-0.783,14.437-0.561,21.655-0.889c2.389-0.108,3.457,0.669,3.299,3.181
				C482.271,323.869,482.395,326.375,482.395,328.872z"/>
			<path fill-rule="evenodd" clip-rule="evenodd" fill="#FFFFFF" d="M760.066,307.134c-21.877,0-43.18,0-64.866,0
				c0.912-7.368,3.182-13.91,6.777-20.072c10.036-17.197,29.771-19.03,44.464-10.011c8.007,4.916,11.454,13.16,12.761,22.269
				C759.553,301.764,759.75,304.229,760.066,307.134z"/>
			<path fill-rule="evenodd" clip-rule="evenodd" fill="#FFFFFF" d="M839.51,456.332c-0.363,6.495-0.084,12.725-3.462,18.332
				c-2.998,4.976-11.96,6.784-18.136,3.621c-4.955-2.538-7.083-8.624-4.763-14.114c2.289-5.415,7.301-7.038,12.394-7.718
				C829.933,455.868,834.464,456.332,839.51,456.332z"/>
			<path fill-rule="evenodd" clip-rule="evenodd" fill="#FFFFFF" d="M146.265,458.645c-0.634,3.722-0.791,7.267-1.876,10.499
				c-2.654,7.907-9.229,11.582-17.929,10.534c-7.583-0.914-13.469-6.851-13.844-15.128c-0.25-5.501,0.151-11.21,1.407-16.557
				c1.521-6.477,8.075-10.795,15.036-10.398c6.943,0.395,12.369,2.149,15.077,10.342
				C145.285,451.419,145.601,455.178,146.265,458.645z"/>
			<path fill-rule="evenodd" clip-rule="evenodd" fill="#FFFFFF" d="M456.789,450.238c1.455-8.187,8.219-13.587,15.741-12.683
				c7.525,0.905,13.32,4.709,12.726,12.683C475.854,450.238,466.432,450.238,456.789,450.238z"/>
		</g>
	</g>
</g>
</svg>
