<?xml version="1.0" encoding="utf-8"?>
<!-- Generator: Adobe Illustrator 16.0.0, SVG Export Plug-In . SVG Version: 6.00 Build 0)  -->
<!DOCTYPE svg PUBLIC "-//W3C//DTD SVG 1.1//EN" "http://www.w3.org/Graphics/SVG/1.1/DTD/svg11.dtd">
<svg version="1.1" id="Capa_1" xmlns="http://www.w3.org/2000/svg" xmlns:xlink="http://www.w3.org/1999/xlink" x="0px" y="0px"
	 width="3687.369px" height="792.079px" viewBox="0 0 3687.369 792.079" enable-background="new 0 0 3687.369 792.079"
	 xml:space="preserve">
<g>
	<defs>
		<rect id="SVGID_1_" width="3684.567" height="792.079"/>
	</defs>
	<clipPath id="SVGID_2_">
		<use xlink:href="#SVGID_1_"  overflow="visible"/>
	</clipPath>
	<g clip-path="url(#SVGID_2_)">
		<path fill-rule="evenodd" clip-rule="evenodd" fill="#FFFFFF" d="M3837.917,922.364c-1320.684,0-2641.368,0-3962.051,0
			c0-341.547,0-683.094,0-1024.642c1320.684-0.001,2641.367-0.001,3962.051-0.001
			C3837.917,239.269,3837.917,580.817,3837.917,922.364z M1086.124,415.561c-0.88-28.957-1.45-57.928-2.728-86.867
			c-1.256-28.428-5.116-56.616-10.056-84.617c-3.294-18.671-7.007-37.268-13.319-55.271c-4.125-11.77-6.741-24.078-11.025-35.782
			c-9.033-24.679-19.962-48.563-34.592-70.469c-7.605-11.388-16.074-22.278-24.941-32.725c-10.682-12.585-25.04-20.379-39.313-28.3
			c-17.462-9.691-36.397-12.235-55.706-12.095c-14.44,0.104-28.677,2.75-42.763,6.624c-30.852,8.486-57.231,24.287-80.365,46.103
			c-28.173,26.568-46.925,59.6-63.738,93.747c-13.002,26.408-23.938,53.761-33.11,81.823c-8.058,24.657-16.981,49.038-25.814,73.436
			c-5.369,14.828-12.243,29.005-21.724,41.681c-16.458,22.002-38.549,33.24-66.086,33.921c-16.354,0.403-32.082-1.79-47.536-7.647
			c-9.011-3.417-17.297-8.154-24.622-13.699c-13.321-10.084-25.233-22.032-34.943-35.842c-8.906-12.666-17.997-25.23-26.291-38.293
			c-21.953-34.579-42.727-69.917-67.923-102.354c-11.35-14.612-23.35-28.638-36.693-41.42
			c-11.867-11.367-24.652-21.523-38.938-29.99c-13.532-8.021-27.792-13.667-42.985-16.71c-18.83-3.771-37.855-2.65-56.509,1.427
			c-36.682,8.018-68.14,25.571-93.309,53.648c-19.59,21.854-33.245,47.234-43.77,74.54c-10.454,27.12-18.179,54.987-24.27,83.325
			c-7.568,35.214-11.982,70.81-13.934,106.834c-1.889,34.841-0.833,69.496,3.663,103.971
			c7.324,56.159,20.846,110.879,40.767,163.962c9.233,24.602,19.876,48.589,32.515,71.604c4.146,7.55,9.77,14.516,15.739,20.775
			c6.015,6.309,13.313,11.523,22.152,13.452c11.523,2.516,22.845,1.326,33.751-3.142c9.475-3.883,16.768-10.517,20.017-20.147
			c2.93-8.683,5.123-17.833,3.793-27.236c-1.536-10.856-2.736-21.801-5.042-32.5c-4.584-21.275-11.525-41.879-19.183-62.24
			c-6.677-17.757-14.077-35.294-19.689-53.384c-7.172-23.115-13.396-46.561-19.067-70.095c-6.597-27.375-9.226-55.203-5.624-83.342
			c1.229-9.598,1.354-19.435,5.943-28.355c3.167-6.156,8.188-8.839,14.742-7.155c2.851,0.731,5.63,2.045,8.199,3.517
			c14.866,8.514,27.802,19.49,39.72,31.704c25.849,26.489,45.816,57.304,64.508,88.947c15.76,26.679,30.456,53.984,46.097,80.735
			c19.491,33.335,41.815,64.591,69.181,92.078c43.273,43.468,95.638,64.911,156.791,65.204c6.979,0.033,14.046-0.287,20.926-1.374
			c15.753-2.489,31.541-5.007,47.079-8.544c14.622-3.329,28.571-8.912,41.278-17.106c11.063-7.136,22.645-13.668,32.852-21.89
			c22.124-17.817,37.52-41.193,50.953-65.873c13.429-24.671,22.724-51.104,31.366-77.681
			c10.955-33.689,20.842-67.726,31.272-101.586c7.731-25.1,17.317-49.428,30.077-72.461c13.32-24.043,29.632-45.525,50.847-63.312
			c16.165-13.553,33.564-25.165,51.781-35.612c6.677-3.83,13.771-7.032,20.921-9.911c8.424-3.393,14.612-0.714,18.373,7.571
			c1.316,2.901,2.326,6.133,2.589,9.287c1.476,17.651,3.075,35.306,3.894,52.993c1.678,36.245,0.05,72.435-2.696,108.59
			c-1.398,18.414-2.795,36.838-3.631,55.283c-0.816,18.031,1.621,35.907,4.853,53.579c1.83,10,4.109,20.206,8.169,29.448
			c7.826,17.812,18.893,32.264,41.203,32.933c24.798,0.745,44.276-7.776,56.899-29.808c1.358-2.369,2.937-4.736,3.671-7.316
			c1.938-6.806,2.844-13.96,5.284-20.559c6.303-17.044,8.776-34.863,11.234-52.646
			C1082.665,494.024,1085.484,454.899,1086.124,415.561z M1553.743,294.419c-10.006-11.059-21.713-18.302-35.015-22.326
			c-11.659-3.528-23.647-6.341-35.688-8.149c-20.844-3.131-41.927-2.26-62.893-1.273c-16.516,0.779-32.714,4.023-48.246,9.991
			c-23.413,8.995-42.512,23.105-54.065,46.009c-6.993,13.865-9.816,28.877-10.604,44.156c-0.887,17.215-1.052,34.479-1.09,51.724
			c-0.125,57.5-0.064,115.002-0.047,172.503c0.003,11.006,1.652,12.64,12.465,12.655c14.25,0.021,28.502,0.007,42.752,0.006
			c14.977-0.002,15.253-0.281,15.268-14.935c0.054-54.752-0.025-109.506,0.251-164.258c0.088-17.483,0.33-35.033,1.917-52.423
			c2.123-23.258,13.979-35.897,36.739-41.42c16.494-4.002,33.241-3.853,49.941-2.069c6.891,0.735,13.843,2.334,20.384,4.629
			c18.409,6.463,28.271,19.902,29.729,39.273c0.825,10.96,1.444,21.965,1.473,32.951c0.159,62.253,0.099,124.507,0.147,186.76
			c0.007,9.618,1.829,11.441,11.332,11.476c14.75,0.053,29.506-0.208,44.251,0.081c13.385,0.263,15.165-0.888,15.132-15.332
			c-0.133-58.253-0.183-116.507,0.144-174.759c0.089-15.715,0.989-31.487,2.664-47.111c1.447-13.501,9.135-23.668,21.23-29.963
			c4.827-2.512,10.071-4.486,15.35-5.814c16.698-4.202,33.724-4.141,50.656-2.091c7.6,0.919,15.303,2.814,22.402,5.657
			c14.567,5.833,23.581,16.977,25.375,32.648c1.589,13.875,2.455,27.903,2.522,41.87c0.293,59.752,0.171,119.506,0.202,179.259
			c0,2.25-0.076,4.504,0.029,6.75c0.305,6.478,2.219,8.688,8.588,8.745c17.75,0.158,35.502,0.138,53.252,0.017
			c5.707-0.039,8.065-2.492,8.599-8.162c0.162-1.736,0.079-3.498,0.079-5.247c0.003-67.255,0.146-134.509-0.129-201.761
			c-0.051-12.449-1.137-24.984-2.885-37.318c-4.03-28.427-18.543-50.234-43.247-65.098c-14.316-8.614-29.876-13.879-46.251-16.713
			c-27.303-4.727-54.793-4.38-82.204-1.589C1597.912,266.451,1573.229,273.754,1553.743,294.419z M2161.954,434.185
			c0-6.5,0.214-13.008-0.037-19.498c-0.934-24.02-3.296-47.823-10.064-71.053c-11.848-40.668-38.59-65.425-79.484-75.426
			c-30.513-7.462-61.455-6.985-92.451-5.01c-14.252,0.908-28.234,3.627-41.822,8.148c-29.315,9.755-50.79,28.174-63.021,56.894
			c-5.618,13.191-9.1,26.967-11.392,41.048c-4.8,29.5-5.162,59.239-3.958,88.996c0.901,22.255,3.361,44.334,9.791,65.814
			c6.771,22.621,18.083,42.173,37.407,56.436c14.987,11.06,32.044,17.148,50.108,20.834c22.207,4.531,44.687,4.747,67.201,4.262
			c16.284-0.352,32.433-2.074,48.248-6.078c23.594-5.973,44.332-16.765,59.787-36.229c11.604-14.613,18.015-31.575,22.3-49.47
			C2160.837,487.66,2162.117,460.979,2161.954,434.185z M3381.669,396.98c-1.927-0.246-3.376-0.366-4.802-0.624
			c-26.637-4.808-53.467-7.268-80.543-6.249c-19.314,0.727-38.261,3.668-56.497,10.395c-29.411,10.851-50.089,30.389-60.063,60.495
			c-5.521,16.663-6.338,33.898-4.752,51.155c2.765,30.081,16.076,54.304,41.767,70.978c14.657,9.513,30.935,14.994,47.995,18.355
			c25.207,4.967,50.701,5.157,76.164,3.749c21.103-1.168,41.414-6.274,60.506-15.743c22.763-11.29,38.284-28.858,44.657-53.465
			c3.173-12.247,5.648-25.032,5.876-37.62c0.742-40.974,0.569-81.972,0.186-122.955c-0.152-16.311-3.409-32.278-9.687-47.47
			c-11.006-26.628-31.353-43.336-57.552-53.587c-21.928-8.579-45.006-11.172-68.297-12.067c-33.342-1.28-66.395,1.694-99.221,7.466
			c-6.713,1.181-8.791,3.073-8.916,9.827c-0.254,13.741-0.247,27.492-0.008,41.234c0.107,6.138,2.381,7.773,8.746,7.124
			c4.717-0.481,9.396-1.321,14.099-1.951c30.033-4.025,60.147-6.333,90.438-3.586c10.708,0.972,21.293,2.747,31.292,7.057
			c11.069,4.77,19.342,12.458,23.787,23.684C3382.389,367.183,3382.561,381.858,3381.669,396.98z M2346.847,530.803
			c-0.908-0.621-1.427-0.79-1.623-1.14c-0.976-1.742-1.925-3.504-2.778-5.309c-36.851-77.967-60.902-159.458-67.613-245.718
			c-0.684-8.79-2.098-10.222-11.053-10.291c-12.5-0.096-25.002-0.031-37.502-0.03c-6,0-12.004-0.12-18,0.053
			c-6.404,0.184-8.363,2.426-8.066,8.922c0.113,2.492,0.582,4.966,0.771,7.457c4.104,54.156,15.923,106.628,34.217,157.712
			c18.502,51.66,42.828,100.637,68.319,149.094c3.041,5.781,7.26,8.294,13.771,8.227c19.248-0.197,38.504-0.236,57.75,0.027
			c6.311,0.086,10.255-2.307,13.155-7.813c34.19-64.911,64.319-131.519,84.314-202.326c10.003-35.429,16.965-71.437,19.207-108.269
			c0.743-12.198,0.086-13.067-11.825-13.08c-16.251-0.018-32.502-0.016-48.752,0c-11.8,0.011-12.226,0.614-13.551,12.635
			c-1.887,17.124-3.509,34.307-6.222,51.308c-10.708,67.086-31.963,130.882-61.021,192.168
			C2349.316,526.601,2348.035,528.652,2346.847,530.803z M2818.893,262.054c-23.352-0.057-46.457,1.683-68.757,9.305
			c-24.021,8.211-42.54,22.922-53.513,46.179c-8.952,18.973-10.305,38.989-6.757,59.378c4.048,23.261,16.458,41.072,36.677,53.164
			c7.695,4.601,15.699,8.913,24.022,12.185c23.477,9.227,47.284,17.609,70.765,26.823c9.251,3.629,18.366,7.94,26.871,13.06
			c19.887,11.968,17.178,42.443-1.045,52.977c-5.761,3.33-12.149,5.971-18.583,7.658c-16.097,4.222-32.616,4.414-49.152,3.659
			c-25.104-1.146-49.578-5.835-73.632-12.951c-2.141-0.634-4.347-1.173-6.559-1.405c-2.936-0.309-4.79,1.335-5.351,4.122
			c-0.39,1.938-0.425,3.969-0.43,5.959c-0.033,12.001-0.057,24.002,0.007,36.003c0.052,9.872,1.166,11.403,10.695,14.338
			c34.524,10.631,69.916,14.471,105.896,12.775c18.27-0.86,36.29-3.705,53.608-9.947c20.452-7.372,38.058-18.64,50.611-36.904
			c10.873-15.817,15.241-33.622,15.494-52.432c0.438-32.535-11.066-59.253-40.063-76.27c-10.953-6.428-22.385-12.273-34.142-17.046
			c-22.21-9.016-44.924-16.783-67.192-25.662c-8.033-3.203-16.139-7.15-22.896-12.438c-14.77-11.556-13.102-33.962,2.707-44.105
			c3.529-2.265,7.547-3.921,11.533-5.292c10.269-3.529,20.978-4.362,31.764-4.644c26.367-0.688,52.367,2.596,78.271,7.027
			c4.427,0.758,8.858,1.676,13.324,1.981c4.299,0.295,6.242-1.332,6.296-5.573c0.195-15.249,0.071-30.5,0.078-45.751
			c0.001-3.49-1.817-5.602-5.032-6.582c-1.67-0.509-3.382-0.912-5.101-1.223C2872.712,265.623,2845.976,262.146,2818.893,262.054z
			 M3055.917,268.314c0-3.887,0-6.613-0.001-9.339c-0.001-15.502,0.056-31.004-0.027-46.506c-0.046-8.545-1.557-10.04-10.096-10.077
			c-16.001-0.07-32.004-0.029-48.007-0.02c-12.179,0.007-12.578,0.399-12.581,12.696c-0.02,84.76-0.045,169.521-0.033,254.282
			c0.003,16.51,0.521,32.981,3.692,49.273c6.951,35.709,26.273,61.017,61.324,73.041c23.344,8.008,47.578,8.579,71.893,7.912
			c4.905-0.135,7.024-2.448,7.104-7.869c0.219-14.999,0.229-30.005-0.018-45.002c-0.091-5.577-2.292-7.442-7.934-7.978
			c-2.728-0.259-5.507,0.051-8.242-0.161c-6.463-0.501-13.013-0.646-19.353-1.854c-18.148-3.453-30.309-13.912-34.319-32.266
			c-1.854-8.483-3.074-17.284-3.134-25.951c-0.332-48.504-0.231-97.011-0.235-145.518c0-1.886,0.445-3.771,0.74-6.117
			c3.221,0,5.936,0,8.65,0c16.752,0,33.504,0.04,50.256-0.021c8.521-0.03,9.625-1.106,9.669-9.44
			c0.07-13.001,0.047-26.004-0.007-39.005c-0.037-8.846-1.159-10.023-9.902-10.059c-16.753-0.068-33.505-0.022-50.258-0.023
			C3062.4,268.313,3059.702,268.314,3055.917,268.314z M3513.815,476.469c-0.151,0-0.303,0-0.454,0
			c0,37.754-0.031,75.508,0.022,113.262c0.013,8.833,1.184,9.936,10.01,9.966c15.751,0.055,31.504,0.021,47.255,0.016
			c12.877-0.004,13.226-0.355,13.228-13.605c0.007-55.756-0.146-111.513,0.095-167.268c0.079-18.23,0.589-36.502,1.979-54.672
			c1.538-20.108,12.523-32.465,32.06-37.643c5.518-1.462,11.262-2.558,16.946-2.804c13.481-0.583,26.99-0.476,40.483-0.809
			c7.155-0.176,8.902-1.822,8.992-8.982c0.179-14.25,0.181-28.504,0.006-42.754c-0.088-7.111-2.004-9.044-8.928-9.049
			c-17.249-0.011-34.525-0.312-51.741,0.507c-18.829,0.895-37.136,4.875-54.32,13.027c-23.943,11.358-41.076,28.984-49.414,54.452
			c-4.068,12.424-6.072,25.312-6.146,38.351C3513.679,404.464,3513.815,440.467,3513.815,476.469z M2550.535,433.325
			c0,51.21-0.002,102.419,0.003,153.629c0,2.248,0.008,4.497,0.088,6.742c0.129,3.582,2.152,5.476,5.597,5.831
			c1.981,0.204,3.99,0.177,5.986,0.179c15.238,0.013,30.476,0.014,45.714,0.006c13.031-0.007,13.221-0.2,13.219-13.582
			c-0.02-101.669-0.042-203.339-0.064-305.009c-0.001-1.749,0.079-3.503-0.037-5.244c-0.364-5.462-1.892-7.39-7.252-7.439
			c-18.733-0.176-37.47-0.18-56.203,0.007c-5.457,0.055-6.751,1.815-7.025,7.507c-0.095,1.994-0.033,3.996-0.033,5.994
			C2550.525,332.405,2550.526,382.865,2550.535,433.325z"/>
		<path fill-rule="evenodd" clip-rule="evenodd" d="M1086.124,415.561c-0.64,39.339-3.458,78.464-8.836,117.383
			c-2.458,17.783-4.931,35.603-11.234,52.646c-2.44,6.599-3.345,13.753-5.284,20.559c-0.735,2.58-2.313,4.947-3.671,7.316
			c-12.623,22.031-32.101,30.553-56.899,29.808c-22.311-0.669-33.377-15.121-41.203-32.933c-4.06-9.242-6.339-19.448-8.169-29.448
			c-3.232-17.672-5.669-35.548-4.853-53.579c0.836-18.445,2.233-36.869,3.631-55.283c2.746-36.155,4.374-72.345,2.696-108.59
			c-0.819-17.688-2.418-35.342-3.894-52.993c-0.264-3.154-1.273-6.386-2.589-9.287c-3.76-8.285-9.948-10.964-18.373-7.571
			c-7.149,2.879-14.244,6.082-20.921,9.911c-18.216,10.447-35.616,22.059-51.781,35.612c-21.214,17.787-37.527,39.269-50.847,63.312
			c-12.76,23.034-22.346,47.362-30.077,72.461c-10.43,33.86-20.317,67.896-31.272,101.586c-8.643,26.577-17.938,53.01-31.366,77.681
			c-13.433,24.68-28.829,48.056-50.953,65.873c-10.207,8.222-21.788,14.754-32.852,21.89c-12.707,8.194-26.656,13.777-41.278,17.106
			c-15.538,3.537-31.326,6.055-47.079,8.544c-6.88,1.087-13.947,1.407-20.926,1.374c-61.152-0.293-113.518-21.736-156.791-65.204
			c-27.365-27.487-49.689-58.743-69.181-92.078c-15.642-26.751-30.337-54.057-46.097-80.735
			c-18.692-31.644-38.659-62.458-64.508-88.947c-11.918-12.214-24.854-23.19-39.72-31.704c-2.569-1.472-5.349-2.785-8.199-3.517
			c-6.554-1.684-11.576,1-14.742,7.155c-4.589,8.921-4.714,18.758-5.943,28.355c-3.602,28.139-0.973,55.967,5.624,83.342
			c5.671,23.534,11.895,46.979,19.067,70.095c5.613,18.09,13.012,35.627,19.689,53.384c7.657,20.361,14.599,40.965,19.183,62.24
			c2.306,10.699,3.506,21.644,5.042,32.5c1.33,9.403-0.863,18.554-3.793,27.236c-3.25,9.631-10.542,16.265-20.017,20.147
			c-10.906,4.468-22.228,5.657-33.751,3.142c-8.839-1.929-16.138-7.144-22.152-13.452c-5.969-6.26-11.592-13.226-15.739-20.775
			c-12.639-23.015-23.282-47.002-32.515-71.604c-19.921-53.083-33.443-107.803-40.767-163.962
			c-4.496-34.475-5.552-69.13-3.663-103.971c1.952-36.024,6.366-71.621,13.934-106.834c6.091-28.338,13.816-56.206,24.27-83.325
			c10.525-27.306,24.18-52.686,43.77-74.54c25.169-28.077,56.627-45.631,93.309-53.648c18.653-4.077,37.679-5.198,56.509-1.427
			c15.192,3.043,29.453,8.69,42.985,16.71c14.286,8.467,27.071,18.624,38.938,29.99c13.343,12.782,25.343,26.808,36.693,41.42
			c25.197,32.438,45.97,67.775,67.923,102.354c8.294,13.063,17.385,25.627,26.291,38.293c9.71,13.81,21.623,25.758,34.943,35.842
			c7.325,5.545,15.611,10.283,24.622,13.699c15.454,5.858,31.182,8.051,47.536,7.647c27.538-0.681,49.628-11.919,66.086-33.921
			c9.481-12.676,16.355-26.853,21.724-41.681c8.833-24.397,17.756-48.778,25.814-73.436c9.171-28.062,20.108-55.415,33.11-81.823
			c16.813-34.147,35.564-67.179,63.738-93.747c23.134-21.816,49.514-37.617,80.365-46.103c14.085-3.875,28.323-6.52,42.763-6.624
			c19.309-0.14,38.244,2.403,55.706,12.095c14.273,7.921,28.631,15.715,39.313,28.3c8.867,10.446,17.336,21.337,24.941,32.725
			c14.63,21.906,25.56,45.79,34.592,70.469c4.284,11.704,6.899,24.012,11.025,35.782c6.312,18.004,10.025,36.601,13.319,55.271
			c4.94,28.001,8.8,56.189,10.056,84.617C1084.674,357.633,1085.244,386.604,1086.124,415.561z"/>
		<path fill-rule="evenodd" clip-rule="evenodd" d="M1553.743,294.419c19.486-20.665,44.169-27.968,70.509-30.651
			c27.41-2.792,54.901-3.138,82.204,1.589c16.375,2.834,31.935,8.099,46.251,16.713c24.704,14.863,39.217,36.67,43.247,65.098
			c1.748,12.333,2.834,24.869,2.885,37.318c0.274,67.252,0.132,134.506,0.129,201.761c0,1.749,0.083,3.511-0.079,5.247
			c-0.534,5.67-2.892,8.123-8.599,8.162c-17.75,0.121-35.502,0.142-53.252-0.017c-6.369-0.058-8.283-2.268-8.588-8.745
			c-0.105-2.246-0.029-4.5-0.029-6.75c-0.03-59.753,0.091-119.507-0.202-179.259c-0.067-13.966-0.934-27.994-2.522-41.87
			c-1.794-15.671-10.808-26.815-25.375-32.648c-7.1-2.843-14.803-4.738-22.402-5.657c-16.933-2.05-33.958-2.111-50.656,2.091
			c-5.279,1.328-10.523,3.302-15.35,5.814c-12.095,6.294-19.783,16.461-21.23,29.963c-1.674,15.624-2.575,31.396-2.664,47.111
			c-0.327,58.252-0.277,116.506-0.144,174.759c0.033,14.444-1.747,15.595-15.132,15.332c-14.745-0.289-29.5-0.028-44.251-0.081
			c-9.503-0.034-11.324-1.857-11.332-11.476c-0.048-62.253,0.012-124.507-0.147-186.76c-0.028-10.986-0.647-21.991-1.473-32.951
			c-1.458-19.371-11.32-32.81-29.729-39.273c-6.542-2.295-13.494-3.894-20.384-4.629c-16.7-1.784-33.447-1.933-49.941,2.069
			c-22.76,5.522-34.616,18.162-36.739,41.42c-1.587,17.391-1.829,34.94-1.917,52.423c-0.276,54.752-0.197,109.506-0.251,164.258
			c-0.015,14.653-0.291,14.933-15.268,14.935c-14.25,0.001-28.502,0.015-42.752-0.006c-10.813-0.016-12.462-1.649-12.465-12.655
			c-0.018-57.501-0.078-115.003,0.047-172.503c0.038-17.245,0.203-34.509,1.09-51.724c0.788-15.279,3.611-30.291,10.604-44.156
			c11.553-22.904,30.652-37.015,54.065-46.009c15.532-5.968,31.73-9.212,48.246-9.991c20.966-0.987,42.049-1.858,62.893,1.273
			c12.041,1.809,24.029,4.622,35.688,8.149C1532.03,276.117,1543.737,283.36,1553.743,294.419z"/>
		<path fill-rule="evenodd" clip-rule="evenodd" d="M2161.954,434.185c0.163,26.794-1.116,53.476-7.388,79.669
			c-4.285,17.895-10.696,34.856-22.3,49.47c-15.455,19.464-36.193,30.256-59.787,36.229c-15.815,4.004-31.964,5.727-48.248,6.078
			c-22.515,0.485-44.994,0.27-67.201-4.262c-18.064-3.686-35.121-9.774-50.108-20.834c-19.324-14.263-30.636-33.814-37.407-56.436
			c-6.43-21.48-8.89-43.56-9.791-65.814c-1.204-29.757-0.842-59.496,3.958-88.996c2.292-14.082,5.773-27.857,11.392-41.048
			c12.231-28.72,33.706-47.139,63.021-56.894c13.588-4.521,27.57-7.24,41.822-8.148c30.996-1.975,61.938-2.453,92.451,5.01
			c40.895,10,67.637,34.757,79.484,75.426c6.769,23.23,9.131,47.034,10.064,71.053
			C2162.167,421.177,2161.954,427.685,2161.954,434.185z M2091.28,433.947c-0.988-14.694-1.55-29.434-3.115-44.066
			c-1.03-9.627-2.769-19.317-5.493-28.596c-5.514-18.786-18.114-30.654-37.478-34.785c-20.515-4.377-41.216-4.115-61.847-1.348
			c-25.785,3.458-39.777,16.226-46.312,41.238c-0.568,2.172-1.1,4.363-1.465,6.576c-5.848,35.475-6.592,71.077-2.095,106.733
			c1.151,9.125,2.692,18.324,5.312,27.115c5.604,18.815,18.398,30.458,37.718,34.544c19.519,4.129,39.208,3.862,58.898,1.637
			c27.826-3.146,42.595-16.234,49.431-43.463c0.364-1.451,0.691-2.915,0.943-4.39
			C2089.237,474.904,2090.624,454.498,2091.28,433.947z"/>
		<path fill-rule="evenodd" clip-rule="evenodd" d="M3381.669,396.98c0.892-15.122,0.72-29.797-4.825-43.799
			c-4.445-11.226-12.718-18.915-23.787-23.684c-9.999-4.31-20.584-6.085-31.292-7.057c-30.29-2.747-60.404-0.439-90.438,3.586
			c-4.703,0.63-9.382,1.469-14.099,1.951c-6.365,0.65-8.639-0.986-8.746-7.124c-0.239-13.742-0.246-27.493,0.008-41.234
			c0.125-6.754,2.203-8.646,8.916-9.827c32.826-5.772,65.879-8.747,99.221-7.466c23.291,0.895,46.369,3.488,68.297,12.067
			c26.199,10.251,46.546,26.959,57.552,53.587c6.277,15.192,9.534,31.16,9.687,47.47c0.384,40.983,0.557,81.981-0.186,122.955
			c-0.228,12.588-2.703,25.373-5.876,37.62c-6.373,24.606-21.895,42.175-44.657,53.465c-19.092,9.469-39.403,14.575-60.506,15.743
			c-25.463,1.408-50.957,1.218-76.164-3.749c-17.061-3.361-33.338-8.843-47.995-18.355c-25.69-16.674-39.002-40.896-41.767-70.978
			c-1.586-17.257-0.769-34.492,4.752-51.155c9.975-30.106,30.652-49.645,60.063-60.495c18.236-6.727,37.183-9.668,56.497-10.395
			c27.076-1.019,53.906,1.441,80.543,6.249C3378.293,396.614,3379.743,396.734,3381.669,396.98z M3382.101,454.523
			c-2.871-0.788-4.761-1.429-6.702-1.821c-23.639-4.767-47.547-6.554-71.586-5.276c-9.154,0.485-18.428,1.995-27.267,4.427
			c-13.766,3.787-23.559,12.65-28.706,26.3c-10.589,28.084,2.006,54.699,30.436,64.034c2.84,0.932,5.766,1.652,8.697,2.242
			c15.075,3.032,30.332,3.335,45.53,1.791c8.122-0.825,16.384-2.384,24.051-5.109c13.835-4.919,21.862-15.214,23.937-29.952
			C3383.118,492.5,3381.561,473.772,3382.101,454.523z"/>
		<path fill-rule="evenodd" clip-rule="evenodd" d="M2346.847,530.803c1.188-2.15,2.469-4.202,3.498-6.373
			c29.059-61.286,50.313-125.082,61.021-192.168c2.713-17.001,4.335-34.184,6.222-51.308c1.325-12.021,1.751-12.624,13.551-12.635
			c16.25-0.016,32.501-0.018,48.752,0c11.911,0.013,12.568,0.882,11.825,13.08c-2.242,36.833-9.204,72.84-19.207,108.269
			c-19.995,70.808-50.124,137.415-84.314,202.326c-2.9,5.506-6.845,7.898-13.155,7.813c-19.246-0.264-38.502-0.225-57.75-0.027
			c-6.512,0.067-10.73-2.445-13.771-8.227c-25.491-48.457-49.817-97.434-68.319-149.094
			c-18.294-51.083-30.113-103.556-34.217-157.712c-0.188-2.491-0.657-4.965-0.771-7.457c-0.297-6.496,1.662-8.738,8.066-8.922
			c5.996-0.172,12-0.053,18-0.053c12.5-0.001,25.002-0.065,37.502,0.03c8.955,0.069,10.369,1.501,11.053,10.291
			c6.711,86.26,30.763,167.751,67.613,245.718c0.854,1.805,1.803,3.566,2.778,5.309
			C2345.42,530.013,2345.939,530.182,2346.847,530.803z"/>
		<path fill-rule="evenodd" clip-rule="evenodd" d="M2818.893,262.054c27.083,0.092,53.819,3.569,80.417,8.37
			c1.719,0.311,3.431,0.713,5.101,1.223c3.215,0.979,5.033,3.091,5.032,6.582c-0.007,15.251,0.117,30.503-0.078,45.751
			c-0.054,4.241-1.997,5.868-6.296,5.573c-4.466-0.305-8.897-1.223-13.324-1.981c-25.904-4.431-51.904-7.715-78.271-7.027
			c-10.786,0.282-21.495,1.115-31.764,4.644c-3.986,1.371-8.004,3.027-11.533,5.292c-15.809,10.144-17.477,32.55-2.707,44.105
			c6.758,5.288,14.863,9.235,22.896,12.438c22.269,8.879,44.982,16.646,67.192,25.662c11.757,4.772,23.188,10.618,34.142,17.046
			c28.997,17.017,40.501,43.734,40.063,76.27c-0.253,18.81-4.621,36.614-15.494,52.432c-12.554,18.265-30.159,29.532-50.611,36.904
			c-17.318,6.242-35.339,9.087-53.608,9.947c-35.98,1.695-71.372-2.145-105.896-12.775c-9.529-2.935-10.644-4.466-10.695-14.338
			c-0.063-12.001-0.04-24.002-0.007-36.003c0.005-1.99,0.04-4.021,0.43-5.959c0.561-2.787,2.415-4.431,5.351-4.122
			c2.212,0.232,4.418,0.771,6.559,1.405c24.054,7.116,48.528,11.805,73.632,12.951c16.536,0.755,33.056,0.563,49.152-3.659
			c6.434-1.688,12.822-4.328,18.583-7.658c18.223-10.533,20.932-41.009,1.045-52.977c-8.505-5.119-17.62-9.431-26.871-13.06
			c-23.48-9.214-47.288-17.597-70.765-26.823c-8.323-3.271-16.327-7.584-24.022-12.185c-20.219-12.092-32.629-29.903-36.677-53.164
			c-3.548-20.389-2.195-40.405,6.757-59.378c10.973-23.257,29.492-37.968,53.513-46.179
			C2772.436,263.737,2795.542,261.997,2818.893,262.054z"/>
		<path fill-rule="evenodd" clip-rule="evenodd" d="M3055.917,268.314c3.785,0,6.483-0.001,9.182,0
			c16.753,0.001,33.505-0.045,50.258,0.023c8.743,0.036,9.865,1.213,9.902,10.059c0.054,13.001,0.077,26.004,0.007,39.005
			c-0.044,8.334-1.148,9.41-9.669,9.44c-16.752,0.06-33.504,0.02-50.256,0.021c-2.715,0-5.43,0-8.65,0
			c-0.295,2.346-0.74,4.231-0.74,6.117c0.004,48.506-0.097,97.014,0.235,145.518c0.06,8.667,1.28,17.468,3.134,25.951
			c4.011,18.354,16.171,28.813,34.319,32.266c6.34,1.207,12.89,1.353,19.353,1.854c2.735,0.212,5.515-0.098,8.242,0.161
			c5.642,0.535,7.843,2.4,7.934,7.978c0.246,14.997,0.236,30.003,0.018,45.002c-0.079,5.421-2.198,7.734-7.104,7.869
			c-24.314,0.667-48.549,0.096-71.893-7.912c-35.051-12.024-54.373-37.332-61.324-73.041c-3.172-16.292-3.689-32.764-3.692-49.273
			c-0.012-84.76,0.014-169.521,0.033-254.282c0.003-12.297,0.402-12.689,12.581-12.696c16.003-0.009,32.006-0.05,48.007,0.02
			c8.539,0.037,10.05,1.532,10.096,10.077c0.083,15.502,0.026,31.004,0.027,46.506
			C3055.917,261.701,3055.917,264.428,3055.917,268.314z"/>
		<path fill-rule="evenodd" clip-rule="evenodd" d="M3513.815,476.469c0-36.002-0.136-72.004,0.072-108.005
			c0.074-13.039,2.078-25.926,6.146-38.351c8.338-25.468,25.471-43.094,49.414-54.452c17.185-8.152,35.491-12.133,54.32-13.027
			c17.216-0.818,34.492-0.518,51.741-0.507c6.924,0.004,8.84,1.938,8.928,9.049c0.175,14.25,0.173,28.504-0.006,42.754
			c-0.09,7.16-1.837,8.806-8.992,8.982c-13.493,0.333-27.002,0.226-40.483,0.809c-5.685,0.246-11.429,1.341-16.946,2.804
			c-19.536,5.177-30.521,17.534-32.06,37.643c-1.391,18.17-1.9,36.442-1.979,54.672c-0.241,55.755-0.088,111.512-0.095,167.268
			c-0.002,13.25-0.351,13.602-13.228,13.605c-15.751,0.005-31.504,0.039-47.255-0.016c-8.826-0.03-9.997-1.133-10.01-9.966
			c-0.054-37.754-0.022-75.508-0.022-113.262C3513.512,476.469,3513.664,476.469,3513.815,476.469z"/>
		<path fill-rule="evenodd" clip-rule="evenodd" d="M2550.53,433.325c-0.004-50.46-0.005-100.92-0.004-151.38
			c0-1.999-0.062-4,0.033-5.994c0.274-5.692,1.568-7.452,7.025-7.507c18.733-0.187,37.47-0.183,56.203-0.007
			c5.36,0.05,6.888,1.977,7.252,7.439c0.116,1.741,0.036,3.496,0.037,5.244c0.022,101.67,0.045,203.34,0.064,305.009
			c0.002,13.382-0.188,13.575-13.219,13.582c-15.238,0.008-30.476,0.007-45.714-0.006c-1.996-0.002-4.005,0.025-5.986-0.179
			c-3.444-0.355-5.468-2.249-5.597-5.831c-0.08-2.245-0.088-4.494-0.088-6.742C2550.533,535.744,2550.535,484.535,2550.53,433.325z"
			/>
		<path fill-rule="evenodd" clip-rule="evenodd" fill="#FFFFFF" d="M2091.28,433.947c-0.656,20.551-2.043,40.957-5.502,61.195
			c-0.252,1.475-0.579,2.938-0.943,4.39c-6.836,27.229-21.604,40.316-49.431,43.463c-19.69,2.226-39.38,2.492-58.898-1.637
			c-19.319-4.086-32.114-15.729-37.718-34.544c-2.619-8.791-4.16-17.99-5.312-27.115c-4.497-35.656-3.753-71.258,2.095-106.733
			c0.365-2.213,0.896-4.404,1.465-6.576c6.534-25.012,20.526-37.78,46.312-41.238c20.631-2.767,41.332-3.029,61.847,1.348
			c19.363,4.131,31.964,16,37.478,34.785c2.725,9.279,4.463,18.969,5.493,28.596C2089.73,404.513,2090.292,419.253,2091.28,433.947z
			"/>
		<path fill-rule="evenodd" clip-rule="evenodd" fill="#FFFFFF" d="M3382.101,454.523c-0.54,19.249,1.017,37.977-1.61,56.635
			c-2.074,14.738-10.102,25.033-23.937,29.952c-7.667,2.726-15.929,4.284-24.051,5.109c-15.198,1.544-30.455,1.241-45.53-1.791
			c-2.932-0.59-5.857-1.311-8.697-2.242c-28.43-9.335-41.024-35.95-30.436-64.034c5.147-13.649,14.94-22.513,28.706-26.3
			c8.839-2.432,18.112-3.941,27.267-4.427c24.039-1.277,47.947,0.51,71.586,5.276C3377.34,453.095,3379.23,453.735,3382.101,454.523
			z"/>
	</g>
</g>
</svg>
