<?xml version="1.0" encoding="utf-8"?>
<!-- Generator: Adobe Illustrator 16.0.0, SVG Export Plug-In . SVG Version: 6.00 Build 0)  -->
<!DOCTYPE svg PUBLIC "-//W3C//DTD SVG 1.1//EN" "http://www.w3.org/Graphics/SVG/1.1/DTD/svg11.dtd">
<svg version="1.1" id="Capa_1" xmlns="http://www.w3.org/2000/svg" xmlns:xlink="http://www.w3.org/1999/xlink" x="0px" y="0px"
	 width="95.536px" height="25.774px" viewBox="0 0 95.536 25.774" enable-background="new 0 0 95.536 25.774" xml:space="preserve">
<g>
	<g>
		<path fill-rule="evenodd" clip-rule="evenodd" fill="#FFFFFF" d="M0.027,1.802c0-0.592,0-1.183,0-1.775
			c31.189,0,62.379,0,93.568,0c-0.03,0.008-0.06,0.02-0.091,0.022c-1.366,0.137-2.732,0.274-4.099,0.41
			c-1.746,0.173-3.492,0.346-5.239,0.519c-1.593,0.158-3.185,0.314-4.777,0.472c-0.497,0.049-0.807,0.318-0.844,0.803
			c-0.033,0.425-0.025,0.855,0.003,1.28c0.025,0.365,0.272,0.589,0.637,0.638c0.112,0.015,0.227,0.014,0.341,0.014
			c4.744,0,9.489,0,14.233,0c0.104,0,0.21-0.001,0.313-0.009c0.54-0.042,0.917-0.363,0.94-0.9c0.032-0.748,0.028-1.5-0.012-2.248
			c-0.027-0.523-0.337-0.891-0.881-0.979c-0.012-0.002-0.022-0.014-0.033-0.021c0.5,0,1.001,0,1.501,0c0,8.591,0,17.183,0,25.774
			c-2.849,0-5.697,0-8.546,0c0.162-0.017,0.324-0.036,0.486-0.051c1.354-0.125,2.646-0.474,3.854-1.104
			c1.227-0.642,2.243-1.514,2.939-2.728c0.271-0.472,0.499-0.961,0.57-1.508c0.075-0.576-0.195-1.036-0.878-1.028
			c-0.91,0.011-1.82,0.002-2.729,0.003c-0.407,0.001-0.76,0.13-1.027,0.448c-0.082,0.097-0.153,0.203-0.229,0.306
			c-0.25,0.339-0.537,0.644-0.887,0.881c-1.094,0.74-2.313,0.901-3.566,0.632c-1.814-0.389-2.873-1.571-3.273-3.363
			c-0.04-0.178-0.049-0.363-0.073-0.559c0.091,0,0.154,0,0.217,0c3.796,0,7.591,0,11.386-0.001c0.146,0,0.291-0.002,0.437-0.012
			c0.656-0.045,1.093-0.406,1.227-1.025c0.039-0.177,0.059-0.36,0.063-0.541c0.024-1.518-0.253-2.977-0.871-4.365
			c-0.896-2.011-2.335-3.479-4.385-4.321c-0.998-0.41-2.042-0.614-3.116-0.677c-1.303-0.077-2.583,0.039-3.822,0.461
			c-2.448,0.835-4.157,2.477-5.193,4.828c-0.743,1.686-0.969,3.456-0.769,5.283c0.175,1.599,0.666,3.091,1.556,4.435
			c1.501,2.268,3.609,3.574,6.306,3.928c0.238,0.031,0.478,0.053,0.717,0.079c-11.805,0-23.608,0-35.412,0
			c0.035-0.007,0.07-0.017,0.105-0.021c0.394-0.039,0.789-0.063,1.181-0.119c1.201-0.172,2.354-0.503,3.415-1.109
			c1.789-1.023,2.771-2.539,2.784-4.631c0.012-1.668-0.652-3.005-1.987-4.002c-0.736-0.549-1.575-0.887-2.454-1.119
			c-1.515-0.402-3.035-0.784-4.552-1.178c-0.467-0.121-0.931-0.252-1.351-0.499c-0.291-0.171-0.504-0.406-0.571-0.746
			c-0.103-0.519,0.02-0.975,0.406-1.347c0.255-0.246,0.565-0.396,0.901-0.492c0.843-0.239,1.698-0.238,2.555-0.094
			c1.026,0.173,1.82,0.675,2.297,1.628c0.169,0.337,0.475,0.471,0.831,0.483c0.559,0.018,1.118,0.019,1.678,0.021
			c0.332,0.001,0.665,0.003,0.996-0.017c0.375-0.023,0.598-0.229,0.674-0.601c0.096-0.461,0.018-0.906-0.147-1.337
			c-0.338-0.885-0.927-1.579-1.673-2.145c-1.209-0.917-2.597-1.386-4.081-1.596c-1.316-0.187-2.632-0.156-3.94,0.082
			c-1.162,0.21-2.253,0.602-3.227,1.29c-1.941,1.374-2.46,3.58-1.999,5.398c0.27,1.063,0.919,1.874,1.789,2.519
			c0.85,0.629,1.817,1.009,2.829,1.274c1.458,0.384,2.922,0.746,4.383,1.122c0.445,0.114,0.885,0.248,1.269,0.516
			c0.255,0.18,0.439,0.409,0.487,0.727c0.067,0.444-0.03,0.852-0.309,1.206c-0.299,0.382-0.713,0.588-1.166,0.716
			c-0.932,0.263-1.876,0.279-2.823,0.093c-0.698-0.137-1.339-0.399-1.865-0.9c-0.267-0.255-0.457-0.564-0.636-0.882
			c-0.238-0.42-0.596-0.646-1.078-0.65c-0.851-0.008-1.702-0.014-2.552,0c-0.535,0.01-0.851,0.347-0.881,0.884
			c-0.024,0.433,0.048,0.851,0.183,1.261c0.305,0.929,0.905,1.643,1.652,2.241c1.438,1.153,3.111,1.72,4.918,1.94
			c0.279,0.034,0.56,0.057,0.839,0.084c-5.688,0-11.376,0-17.064,0c0.257-0.026,0.515-0.05,0.772-0.079
			c1.346-0.156,2.624-0.535,3.811-1.198c1.262-0.706,2.269-1.664,2.914-2.975c0.193-0.393,0.35-0.799,0.383-1.242
			c0.032-0.442-0.177-0.79-0.545-0.883c-0.118-0.029-0.243-0.037-0.365-0.038c-0.823-0.003-1.647,0.02-2.47-0.008
			c-0.658-0.023-1.133,0.209-1.506,0.763c-0.475,0.704-1.149,1.168-1.969,1.409c-0.631,0.186-1.275,0.241-1.93,0.189
			c-1.873-0.149-3.371-1.448-3.781-3.286c-0.052-0.231-0.075-0.47-0.114-0.724c0.097,0,0.16,0,0.223,0c3.786,0,7.571,0,11.357-0.001
			c0.146,0,0.291-0.002,0.437-0.013c0.588-0.041,1.021-0.347,1.173-0.86c0.064-0.215,0.097-0.445,0.103-0.67
			c0.042-1.537-0.244-3.013-0.873-4.417c-0.896-2-2.327-3.463-4.364-4.306c-0.988-0.409-2.023-0.612-3.089-0.674
			c-1.283-0.076-2.545,0.034-3.77,0.442c-2.469,0.823-4.197,2.465-5.243,4.828c-0.789,1.783-1.002,3.652-0.742,5.579
			c0.215,1.589,0.746,3.063,1.67,4.378c1.505,2.143,3.568,3.371,6.165,3.707c0.238,0.03,0.478,0.053,0.717,0.078
			c-10.439,0-20.878,0-31.317,0c0-0.601,0-1.201,0-1.802c0.009,0.039,0.021,0.077,0.026,0.117c0.099,0.721,0.658,1.286,1.383,1.321
			c0.717,0.034,1.438,0.031,2.155,0c0.646-0.028,1.178-0.491,1.333-1.112c0.054-0.217,0.069-0.449,0.069-0.675
			c0.004-5.129,0.003-10.257,0.003-15.385c0-0.059,0-0.117,0-0.176c0.013-0.009,0.026-0.017,0.04-0.025
			c0.041,0.047,0.089,0.09,0.12,0.144c1.632,2.884,3.26,5.771,4.894,8.654c1.344,2.373,2.689,4.746,4.042,7.114
			c0.529,0.925,1.329,1.445,2.406,1.478c0.759,0.022,1.52,0.01,2.279,0.009c0.269,0,0.538,0.002,0.805-0.019
			c0.687-0.052,1.237-0.534,1.372-1.207C20.994,24.038,21,23.83,21,23.626c0.002-6.411,0.001-12.823,0.001-19.234
			c0-0.063,0-0.125,0-0.206c0.082,0,0.148,0,0.215,0c11.604,0,23.208,0,34.811,0c0.119,0,0.237,0,0.355-0.009
			c0.545-0.042,0.931-0.4,0.948-0.927c0.021-0.631,0.019-1.265,0.001-1.896c-0.014-0.454-0.295-0.777-0.738-0.884
			c-0.17-0.041-0.351-0.054-0.526-0.054C43.353,0.412,30.639,0.413,17.925,0.413c-0.082,0-0.164,0-0.246,0.003
			c-0.78,0.036-1.356,0.46-1.525,1.151c-0.053,0.218-0.067,0.45-0.067,0.676c-0.004,5.001-0.003,10.002-0.003,15.002
			c0,0.058,0,0.115,0,0.172c-0.015,0.008-0.03,0.016-0.044,0.023c-0.037-0.046-0.082-0.088-0.11-0.139
			c-1.063-1.891-2.123-3.782-3.185-5.672c-1.827-3.249-3.658-6.496-5.481-9.747c-0.533-0.95-1.325-1.493-2.418-1.52
			C3.74,0.336,2.633,0.342,1.528,0.361C0.783,0.374,0.212,0.889,0.066,1.617C0.053,1.679,0.04,1.74,0.027,1.802z M60.397,10.861
			c0,0.074,0,0.132,0,0.19c0,2.712,0,5.424,0,8.136c0,0.697,0.04,1.393,0.219,2.069c0.521,1.966,1.748,3.271,3.685,3.896
			c0.596,0.193,1.215,0.279,1.84,0.291c0.731,0.015,1.465,0.024,2.196-0.002c0.528-0.019,0.934-0.419,0.954-0.931
			c0.024-0.617,0.027-1.237-0.002-1.854c-0.021-0.426-0.266-0.732-0.68-0.867c-0.157-0.051-0.328-0.064-0.495-0.079
			c-0.298-0.026-0.602-0.016-0.896-0.063c-0.95-0.152-1.58-0.688-1.858-1.62c-0.112-0.374-0.143-0.758-0.143-1.146
			c0.001-2.621,0.001-5.242,0.001-7.863c0-0.048,0.004-0.096,0.007-0.156c0.066,0,0.119,0,0.174,0c0.928,0,1.856,0,2.784-0.001
			c0.113,0,0.228-0.007,0.34-0.021c0.507-0.061,0.848-0.376,0.882-0.885c0.034-0.521,0.04-1.046,0.011-1.567
			c-0.03-0.548-0.311-0.845-0.817-0.947c-0.123-0.025-0.253-0.032-0.379-0.032c-0.938-0.003-1.875-0.001-2.813-0.001
			c-0.054,0-0.106,0-0.176,0c0-0.073,0-0.131,0-0.188c-0.001-1.797,0.005-3.595-0.005-5.392c-0.005-0.81-0.592-1.394-1.398-1.408
			c-0.673-0.012-1.347-0.011-2.021,0c-0.577,0.009-1.01,0.269-1.264,0.798c-0.115,0.243-0.146,0.503-0.146,0.77
			c0.001,1.752,0.001,3.504,0.001,5.256c0,0.053,0,0.105,0,0.166c-0.339,0-0.657-0.006-0.976,0.001
			c-0.645,0.015-1.069,0.359-1.096,0.926c-0.024,0.531-0.02,1.065-0.001,1.597c0.016,0.433,0.275,0.744,0.693,0.862
			c0.159,0.045,0.331,0.061,0.497,0.066C59.802,10.868,60.089,10.861,60.397,10.861z M75.646,12.941c0-3.622,0-7.244,0-10.866
			c0-0.109-0.004-0.219-0.012-0.327c-0.059-0.779-0.609-1.317-1.39-1.332c-0.71-0.013-1.42-0.01-2.13,0
			c-0.629,0.009-1.117,0.347-1.302,0.917c-0.07,0.216-0.097,0.455-0.097,0.684c-0.005,7.28-0.004,14.561-0.004,21.841
			c0,0.082,0,0.164,0.004,0.246c0.032,0.735,0.555,1.312,1.285,1.342c0.791,0.033,1.584,0.028,2.374-0.002
			c0.586-0.021,0.984-0.36,1.169-0.911c0.074-0.22,0.098-0.464,0.098-0.697C75.648,20.204,75.646,16.572,75.646,12.941z"/>
		<path fill-rule="evenodd" clip-rule="evenodd" d="M0.027,1.802C0.04,1.74,0.053,1.679,0.066,1.617
			c0.146-0.728,0.717-1.243,1.462-1.255c1.105-0.02,2.212-0.025,3.317,0.002c1.093,0.027,1.885,0.57,2.418,1.52
			c1.824,3.251,3.655,6.498,5.481,9.747c1.063,1.89,2.123,3.781,3.185,5.672c0.028,0.051,0.073,0.093,0.11,0.139
			c0.015-0.008,0.03-0.016,0.044-0.023c0-0.057,0-0.114,0-0.172c0-5-0.001-10.001,0.003-15.002c0-0.226,0.014-0.458,0.067-0.676
			c0.169-0.691,0.745-1.116,1.525-1.151c0.082-0.003,0.164-0.003,0.246-0.003c12.714,0,25.428,0,38.143,0.002
			c0.176,0,0.356,0.013,0.526,0.054c0.443,0.106,0.725,0.43,0.738,0.884c0.018,0.632,0.021,1.265-0.001,1.896
			c-0.018,0.527-0.403,0.885-0.948,0.927c-0.118,0.009-0.236,0.009-0.355,0.009c-11.604,0-23.207,0-34.811,0
			c-0.067,0-0.134,0-0.215,0c0,0.081,0,0.144,0,0.206c0,6.412,0,12.823-0.001,19.234c0,0.204-0.006,0.412-0.046,0.611
			c-0.135,0.673-0.685,1.155-1.372,1.207c-0.267,0.021-0.536,0.019-0.805,0.019c-0.76,0.001-1.52,0.014-2.279-0.009
			c-1.077-0.032-1.877-0.553-2.406-1.478c-1.353-2.368-2.698-4.741-4.042-7.114c-1.633-2.883-3.261-5.77-4.894-8.654
			c-0.03-0.053-0.079-0.096-0.12-0.144C5.023,8.073,5.01,8.082,4.997,8.09c0,0.059,0,0.117,0,0.176
			c0,5.128,0.001,10.256-0.003,15.385c0,0.226-0.015,0.458-0.069,0.675c-0.155,0.621-0.687,1.084-1.333,1.112
			c-0.717,0.031-1.438,0.034-2.155,0c-0.726-0.035-1.284-0.601-1.383-1.321C0.048,24.077,0.036,24.039,0.027,24
			C0.027,16.601,0.027,9.201,0.027,1.802z"/>
		<path fill-rule="evenodd" clip-rule="evenodd" d="M85.979,25.802c-0.239-0.026-0.479-0.048-0.717-0.079
			c-2.696-0.354-4.805-1.66-6.306-3.928c-0.89-1.344-1.381-2.836-1.556-4.435c-0.2-1.827,0.025-3.597,0.769-5.283
			c1.036-2.352,2.745-3.993,5.193-4.828c1.239-0.422,2.52-0.538,3.822-0.461c1.074,0.063,2.118,0.268,3.116,0.677
			c2.05,0.842,3.488,2.31,4.385,4.321c0.618,1.388,0.896,2.847,0.871,4.365c-0.004,0.181-0.023,0.364-0.063,0.541
			c-0.134,0.619-0.57,0.98-1.227,1.025c-0.146,0.01-0.291,0.012-0.437,0.012c-3.795,0.001-7.59,0.001-11.386,0.001
			c-0.063,0-0.126,0-0.217,0c0.024,0.195,0.033,0.381,0.073,0.559c0.4,1.792,1.459,2.975,3.273,3.363
			c1.254,0.27,2.473,0.108,3.566-0.632c0.35-0.237,0.637-0.542,0.887-0.881c0.076-0.103,0.147-0.209,0.229-0.306
			c0.268-0.318,0.62-0.447,1.027-0.448c0.909-0.001,1.819,0.008,2.729-0.003c0.683-0.008,0.953,0.452,0.878,1.028
			c-0.071,0.547-0.3,1.036-0.57,1.508c-0.696,1.214-1.713,2.086-2.939,2.728c-1.208,0.631-2.499,0.979-3.854,1.104
			c-0.162,0.015-0.324,0.034-0.486,0.051C86.688,25.802,86.333,25.802,85.979,25.802z M90.685,14.139
			c-0.101-1.182-0.781-2.482-2.149-3.157c-0.931-0.458-1.915-0.56-2.926-0.385c-1.301,0.225-2.298,0.895-2.916,2.083
			c-0.236,0.455-0.37,0.942-0.423,1.459C85.078,14.139,87.875,14.139,90.685,14.139z"/>
		<path fill-rule="evenodd" clip-rule="evenodd" d="M31.344,25.802c-0.239-0.025-0.479-0.048-0.717-0.078
			c-2.596-0.336-4.66-1.564-6.165-3.707c-0.924-1.315-1.455-2.789-1.67-4.378c-0.26-1.927-0.047-3.796,0.742-5.579
			c1.046-2.363,2.773-4.005,5.243-4.828c1.225-0.408,2.487-0.518,3.77-0.442c1.066,0.063,2.101,0.265,3.089,0.674
			c2.038,0.843,3.468,2.307,4.364,4.306c0.629,1.404,0.915,2.88,0.873,4.417c-0.006,0.225-0.039,0.455-0.103,0.67
			c-0.153,0.514-0.585,0.819-1.173,0.86c-0.146,0.011-0.291,0.013-0.437,0.013c-3.786,0.001-7.572,0.001-11.357,0.001
			c-0.063,0-0.126,0-0.223,0c0.039,0.254,0.063,0.492,0.114,0.724c0.411,1.838,1.908,3.137,3.781,3.286
			c0.655,0.052,1.299-0.004,1.93-0.189c0.819-0.241,1.494-0.705,1.969-1.409c0.373-0.554,0.848-0.786,1.506-0.763
			c0.823,0.027,1.647,0.005,2.47,0.008c0.122,0.001,0.248,0.009,0.365,0.038c0.368,0.093,0.577,0.44,0.545,0.883
			c-0.033,0.443-0.189,0.85-0.383,1.242c-0.645,1.311-1.651,2.269-2.914,2.975c-1.187,0.663-2.464,1.042-3.811,1.198
			c-0.257,0.029-0.515,0.053-0.772,0.079C32.036,25.802,31.69,25.802,31.344,25.802z M36.037,14.137c0-0.046,0.005-0.087,0-0.126
			c-0.212-1.368-0.905-2.402-2.15-3.03c-0.921-0.464-1.906-0.564-2.911-0.384c-1.607,0.288-2.697,1.195-3.194,2.771
			c-0.078,0.247-0.113,0.507-0.17,0.77C30.442,14.137,33.238,14.137,36.037,14.137z"/>
		<path fill-rule="evenodd" clip-rule="evenodd" d="M49.446,25.802c-0.279-0.027-0.56-0.05-0.839-0.084
			c-1.807-0.221-3.48-0.787-4.918-1.94c-0.747-0.599-1.347-1.313-1.652-2.241c-0.135-0.41-0.207-0.828-0.183-1.261
			c0.03-0.537,0.347-0.874,0.881-0.884c0.851-0.014,1.702-0.008,2.552,0c0.482,0.005,0.839,0.23,1.078,0.65
			c0.18,0.317,0.369,0.627,0.636,0.882c0.525,0.501,1.167,0.764,1.865,0.9c0.947,0.187,1.892,0.17,2.823-0.093
			c0.453-0.128,0.867-0.334,1.166-0.716c0.278-0.354,0.376-0.762,0.309-1.206c-0.048-0.317-0.232-0.547-0.487-0.727
			c-0.384-0.268-0.823-0.401-1.269-0.516c-1.461-0.376-2.925-0.738-4.383-1.122c-1.012-0.266-1.979-0.646-2.829-1.274
			c-0.869-0.645-1.519-1.455-1.789-2.519c-0.461-1.818,0.057-4.024,1.999-5.398c0.973-0.688,2.064-1.08,3.227-1.29
			c1.308-0.237,2.624-0.268,3.94-0.082c1.484,0.21,2.872,0.68,4.081,1.596c0.746,0.565,1.335,1.259,1.673,2.145
			c0.165,0.431,0.243,0.876,0.147,1.337c-0.076,0.371-0.299,0.577-0.674,0.601c-0.331,0.02-0.664,0.018-0.996,0.017
			c-0.56-0.002-1.119-0.003-1.678-0.021c-0.356-0.012-0.662-0.146-0.831-0.483c-0.477-0.953-1.271-1.455-2.297-1.628
			c-0.856-0.145-1.712-0.146-2.555,0.094c-0.336,0.096-0.646,0.246-0.901,0.492c-0.386,0.373-0.509,0.829-0.406,1.347
			c0.067,0.339,0.28,0.575,0.571,0.746c0.42,0.247,0.884,0.377,1.351,0.499c1.517,0.394,3.037,0.775,4.552,1.178
			c0.879,0.232,1.718,0.57,2.454,1.119c1.335,0.997,1.999,2.334,1.987,4.002c-0.014,2.092-0.995,3.607-2.784,4.631
			c-1.061,0.606-2.214,0.938-3.415,1.109c-0.392,0.056-0.787,0.08-1.181,0.119c-0.035,0.004-0.07,0.014-0.105,0.021
			C50.192,25.802,49.819,25.802,49.446,25.802z"/>
		<path fill-rule="evenodd" clip-rule="evenodd" d="M94.088,0.027c0.011,0.007,0.021,0.019,0.033,0.021
			c0.544,0.089,0.854,0.457,0.881,0.979c0.04,0.748,0.044,1.5,0.012,2.248c-0.023,0.538-0.4,0.858-0.94,0.9
			c-0.104,0.008-0.209,0.009-0.313,0.009c-4.744,0-9.489,0-14.233,0c-0.114,0-0.229,0.001-0.341-0.014
			c-0.364-0.049-0.611-0.273-0.637-0.638c-0.028-0.425-0.036-0.855-0.003-1.28c0.037-0.485,0.347-0.754,0.844-0.803
			c1.593-0.158,3.185-0.314,4.777-0.472c1.747-0.172,3.493-0.345,5.239-0.519c1.366-0.136,2.732-0.272,4.099-0.41
			c0.031-0.003,0.061-0.015,0.091-0.022C93.76,0.027,93.924,0.027,94.088,0.027z"/>
		<path fill-rule="evenodd" clip-rule="evenodd" d="M60.397,10.861c-0.309,0-0.596,0.007-0.882-0.003
			c-0.166-0.006-0.338-0.021-0.497-0.066c-0.418-0.118-0.678-0.429-0.693-0.862c-0.019-0.532-0.023-1.065,0.001-1.597
			c0.026-0.567,0.451-0.911,1.096-0.926c0.318-0.007,0.637-0.001,0.976-0.001c0-0.061,0-0.113,0-0.166c0-1.752,0-3.504-0.001-5.256
			c0-0.267,0.031-0.527,0.146-0.77c0.254-0.529,0.687-0.789,1.264-0.798c0.674-0.011,1.348-0.012,2.021,0
			c0.807,0.014,1.394,0.599,1.398,1.408c0.01,1.797,0.004,3.595,0.005,5.392c0,0.058,0,0.116,0,0.188c0.069,0,0.122,0,0.176,0
			c0.938,0,1.875-0.001,2.813,0.001c0.126,0,0.256,0.007,0.379,0.032c0.507,0.102,0.787,0.399,0.817,0.947
			c0.029,0.521,0.023,1.047-0.011,1.567c-0.034,0.509-0.375,0.824-0.882,0.885c-0.112,0.014-0.227,0.021-0.34,0.021
			c-0.928,0.001-1.856,0.001-2.784,0.001c-0.055,0-0.107,0-0.174,0c-0.003,0.06-0.007,0.108-0.007,0.156
			c0,2.621,0,5.242-0.001,7.863c0,0.389,0.03,0.772,0.143,1.146c0.278,0.932,0.908,1.468,1.858,1.62
			c0.295,0.048,0.599,0.037,0.896,0.063c0.167,0.015,0.338,0.028,0.495,0.079c0.414,0.135,0.659,0.441,0.68,0.867
			c0.029,0.617,0.026,1.237,0.002,1.854c-0.021,0.512-0.426,0.912-0.954,0.931c-0.731,0.026-1.465,0.017-2.196,0.002
			c-0.625-0.012-1.244-0.098-1.84-0.291c-1.937-0.625-3.164-1.93-3.685-3.896c-0.179-0.677-0.219-1.372-0.219-2.069
			c0-2.712,0-5.424,0-8.136C60.397,10.993,60.397,10.935,60.397,10.861z"/>
		<path fill-rule="evenodd" clip-rule="evenodd" d="M75.646,12.941c0,3.631,0.002,7.263-0.004,10.894
			c0,0.233-0.023,0.478-0.098,0.697c-0.185,0.551-0.583,0.89-1.169,0.911c-0.79,0.03-1.583,0.035-2.374,0.002
			c-0.73-0.03-1.253-0.606-1.285-1.342c-0.004-0.082-0.004-0.164-0.004-0.246c0-7.28-0.001-14.561,0.004-21.841
			c0-0.229,0.026-0.468,0.097-0.684c0.185-0.57,0.673-0.908,1.302-0.917c0.71-0.009,1.42-0.012,2.13,0
			c0.78,0.014,1.331,0.552,1.39,1.332c0.008,0.108,0.012,0.218,0.012,0.327C75.646,5.697,75.646,9.319,75.646,12.941z"/>
		<path fill-rule="evenodd" clip-rule="evenodd" fill="#FFFFFF" d="M90.685,14.139c-2.81,0-5.606,0-8.414,0
			c0.053-0.518,0.187-1.004,0.423-1.459c0.618-1.188,1.615-1.858,2.916-2.083c1.011-0.175,1.995-0.073,2.926,0.385
			C89.903,11.657,90.584,12.957,90.685,14.139z"/>
		<path fill-rule="evenodd" clip-rule="evenodd" fill="#FFFFFF" d="M36.037,14.137c-2.798,0-5.594,0-8.425,0
			c0.057-0.263,0.092-0.523,0.17-0.77c0.497-1.575,1.586-2.482,3.194-2.771c1.004-0.18,1.99-0.081,2.911,0.384
			c1.245,0.628,1.938,1.663,2.15,3.03C36.042,14.05,36.037,14.091,36.037,14.137z"/>
	</g>
</g>
</svg>
