<?xml version="1.0" encoding="utf-8"?>
<!-- Generator: Adobe Illustrator 16.0.0, SVG Export Plug-In . SVG Version: 6.00 Build 0)  -->
<!DOCTYPE svg PUBLIC "-//W3C//DTD SVG 1.1//EN" "http://www.w3.org/Graphics/SVG/1.1/DTD/svg11.dtd">
<svg version="1.1" id="Capa_1" xmlns="http://www.w3.org/2000/svg" xmlns:xlink="http://www.w3.org/1999/xlink" x="0px" y="0px"
	 width="829px" height="148px" viewBox="0 0 829 148" enable-background="new 0 0 829 148" xml:space="preserve">
<g>
	<defs>
		<rect id="SVGID_1_" width="829" height="148"/>
	</defs>
	<clipPath id="SVGID_2_">
		<use xlink:href="#SVGID_1_"  overflow="visible"/>
	</clipPath>
	<g clip-path="url(#SVGID_2_)">
		<defs>
			<rect id="SVGID_3_" x="-147" y="-109" width="1135.778" height="401.795"/>
		</defs>
		<clipPath id="SVGID_4_">
			<use xlink:href="#SVGID_3_"  overflow="visible"/>
		</clipPath>
		<g clip-path="url(#SVGID_4_)">
			<g>
				<path fill-rule="evenodd" clip-rule="evenodd" fill="#FFFFFF" d="M-146.52,293.755c0-134.092,0-268.184,0-402.275
					c378.593,0,757.185,0,1135.779,0c0,134.091,0,268.183,0,402.275C610.665,293.755,232.073,293.755-146.52,293.755z
					 M47.936,68.443c-1.742,0.481-3.041,0.795-4.312,1.198c-11.666,3.69-22.519,8.744-31.123,17.84
					c-8.96,9.473-10.021,21.971-2.637,32.679c2.998,4.348,6.832,7.809,11.165,10.712c15.25,10.216,32.482,14.195,50.447,15.349
					c7.221,0.464,14.521-0.041,21.771-0.384c8.596-0.406,16.982-2.206,25.155-4.842c11.631-3.753,22.46-8.91,30.721-18.364
					c7.184-8.221,9.208-19.264,3.568-29.164c-3.451-6.059-8.475-10.472-14.192-14.248c-7.766-5.129-16.403-8.222-25.211-10.775
					c-0.541-7.194-2.357-11.179-4.591-15.255C99.552,36.506,88.728,20.742,81.006,3.262c-6.536,11.069-7.17,22.579-0.765,34.121
					c5.942,10.707,12.267,21.2,18.38,31.813c6.58,11.424,6.656,22.858,0.1,34.257c-1.409-3.151-2.581-6.341-4.194-9.289
					C83.882,74.705,71.527,56.189,62.063,36.087C55.783,46.75,54.924,58.025,61,69.293c5.852,10.854,12.166,21.464,18.466,32.069
					c4.563,7.681,6.129,15.808,4.445,24.532c-0.695,3.598-1.922,7.038-4.224,10.197c-1.028-2.53-1.714-4.916-2.9-7.02
					c-6.372-11.296-12.836-22.54-19.333-33.765C52.676,87.054,47.25,79.062,47.936,68.443z M674.893,67.7
					c-7.915-1.335-15.441-1.481-22.931,0.02c-11.9,2.385-20.779,8.612-25.104,20.338c-3.631,9.845-3.686,19.917-1.6,30.084
					c1.501,7.315,4.721,13.73,10.514,18.537c6.427,5.334,13.943,7.077,22.249,6.411c6.051-0.485,11.062-2.661,15.049-7.209
					c0.658-0.751,1.278-1.535,2.144-2.578c0.315,2.921,0.593,5.479,0.874,8.08c4.88,0,9.628,0,14.39,0c0-33.079,0-65.997,0-99.483
					c-4.523,0.632-8.818,1.262-13.122,1.819c-2.09,0.271-2.547,1.41-2.51,3.396C674.97,53.898,674.893,60.687,674.893,67.7z
					 M246.269,45.697c-9.378-4.293-29.757-5.661-41.091-2.724c-21.935,5.683-23.669,29.678-13.844,41.807
					c4.549,5.616,10.856,8.691,17.244,11.673c6.477,3.021,13.005,5.995,19.208,9.522c5.074,2.885,6.96,7.843,5.831,13.556
					c-1.027,5.196-5.097,7.45-9.787,8.632c-6.831,1.72-13.767,1.503-20.6,0.179c-5.236-1.014-10.358-2.618-15.688-4.001
					c-0.041,0.098-0.3,0.509-0.386,0.954c-0.688,3.568-1.173,7.187-2.075,10.699c-0.507,1.975,0.103,2.633,1.816,3.313
					c6.645,2.638,13.544,3.735,20.644,4.299c9.507,0.755,18.759,0.081,27.591-3.653c19.308-8.163,19.639-33.799,5.852-44.195
					c-5.463-4.12-11.521-6.982-17.662-9.825c-5.453-2.523-10.975-5.033-16.033-8.232c-4.531-2.866-6.161-7.531-4.857-12.923
					c1.157-4.78,4.805-6.951,9.101-8.133c5.617-1.547,11.354-1.263,17.024-0.269c4.822,0.846,9.594,1.975,14.948,3.096
					C244.406,54.98,245.346,50.297,246.269,45.697z M768.734,111.309c0.959-7.028,1.464-13.74,0.139-20.466
					c-1.954-9.922-7.03-17.52-16.559-21.536c-7.001-2.952-14.372-3.181-21.806-2.095c-11.773,1.721-20.176,7.873-24.399,19.134
					c-3.886,10.364-3.989,21.033-1.447,31.682c2.862,11.996,10.338,19.902,22.238,23.287c6.205,1.766,12.557,2.297,19.08,1.8
					c5.845-0.445,11.468-1.482,16.906-3.572c0.799-0.307,1.902-0.98,2.041-1.654c0.907-4.412,1.587-8.87,2.374-13.506
					c-3.488,1.174-6.568,2.431-9.763,3.227c-3.22,0.802-6.542,1.234-9.839,1.674c-6.149,0.82-12.204,0.545-17.973-2.054
					c-5.698-2.567-10.62-10.273-10.054-15.921C735.946,111.309,752.238,111.309,768.734,111.309z M326.169,141.426
					c0.055-0.523,0.102-0.762,0.102-1c0.006-22.721-0.002-45.441,0.037-68.162c0.003-1.382-0.489-1.848-1.801-2.241
					c-12.107-3.633-24.43-4.492-36.813-2.231c-12.675,2.314-21.493,9.627-25.55,22.054c-2.802,8.583-2.745,17.472-1.364,26.247
					c1.274,8.093,4.472,15.504,11.189,20.709c9.074,7.03,19.236,8.509,29.841,4.306c3.438-1.362,6.239-4.329,9.192-6.462
					c0.22,1.952,0.492,4.374,0.763,6.78C316.634,141.426,321.327,141.426,326.169,141.426z M532.092,141.542
					c0.068-0.604,0.133-0.912,0.133-1.22c0.007-22.707,0-45.414,0.031-68.121c0.001-1.24-0.378-1.771-1.62-2.143
					c-12.174-3.645-24.568-4.559-37.021-2.253c-11.913,2.207-20.57,8.81-24.954,20.482c-2.552,6.791-2.789,13.816-2.628,20.926
					c0.162,7.123,1.867,13.82,5.371,20.036c7.86,13.941,26.816,17.578,38.478,10.841c2.599-1.502,4.72-3.83,7.072-5.788
					c0.161,1.77,0.203,3.69,0.579,5.545c0.132,0.65,1.071,1.601,1.668,1.62C523.425,141.607,527.656,141.542,532.092,141.542z
					 M358.902,141.461c0-2.479,0-4.707,0-6.935c0-16.96,0.003-33.92-0.005-50.88c-0.001-1.316-0.167-2.576,1.823-2.611
					c5.226-0.093,10.468-0.651,15.67-0.383c6.892,0.355,11.821,3.148,13.193,10.361c0.443,2.331,0.572,4.751,0.581,7.132
					c0.053,13.6,0.025,27.199,0.025,40.799c0,0.837,0,1.674,0,2.408c5.473,0,10.55,0,15.755,0c0-1.703,0.012-3.216-0.002-4.729
					c-0.148-16.142-0.044-32.292-0.564-48.422c-0.246-7.631-4.219-13.545-11.167-17.214c-5.47-2.889-11.41-3.858-17.453-4.2
					c-10.64-0.601-21.074,0.994-31.438,3.259c-1.767,0.386-2.218,1.101-2.213,2.836c0.059,22.08,0.038,44.16,0.044,66.24
					c0,0.767,0.073,1.532,0.114,2.339C348.518,141.461,353.538,141.461,358.902,141.461z M549.085,141.405
					c5.368,0,10.442,0,15.755,0c0-1.073,0-2.013,0-2.951c0-17.991,0-35.981,0.001-53.973c0-0.639-0.154-1.337,0.051-1.902
					c0.204-0.562,0.725-1.362,1.188-1.422c6.703-0.869,13.446-1.593,20.115,0.044c4.818,1.183,8.272,4.011,9.106,9.22
					c0.375,2.337,0.777,4.705,0.79,7.061c0.074,13.753,0.037,27.506,0.037,41.259c0,0.856,0,1.713,0,2.6c5.382,0,10.512,0,15.756,0
					c0-10.992,0.056-21.782-0.021-32.571c-0.05-7.02,0.006-14.06-0.532-21.049c-0.492-6.386-3.475-11.689-8.918-15.381
					c-5.942-4.031-12.755-5.146-19.682-5.544c-10.553-0.607-20.912,0.924-31.196,3.213c-1.938,0.431-2.51,1.07-2.503,3.069
					c0.082,21.989,0.052,43.978,0.052,65.966C549.085,139.756,549.085,140.469,549.085,141.405z M437.039,41.862
					c-4.828,0.75-9.259,1.466-13.7,2.116c-1.838,0.269-2.378,1.186-2.37,3.056c0.075,17.828,0.006,35.656,0.063,53.483
					c0.025,7.818-0.013,15.652,0.458,23.45c0.374,6.18,2.807,11.702,8.304,15.107c9.034,5.599,18.693,5.127,28.457,2.242
					c0.494-0.146,1.102-0.812,1.184-1.312c0.659-4.034,1.207-8.087,1.743-11.82c-4.638,0.495-9.013,1.239-13.404,1.367
					c-6.275,0.183-10.54-4.041-10.601-10.326c-0.115-11.83-0.062-23.663-0.065-35.494c0-0.367,0.139-0.732,0.241-1.239
					c7.608,0,15.102,0,22.897,0c0.482-4.478,0.95-8.819,1.451-13.475c-8.448,0-16.475,0-24.657,0
					C437.039,60.049,437.039,51.352,437.039,41.862z M798.657,141.456c0-20.229,0-40.254,0-60.525
					c4.52-0.283,8.792-0.674,13.072-0.775c2.855-0.067,5.718,0.34,8.58,0.39c0.589,0.011,1.658-0.554,1.714-0.962
					c0.551-4.053,0.936-8.129,1.366-12.186c-12.853-1.513-27.078-0.611-38.194,2.443c-1.767,0.485-2.382,1.15-2.375,3.033
					c0.07,22.065,0.044,44.131,0.05,66.197c0,0.771,0.073,1.541,0.116,2.387C788.194,141.456,793.212,141.456,798.657,141.456z"/>
				<path fill-rule="evenodd" clip-rule="evenodd" d="M47.936,68.443c-0.687,10.619,4.74,18.611,9.518,26.865
					c6.498,11.225,12.961,22.469,19.333,33.765c1.187,2.104,1.872,4.489,2.9,7.02c2.301-3.159,3.529-6.6,4.224-10.197
					c1.684-8.725,0.117-16.852-4.445-24.532C73.166,90.757,66.852,80.147,61,69.293c-6.076-11.269-5.217-22.543,1.063-33.206
					c9.463,20.102,21.819,38.618,32.464,58.076c1.613,2.948,2.785,6.138,4.194,9.289c6.556-11.399,6.48-22.833-0.1-34.257
					c-6.113-10.612-12.438-21.106-18.38-31.813c-6.405-11.542-5.771-23.052,0.765-34.121c7.722,17.48,18.546,33.244,27.691,49.926
					c2.234,4.077,4.051,8.061,4.591,15.255c8.808,2.554,17.445,5.646,25.211,10.775c5.717,3.776,10.741,8.189,14.192,14.248
					c5.64,9.9,3.616,20.943-3.568,29.164c-8.261,9.454-19.09,14.611-30.721,18.364c-8.173,2.636-16.559,4.436-25.155,4.842
					c-7.25,0.343-14.55,0.848-21.771,0.384c-17.964-1.153-35.197-5.133-50.447-15.349c-4.333-2.903-8.167-6.364-11.165-10.712
					c-7.384-10.708-6.323-23.206,2.637-32.679c8.604-9.096,19.458-14.15,31.123-17.84C44.895,69.238,46.194,68.924,47.936,68.443z"
					/>
				<path fill-rule="evenodd" clip-rule="evenodd" d="M674.893,67.7c0-7.014,0.077-13.802-0.048-20.586
					c-0.037-1.986,0.42-3.125,2.51-3.396c4.304-0.557,8.599-1.187,13.122-1.819c0,33.486,0,66.404,0,99.483c-4.762,0-9.51,0-14.39,0
					c-0.281-2.601-0.559-5.159-0.874-8.08c-0.865,1.043-1.485,1.827-2.144,2.578c-3.987,4.548-8.998,6.724-15.049,7.209
					c-8.306,0.666-15.822-1.077-22.249-6.411c-5.793-4.807-9.013-11.222-10.514-18.537c-2.086-10.167-2.031-20.239,1.6-30.084
					c4.325-11.726,13.204-17.953,25.104-20.338C659.451,66.219,666.978,66.365,674.893,67.7z M674.893,81.679
					c-5.262-0.969-10.348-1.689-15.636-1.2c-8.539,0.79-14.998,5.67-17.555,13.892c-2.006,6.448-2.058,13.056-0.852,19.604
					c1.167,6.338,3.906,12.016,10.286,14.558c8.029,3.199,15.765,1.996,22.802-3.044c0.589-0.422,0.907-1.58,0.914-2.4
					c0.065-8.399,0.04-16.799,0.04-25.199C674.893,92.54,674.893,87.19,674.893,81.679z"/>
				<path fill-rule="evenodd" clip-rule="evenodd" d="M246.269,45.697c-0.923,4.601-1.863,9.284-2.764,13.774
					c-5.354-1.122-10.126-2.25-14.948-3.096c-5.67-0.995-11.407-1.278-17.024,0.269c-4.295,1.183-7.944,3.354-9.101,8.133
					c-1.304,5.392,0.326,10.057,4.857,12.923c5.059,3.199,10.581,5.708,16.033,8.232c6.141,2.843,12.198,5.705,17.662,9.825
					c13.787,10.396,13.456,36.032-5.852,44.195c-8.832,3.734-18.084,4.408-27.591,3.653c-7.1-0.563-13.999-1.661-20.644-4.299
					c-1.713-0.681-2.324-1.339-1.816-3.313c0.902-3.513,1.387-7.131,2.075-10.699c0.086-0.445,0.345-0.856,0.386-0.954
					c5.329,1.383,10.451,2.987,15.688,4.001c6.833,1.324,13.769,1.541,20.6-0.179c4.689-1.182,8.76-3.436,9.787-8.632
					c1.129-5.713-0.757-10.671-5.831-13.556c-6.203-3.527-12.731-6.501-19.208-9.522c-6.388-2.981-12.695-6.057-17.244-11.673
					c-9.825-12.128-8.091-36.124,13.844-41.807C216.512,40.036,236.891,41.403,246.269,45.697z"/>
				<path fill-rule="evenodd" clip-rule="evenodd" d="M768.734,111.309c-16.496,0-32.788,0-49.061,0
					c-0.566,5.647,4.355,13.354,10.054,15.921c5.769,2.599,11.823,2.874,17.973,2.054c3.297-0.439,6.619-0.872,9.839-1.674
					c3.194-0.796,6.274-2.053,9.763-3.227c-0.787,4.636-1.467,9.094-2.374,13.506c-0.139,0.674-1.242,1.348-2.041,1.654
					c-5.438,2.09-11.062,3.127-16.906,3.572c-6.523,0.497-12.875-0.034-19.08-1.8c-11.9-3.385-19.376-11.291-22.238-23.287
					c-2.542-10.649-2.438-21.318,1.447-31.682c4.224-11.261,12.626-17.414,24.399-19.134c7.434-1.086,14.805-0.857,21.806,2.095
					c9.528,4.017,14.604,11.614,16.559,21.536C770.198,97.568,769.693,104.28,768.734,111.309z M753.437,97.82
					c0.267-10.125-5.169-16.812-13.976-17.666c-12.197-1.184-19.458,5.218-20.387,17.666C730.474,97.82,741.864,97.82,753.437,97.82
					z"/>
				<path fill-rule="evenodd" clip-rule="evenodd" d="M326.169,141.426c-4.842,0-9.536,0-14.405,0
					c-0.271-2.406-0.543-4.828-0.763-6.78c-2.953,2.133-5.754,5.1-9.192,6.462c-10.605,4.203-20.767,2.725-29.841-4.306
					c-6.717-5.205-9.915-12.616-11.189-20.709c-1.381-8.775-1.438-17.664,1.364-26.247c4.057-12.427,12.875-19.74,25.55-22.054
					c12.383-2.261,24.707-1.402,36.813,2.231c1.312,0.394,1.804,0.859,1.801,2.241c-0.039,22.721-0.031,45.441-0.037,68.162
					C326.271,140.664,326.225,140.902,326.169,141.426z M310.518,80.554c-5.16,0-10.074-0.278-14.946,0.064
					c-7.606,0.535-13.613,4.061-16.717,11.222c-3.963,9.143-3.762,18.518-0.257,27.783c1.455,3.847,4.045,6.895,7.883,8.586
					c7.834,3.451,15.354,2.455,22.455-2.051c0.8-0.507,1.499-1.846,1.514-2.811c0.121-7.916,0.068-15.836,0.068-23.755
					C310.518,93.523,310.518,87.453,310.518,80.554z"/>
				<path fill-rule="evenodd" clip-rule="evenodd" d="M532.092,141.542c-4.436,0-8.667,0.065-12.892-0.075
					c-0.597-0.02-1.536-0.97-1.668-1.62c-0.376-1.854-0.418-3.775-0.579-5.545c-2.353,1.958-4.474,4.286-7.072,5.788
					c-11.661,6.737-30.617,3.101-38.478-10.841c-3.504-6.216-5.209-12.913-5.371-20.036c-0.161-7.109,0.076-14.135,2.628-20.926
					c4.384-11.672,13.041-18.275,24.954-20.482c12.453-2.306,24.848-1.392,37.021,2.253c1.242,0.373,1.621,0.903,1.62,2.143
					c-0.031,22.707-0.024,45.414-0.031,68.121C532.225,140.63,532.16,140.938,532.092,141.542z M516.455,80.603
					c-5.573,0-10.984-0.48-16.271,0.123c-6.422,0.732-11.67,3.951-14.827,9.927c-4.048,7.663-3.756,15.823-2.4,23.97
					c0.808,4.861,3.006,9.14,7.178,12.242c6.83,5.079,18.596,4.049,25.52-1.159c0.462-0.348,0.766-1.202,0.768-1.822
					C516.465,109.744,516.455,95.604,516.455,80.603z"/>
				<path fill-rule="evenodd" clip-rule="evenodd" d="M358.902,141.461c-5.365,0-10.385,0-15.637,0
					c-0.041-0.807-0.113-1.572-0.114-2.339c-0.006-22.08,0.015-44.16-0.044-66.24c-0.005-1.736,0.447-2.451,2.213-2.836
					c10.365-2.265,20.798-3.859,31.438-3.259c6.043,0.341,11.983,1.311,17.453,4.2c6.948,3.669,10.922,9.583,11.167,17.214
					c0.52,16.13,0.416,32.281,0.564,48.422c0.014,1.513,0.002,3.025,0.002,4.729c-5.206,0-10.282,0-15.755,0
					c0-0.734,0-1.571,0-2.408c0-13.6,0.027-27.199-0.025-40.799c-0.009-2.381-0.138-4.801-0.581-7.132
					c-1.373-7.213-6.302-10.006-13.193-10.361c-5.203-0.268-10.444,0.291-15.67,0.383c-1.991,0.036-1.824,1.295-1.823,2.611
					c0.008,16.96,0.005,33.92,0.005,50.88C358.902,136.754,358.902,138.981,358.902,141.461z"/>
				<path fill-rule="evenodd" clip-rule="evenodd" d="M549.085,141.405c0-0.937,0-1.649,0-2.362c0-21.988,0.03-43.977-0.052-65.966
					c-0.007-1.999,0.564-2.638,2.503-3.069c10.284-2.289,20.644-3.82,31.196-3.213c6.927,0.399,13.739,1.513,19.682,5.544
					c5.443,3.692,8.426,8.996,8.918,15.381c0.538,6.989,0.482,14.029,0.532,21.049c0.076,10.789,0.021,21.579,0.021,32.571
					c-5.244,0-10.374,0-15.756,0c0-0.887,0-1.743,0-2.6c0-13.753,0.037-27.506-0.037-41.259c-0.013-2.356-0.415-4.724-0.79-7.061
					c-0.834-5.209-4.288-8.037-9.106-9.22c-6.669-1.637-13.412-0.914-20.115-0.044c-0.464,0.06-0.984,0.86-1.188,1.422
					c-0.205,0.565-0.051,1.263-0.051,1.902c-0.001,17.991-0.001,35.981-0.001,53.973c0,0.938,0,1.878,0,2.951
					C559.527,141.405,554.453,141.405,549.085,141.405z"/>
				<path fill-rule="evenodd" clip-rule="evenodd" d="M437.039,41.862c0,9.489,0,18.187,0,27.156c8.183,0,16.209,0,24.657,0
					c-0.501,4.656-0.969,8.998-1.451,13.475c-7.796,0-15.289,0-22.897,0c-0.103,0.506-0.241,0.872-0.241,1.239
					c0.004,11.831-0.05,23.664,0.065,35.494c0.061,6.285,4.325,10.509,10.601,10.326c4.392-0.128,8.767-0.872,13.404-1.367
					c-0.536,3.733-1.084,7.786-1.743,11.82c-0.082,0.5-0.689,1.165-1.184,1.312c-9.764,2.885-19.423,3.356-28.457-2.242
					c-5.497-3.405-7.93-8.928-8.304-15.107c-0.471-7.798-0.433-15.632-0.458-23.45c-0.057-17.828,0.013-35.656-0.063-53.483
					c-0.008-1.87,0.532-2.787,2.37-3.056C427.78,43.328,432.211,42.612,437.039,41.862z"/>
				<path fill-rule="evenodd" clip-rule="evenodd" d="M798.657,141.456c-5.445,0-10.463,0-15.671,0
					c-0.043-0.846-0.116-1.616-0.116-2.387c-0.006-22.065,0.021-44.132-0.05-66.197c-0.007-1.882,0.608-2.547,2.375-3.033
					c11.116-3.054,25.342-3.956,38.194-2.443c-0.431,4.057-0.815,8.133-1.366,12.186c-0.056,0.408-1.125,0.973-1.714,0.962
					c-2.862-0.05-5.725-0.457-8.58-0.39c-4.28,0.101-8.553,0.492-13.072,0.775C798.657,101.202,798.657,121.227,798.657,141.456z"/>
				<path fill-rule="evenodd" clip-rule="evenodd" fill="#FFFFFF" d="M674.893,81.679c0,5.512,0,10.861,0,16.211
					c0,8.4,0.025,16.8-0.04,25.199c-0.007,0.82-0.325,1.979-0.914,2.4c-7.037,5.04-14.772,6.243-22.802,3.044
					c-6.38-2.542-9.119-8.22-10.286-14.558c-1.206-6.549-1.154-13.156,0.852-19.604c2.557-8.222,9.016-13.102,17.555-13.892
					C664.545,79.99,669.631,80.71,674.893,81.679z"/>
				<path fill-rule="evenodd" clip-rule="evenodd" fill="#FFFFFF" d="M753.437,97.82c-11.572,0-22.963,0-34.362,0
					c0.929-12.448,8.189-18.85,20.387-17.666C748.268,81.009,753.703,87.695,753.437,97.82z"/>
				<path fill-rule="evenodd" clip-rule="evenodd" fill="#FFFFFF" d="M310.518,80.554c0,6.899,0,12.97,0,19.039
					c0,7.919,0.053,15.839-0.068,23.755c-0.015,0.965-0.714,2.304-1.514,2.811c-7.102,4.506-14.621,5.502-22.455,2.051
					c-3.838-1.691-6.429-4.739-7.883-8.586c-3.504-9.266-3.706-18.641,0.257-27.783c3.104-7.161,9.111-10.688,16.717-11.222
					C300.443,80.275,305.358,80.554,310.518,80.554z"/>
				<path fill-rule="evenodd" clip-rule="evenodd" fill="#FFFFFF" d="M516.455,80.603c0,15,0.01,29.141-0.033,43.281
					c-0.002,0.62-0.306,1.475-0.768,1.822c-6.924,5.208-18.689,6.238-25.52,1.159c-4.172-3.103-6.37-7.381-7.178-12.242
					c-1.355-8.147-1.647-16.308,2.4-23.97c3.157-5.977,8.405-9.195,14.827-9.927C505.471,80.123,510.882,80.603,516.455,80.603z"/>
			</g>
		</g>
	</g>
</g>
</svg>
