<?xml version="1.0" encoding="utf-8"?>
<!-- Generator: Adobe Illustrator 16.0.0, SVG Export Plug-In . SVG Version: 6.00 Build 0)  -->
<!DOCTYPE svg PUBLIC "-//W3C//DTD SVG 1.1//EN" "http://www.w3.org/Graphics/SVG/1.1/DTD/svg11.dtd">
<svg version="1.1" id="Capa_1" xmlns="http://www.w3.org/2000/svg" xmlns:xlink="http://www.w3.org/1999/xlink" x="0px" y="0px"
	 width="419.5px" height="46.75px" viewBox="0 0 419.5 46.75" enable-background="new 0 0 419.5 46.75" xml:space="preserve">
<g>
	<defs>
		<rect id="SVGID_1_" width="419.5" height="46.75"/>
	</defs>
	<clipPath id="SVGID_2_">
		<use xlink:href="#SVGID_1_"  overflow="visible"/>
	</clipPath>
	<g clip-path="url(#SVGID_2_)">
		<g>
			<path fill-rule="evenodd" clip-rule="evenodd" fill="#FFFFFF" d="M-79.5,244.941c0-147.126,0-293.905,0-440.813
				c193.642,0,387.285,0,580.928,0c0,146.917,0,293.862,0,440.811C307.835,244.941,114.242,244.941-79.5,244.941z M121.129,4.064
				c0,13.592,0,27.595,0,41.624c3.003,0,5.603,0,8.896,0c0-6.671,0-13.071,0-19.279c6.723-1.644,11.594-0.6,15.094,5.23
				c2.12,3.531,5.212,6.468,7.762,9.755c3.984,5.136,6.733,5.964,14.048,3.669c-5.756-6.62-11.365-13.072-17.246-19.835
				c2.295-0.864,4.166-1.494,5.977-2.266c5.741-2.446,8.384-6.083,7.776-10.855c-0.707-5.556-5.085-7.664-9.56-7.878
				C143.148,3.718,132.378,4.064,121.129,4.064z M351.062,34.706c-2.43-1.822-3.745-2.774-5.025-3.774
				c-10.627-8.297-21.196-16.67-31.921-24.839c-1.747-1.331-4.172-1.77-7.499-3.111c0,13.974-0.001,26.434,0.001,38.894
				c0.001,2.47-0.576,5.095,3.513,4.995c3.843-0.094,3.134-2.629,3.143-4.85c0.034-8.74,0.014-17.482,0.014-27.197
				c2.354,1.756,3.801,2.774,5.182,3.875c10.934,8.718,21.822,17.493,32.815,26.134c1.512,1.188,3.524,1.738,5.9,2.866
				c0-15.173,0-29.215,0-43.583c-2.174,0.118-3.897,0.212-6.122,0.333C351.062,14.455,351.062,23.906,351.062,34.706z
				 M193.194,45.907c0-6.655,0-13.1,0-20.605c7.596,6.495,14.505,11.745,20.587,17.823c4.439,4.438,8.924,3.424,14.33,1.696
				c-8.805-7.373-17.608-14.746-26.679-22.342c8.872-6.11,17.286-11.906,26.414-18.193c-4.852-1.259-8.281-1.131-11.696,1.467
				c-7.2,5.478-14.62,10.668-23.002,16.737c0-7.117,0-12.82,0-18.628c-3.318,0-6.036,0-9.087,0c0,14.231,0,28.072,0,42.044
				C187.106,45.907,189.723,45.907,193.194,45.907z M3.294,36.728c-3.059,5.376-2.854,6.215,3.53,7.858
				c9.583,2.468,19.142,2.394,28.378-1.553c5.021-2.145,9.078-5.613,8.933-11.488c-0.146-5.921-5.212-7.57-9.842-9.166
				c-1.881-0.648-3.862-0.997-5.78-1.545c-4.15-1.184-8.458-2.032-12.359-3.781c-1.916-0.858-3.071-3.418-4.57-5.208
				c1.706-1.413,3.317-2.969,5.156-4.179c0.904-0.595,2.255-0.844,3.359-0.746c6.168,0.548,12.322,1.249,19.35,1.989
				c0.247-0.413,1.139-1.905,2.375-3.971C30.076,0.717,18.83-0.078,8.031,5.387c-7.252,3.671-6.749,13.016,0.618,16.65
				c3.678,1.815,7.842,2.639,11.778,3.937c3.618,1.192,7.429,2.021,10.783,3.737c4.074,2.082,4.25,6.391,0.32,8.684
				c-2.613,1.524-6.042,2.861-8.894,2.519C16.319,40.153,10.135,38.282,3.294,36.728z M294.523,46.107
				c-8.063-13.597-15.824-26.722-23.626-39.823c-2.817-4.731-4.342-4.744-7.289-0.105c-7.574,11.92-15.132,23.852-22.663,35.798
				c-0.739,1.172-1.259,2.482-1.881,3.729c0.313,0.489,0.626,0.979,0.939,1.467c2.47-0.941,6.661-1.364,7.128-2.91
				c2.865-9.499,9.533-10.495,17.742-9.345c2.447,0.343,5.025,0.347,7.468-0.011c4.384-0.639,6.488,1.429,8.251,5.176
				C284.256,47.863,284.572,47.84,294.523,46.107z M107.748,45.258C99.4,31.181,91.408,17.595,83.293,4.083
				c-2.426-4.041-4.352-2.106-6.173,0.784c-7.8,12.375-15.67,24.708-23.484,37.074c-0.575,0.911-0.908,1.976-1.493,3.28
				c4.689,1.231,8.283,1.172,9.722-4.032c1.688-6.107,5.663-8.14,11.851-7.315c3.924,0.522,8.004,0.403,11.96,0.014
				c4.115-0.406,6.193,1.212,7.928,4.854C97.412,46.73,97.614,46.635,107.748,45.258z M390.611,46.767c3.457,0,6.172,0,9.055,0
				c0.108-1.668,0.414-3.008,0.244-4.285c-1.399-10.506,1.943-19.037,9.947-26.059c3.729-3.271,6.776-7.322,10.438-11.355
				c-5.15-1.284-8.545-0.694-11.381,3.555c-3.548,5.314-7.888,10.1-12.275,15.603c-4.423-5.664-8.406-10.737-12.359-15.833
				c-3.665-4.725-7.554-5.653-13.951-3.023c4.501,5.253,8.577,10.763,13.427,15.475c5.826,5.663,8.6,11.905,6.908,20.002
				C390.304,42.57,390.611,44.437,390.611,46.767z"/>
			<path fill-rule="evenodd" clip-rule="evenodd" d="M121.129,4.064c11.249,0,22.019-0.346,32.748,0.165
				c4.475,0.214,8.853,2.322,9.56,7.878c0.607,4.772-2.035,8.409-7.776,10.855c-1.811,0.771-3.682,1.401-5.977,2.266
				c5.881,6.763,11.49,13.215,17.246,19.835c-7.315,2.295-10.064,1.467-14.048-3.669c-2.549-3.287-5.642-6.224-7.762-9.755
				c-3.5-5.83-8.371-6.874-15.094-5.23c0,6.208,0,12.608,0,19.279c-3.293,0-5.893,0-8.896,0
				C121.129,31.659,121.129,17.656,121.129,4.064z M130.25,22.837c6.866-1.022,13.416-1.539,19.656-3.209
				c1.87-0.501,3.998-4.257,3.933-6.462c-0.054-1.826-2.951-4.77-4.95-5.114c-6.083-1.046-12.341-1.073-18.639-1.505
				C130.25,12.261,130.25,16.853,130.25,22.837z"/>
			<path fill-rule="evenodd" clip-rule="evenodd" d="M351.062,34.706c0-10.8,0-20.251,0-30.257c2.225-0.121,3.948-0.215,6.122-0.333
				c0,14.368,0,28.411,0,43.583c-2.376-1.128-4.389-1.678-5.9-2.866c-10.993-8.642-21.882-17.416-32.815-26.134
				c-1.381-1.101-2.828-2.119-5.182-3.875c0,9.715,0.021,18.457-0.014,27.197c-0.009,2.221,0.7,4.756-3.143,4.85
				c-4.089,0.1-3.512-2.525-3.513-4.995c-0.002-12.46-0.001-24.92-0.001-38.894c3.327,1.341,5.752,1.78,7.499,3.111
				c10.725,8.169,21.294,16.542,31.921,24.839C347.316,31.932,348.632,32.884,351.062,34.706z"/>
			<path fill-rule="evenodd" clip-rule="evenodd" d="M193.194,45.907c-3.471,0-6.087,0-9.133,0c0-13.973,0-27.813,0-42.044
				c3.051,0,5.769,0,9.087,0c0,5.809,0,11.511,0,18.628c8.382-6.069,15.802-11.259,23.002-16.737
				c3.415-2.598,6.845-2.726,11.696-1.467c-9.128,6.287-17.542,12.083-26.414,18.193c9.071,7.596,17.875,14.969,26.679,22.342
				c-5.406,1.728-9.891,2.741-14.33-1.696c-6.082-6.078-12.992-11.328-20.587-17.823C193.194,32.808,193.194,39.252,193.194,45.907z
				"/>
			<path fill-rule="evenodd" clip-rule="evenodd" d="M3.294,36.728c6.841,1.555,13.024,3.426,19.342,4.186
				c2.852,0.343,6.281-0.994,8.894-2.519c3.931-2.293,3.754-6.602-0.32-8.684c-3.354-1.716-7.166-2.545-10.783-3.737
				c-3.936-1.298-8.101-2.121-11.778-3.937C1.283,18.403,0.779,9.058,8.031,5.387c10.799-5.465,22.044-4.67,33.792-0.448
				c-1.235,2.065-2.127,3.558-2.375,3.971c-7.028-0.74-13.182-1.441-19.35-1.989c-1.104-0.098-2.455,0.151-3.359,0.746
				c-1.839,1.21-3.45,2.766-5.156,4.179c1.5,1.79,2.654,4.35,4.57,5.208c3.901,1.749,8.209,2.597,12.359,3.781
				c1.918,0.548,3.899,0.896,5.78,1.545c4.63,1.596,9.696,3.245,9.842,9.166c0.145,5.875-3.912,9.344-8.933,11.488
				c-9.237,3.946-18.795,4.021-28.378,1.553C0.441,42.942,0.236,42.104,3.294,36.728z"/>
			<path fill-rule="evenodd" clip-rule="evenodd" d="M294.523,46.107c-9.951,1.732-10.268,1.756-13.931-6.025
				c-1.763-3.747-3.867-5.814-8.251-5.176c-2.442,0.357-5.021,0.354-7.468,0.011c-8.209-1.15-14.877-0.154-17.742,9.345
				c-0.467,1.546-4.658,1.969-7.128,2.91c-0.313-0.488-0.626-0.978-0.939-1.467c0.622-1.246,1.142-2.557,1.881-3.729
				c7.531-11.946,15.089-23.877,22.663-35.798c2.947-4.638,4.472-4.625,7.289,0.105C278.699,19.385,286.461,32.511,294.523,46.107z
				 M265.148,13.332c-3.503,5.797-6.602,10.929-9.873,16.343c6.815,0,12.894,0,19.552,0
				C271.473,24.011,268.477,18.953,265.148,13.332z"/>
			<path fill-rule="evenodd" clip-rule="evenodd" d="M107.748,45.258c-10.134,1.377-10.335,1.473-14.143-6.517
				c-1.735-3.642-3.813-5.26-7.928-4.854c-3.956,0.39-8.036,0.509-11.96-0.014c-6.188-0.824-10.163,1.208-11.851,7.315
				c-1.439,5.204-5.033,5.264-9.722,4.032c0.585-1.305,0.917-2.369,1.493-3.28C61.451,29.575,69.32,17.243,77.121,4.867
				c1.821-2.89,3.747-4.824,6.173-0.784C91.408,17.595,99.4,31.181,107.748,45.258z M88.023,28.852
				c-3.313-5.609-6.298-10.663-9.652-16.34c-3.474,5.737-6.517,10.763-9.895,16.34C75.162,28.852,81.074,28.852,88.023,28.852z"/>
			<path fill-rule="evenodd" clip-rule="evenodd" d="M390.611,46.767c0-2.33-0.308-4.196,0.053-5.922
				c1.691-8.097-1.082-14.339-6.908-20.002c-4.85-4.712-8.926-10.221-13.427-15.475c6.397-2.629,10.286-1.702,13.951,3.023
				c3.953,5.096,7.937,10.169,12.359,15.833c4.388-5.502,8.728-10.288,12.275-15.603c2.836-4.249,6.23-4.838,11.381-3.555
				c-3.662,4.034-6.71,8.084-10.438,11.355c-8.004,7.021-11.347,15.553-9.947,26.059c0.17,1.277-0.136,2.617-0.244,4.285
				C396.783,46.767,394.068,46.767,390.611,46.767z"/>
			<path fill-rule="evenodd" clip-rule="evenodd" fill="#FFFFFF" d="M130.25,22.837c0-5.984,0-10.576,0-16.291
				c6.297,0.432,12.556,0.459,18.639,1.505c1.999,0.345,4.896,3.289,4.95,5.114c0.065,2.205-2.063,5.961-3.933,6.462
				C143.666,21.298,137.116,21.814,130.25,22.837z"/>
			<path fill-rule="evenodd" clip-rule="evenodd" fill="#FFFFFF" d="M265.148,13.332c3.328,5.621,6.324,10.679,9.679,16.343
				c-6.658,0-12.736,0-19.552,0C258.547,24.261,261.646,19.129,265.148,13.332z"/>
			<path fill-rule="evenodd" clip-rule="evenodd" fill="#FFFFFF" d="M88.023,28.852c-6.949,0-12.861,0-19.546,0
				c3.377-5.577,6.42-10.603,9.895-16.34C81.725,18.189,84.709,23.242,88.023,28.852z"/>
		</g>
	</g>
</g>
</svg>
