<?xml version="1.0" ?><!DOCTYPE svg  PUBLIC '-//W3C//DTD SVG 1.1//EN'  'http://www.w3.org/Graphics/SVG/1.1/DTD/svg11.dtd'><svg width="32" height="32" xmlns="http://www.w3.org/2000/svg" xmlns:svg="http://www.w3.org/2000/svg">
  <path fill="#ffffff" id="svg_1" d="m4,10l24,0c1.104,0 2,-0.896 2,-2s-0.896,-2 -2,-2l-24,0c-1.104,0 -2,0.896 -2,2s0.896,2 2,2zm24,4l-24,0c-1.104,0 -2,0.896 -2,2s0.896,2 2,2l24,0c1.104,0 2,-0.896 2,-2s-0.896,-2 -2,-2zm0,8l-24,0c-1.104,0 -2,0.896 -2,2s0.896,2 2,2l24,0c1.104,0 2,-0.896 2,-2s-0.896,-2 -2,-2z"/>
</svg>