<?xml version="1.0" encoding="utf-8"?>
<!-- Generator: Adobe Illustrator 16.0.0, SVG Export Plug-In . SVG Version: 6.00 Build 0)  -->
<!DOCTYPE svg PUBLIC "-//W3C//DTD SVG 1.1//EN" "http://www.w3.org/Graphics/SVG/1.1/DTD/svg11.dtd">
<svg version="1.1" id="Capa_1" xmlns="http://www.w3.org/2000/svg" xmlns:xlink="http://www.w3.org/1999/xlink" x="0px" y="0px"
	 width="561px" height="75.103px" viewBox="0 0 561 75.103" enable-background="new 0 0 561 75.103" xml:space="preserve">
<rect width="561" height="75.103"/>
<g>
	<polyline fill="none" stroke="#4B7FC6" stroke-width="6.5263" stroke-miterlimit="10" points="3.294,75.104 3.294,3.18 6.831,3.18 
		54.418,71.842 56.592,71.842 56.592,0.051 	"/>
	<polyline fill="none" stroke="#4B7FC6" stroke-width="6.5263" stroke-miterlimit="10" points="128.925,3.858 71.277,3.858 
		71.277,37.85 71.277,71.842 128.925,71.842 	"/>
	
		<line fill="none" stroke="#4B7FC6" stroke-width="6.5263" stroke-miterlimit="10" x1="126.208" y1="37.85" x2="71.277" y2="37.85"/>
	<polyline fill="none" stroke="#4B7FC6" stroke-width="6.5263" stroke-miterlimit="10" points="138.924,2.219 163.12,71.842 
		165.295,71.842 190.946,1.489 	"/>
	<polyline fill="none" stroke="#4B7FC6" stroke-width="6.5263" stroke-miterlimit="10" points="162.583,1.364 188.477,71.842 
		191.198,71.842 215.98,1.489 	"/>
	<polyline fill="none" stroke="#4B7FC6" stroke-width="6.5263" stroke-miterlimit="10" points="257.701,2.868 281.478,71.944 
		285.83,71.944 309.912,1.979 	"/>
	
		<line fill="none" stroke="#4B7FC6" stroke-width="6.5263" stroke-miterlimit="10" x1="324.169" y1="0.051" x2="324.169" y2="75.104"/>
	
		<line fill="none" stroke="#4B7FC6" stroke-width="6.5263" stroke-miterlimit="10" x1="405.697" y1="0.051" x2="405.697" y2="75.104"/>
	<polyline fill="none" stroke="#4B7FC6" stroke-width="6.5263" stroke-miterlimit="10" points="502.521,75.104 502.521,3.467 
		507.312,3.467 553.677,71.893 557.484,71.893 557.484,0.051 	"/>
	<path fill="none" stroke="#4B7FC6" stroke-width="6.5263" stroke-miterlimit="10" d="M335.32,71.79l41.061-0.051
		c0,0,15.244,1.055,14.955-17.301c0,0,0.799-16.654-14.41-16.859h-25.836c0,0-13.205,0-13.322-17.947c0,0-0.496-15.33,16.908-16.418
		h39.703"/>
	<path fill="none" stroke="#4B7FC6" stroke-width="6.5263" stroke-miterlimit="10" d="M488.853,37.784
		c0,19.336-15.342,34.262-34.264,34.262s-34.617-14.928-34.617-34.264c0-19.334,15.518-34.619,34.441-34.619
		C473.335,3.163,488.853,18.45,488.853,37.784z"/>
	<polygon fill="#4B7FC6" points="136.285,4.436 134.653,0.051 141.69,0.051 142.25,1.887 	"/>
	<polygon fill="#4B7FC6" points="160.198,4.436 158.566,0.051 165.602,0.051 166.163,1.887 	"/>
	<polygon fill="#4B7FC6" points="193.317,4.436 194.948,0.051 187.912,0.051 187.351,1.887 	"/>
	<polygon fill="#4B7FC6" points="218.405,4.385 220.037,0 213,0 212.44,1.836 	"/>
	<polygon fill="#4B7FC6" points="254.828,4.436 253.197,0.051 260.232,0.051 260.792,1.887 	"/>
	<polygon fill="#4B7FC6" points="312.474,4.436 314.105,0.051 307.07,0.051 306.509,1.887 	"/>
</g>
</svg>
